<svg width="92" height="93" viewBox="0 0 92 93" fill="none" xmlns="http://www.w3.org/2000/svg">
<g clip-path="url(#clip0_1058_1697)">
<rect y="0.186523" width="92" height="92" rx="4" fill="#EABE92"/>
<rect x="6" y="64.1865" width="26" height="22" rx="2" fill="#000D24"/>
<g filter="url(#filter0_d_1058_1697)">
<path d="M25.985 75.1237C25.9353 74.9267 25.7638 74.7922 25.5742 74.7922H21.9679L23.6876 69.7959C23.7688 69.5605 23.656 69.301 23.4348 69.2146C23.2136 69.1281 22.9699 69.2482 22.8887 69.4836L20.9568 75.0901C20.9072 75.2294 20.9298 75.3831 21.0065 75.5032C21.0877 75.6233 21.2186 75.6954 21.354 75.6954H24.0667L18.0005 79.6684L21.2638 69.7863C21.2683 69.7719 21.2728 69.7574 21.2728 69.7478C21.2728 69.743 21.2728 69.7382 21.2773 69.7334C21.2773 69.7238 21.2818 69.7142 21.2818 69.7046C21.2818 69.6998 21.2818 69.695 21.2818 69.6902C21.2818 69.6806 21.2818 69.671 21.2818 69.6662C21.2818 69.6614 21.2818 69.6566 21.2818 69.6518C21.2818 69.6373 21.2818 69.6277 21.2818 69.6133C21.2818 69.6085 21.2818 69.6037 21.2818 69.5989C21.2818 69.5893 21.2818 69.5845 21.2773 69.5749C21.2773 69.5701 21.2773 69.5653 21.2728 69.5605C21.2728 69.5509 21.2683 69.5461 21.2683 69.5365C21.2683 69.5316 21.2683 69.5268 21.2638 69.522C21.2593 69.5124 21.2593 69.5028 21.2547 69.4932V69.4884C21.2502 69.474 21.2457 69.4644 21.2412 69.45C21.2412 69.4452 21.2367 69.4452 21.2367 69.4404C21.2322 69.4308 21.2277 69.426 21.2231 69.4163C21.2231 69.4115 21.2186 69.4067 21.2141 69.4067C21.2096 69.3971 21.2051 69.3923 21.2006 69.3827C21.1961 69.3779 21.1961 69.3731 21.1916 69.3731C21.187 69.3635 21.178 69.3587 21.1735 69.3491C21.169 69.3443 21.169 69.3395 21.1645 69.3395C21.1554 69.3299 21.1509 69.3251 21.1419 69.3155C21.1374 69.3107 21.1329 69.3059 21.1284 69.301C21.1238 69.2962 21.1238 69.2962 21.1193 69.2914C21.1193 69.2914 21.1193 69.2914 21.1148 69.2914C21.0968 69.277 21.0832 69.2674 21.0652 69.253C21.0607 69.253 21.0607 69.2482 21.0561 69.2482C21.0426 69.2386 21.0245 69.2338 21.011 69.2242C21.0065 69.2242 21.002 69.2194 20.9975 69.2194C20.9975 69.2194 20.993 69.2194 20.993 69.2146C20.9749 69.2098 20.9614 69.205 20.9433 69.2002C20.9388 69.2002 20.9343 69.2002 20.9343 69.2002C20.9162 69.1954 20.8982 69.1954 20.8846 69.1906C20.8801 69.1906 20.8801 69.1906 20.8756 69.1906C20.8575 69.1906 20.835 69.1906 20.8169 69.1906C20.8124 69.1906 20.8124 69.1906 20.8079 69.1906C20.7898 69.1906 20.7718 69.1954 20.7537 69.2002H20.7492C20.7312 69.205 20.7131 69.2098 20.6951 69.2194C20.6905 69.2194 20.686 69.2242 20.6815 69.2242C20.6635 69.2338 20.6454 69.2434 20.6319 69.253L12.2005 74.8643C12.038 74.9699 11.9658 75.1813 12.0154 75.3735C12.0696 75.5657 12.2366 75.7002 12.4262 75.7002H15.9287L14.2903 80.5764C14.209 80.8118 14.3264 81.0712 14.5476 81.1577C14.5972 81.1769 14.6424 81.1865 14.692 81.1865C14.868 81.1865 15.0305 81.0712 15.0937 80.8839L16.9398 75.4023C16.9849 75.263 16.9668 75.1093 16.8856 74.9892C16.8044 74.8691 16.678 74.797 16.5381 74.797H13.9157L20.0632 70.7135L16.8044 80.5812C16.7998 80.5956 16.7953 80.61 16.7953 80.6196C16.7953 80.6244 16.7953 80.6292 16.7908 80.634C16.7908 80.6437 16.7863 80.6533 16.7863 80.6629C16.7863 80.6677 16.7863 80.6725 16.7863 80.6773C16.7863 80.6869 16.7863 80.6965 16.7863 80.7061C16.7863 80.7109 16.7863 80.7157 16.7863 80.7205C16.7863 80.7349 16.7863 80.7445 16.7863 80.759C16.7863 80.7638 16.7863 80.7686 16.7863 80.7734C16.7863 80.783 16.7863 80.7878 16.7908 80.7974C16.7908 80.8022 16.7908 80.807 16.7953 80.8118C16.7953 80.8214 16.7998 80.8262 16.7998 80.8358C16.7998 80.8406 16.7998 80.8454 16.8044 80.8502C16.8089 80.8598 16.8089 80.8743 16.8134 80.8839V80.8887C16.8179 80.9031 16.8224 80.9127 16.8269 80.9271C16.8269 80.9319 16.8314 80.9319 16.8314 80.9367C16.8359 80.9463 16.8405 80.9559 16.845 80.9607C16.845 80.9655 16.8495 80.9703 16.8495 80.9703C16.854 80.9799 16.8585 80.9847 16.863 80.9944C16.8675 80.9992 16.8675 80.9992 16.8721 81.004C16.8766 81.0136 16.8856 81.0232 16.8901 81.028C16.8946 81.0328 16.8946 81.0376 16.8991 81.0376C16.9037 81.0424 16.9127 81.052 16.9172 81.0568C16.9217 81.0616 16.9262 81.0664 16.9307 81.0712C16.9352 81.076 16.9352 81.076 16.9398 81.0808C16.9398 81.0808 16.9443 81.0808 16.9443 81.0856C16.9623 81.1 16.9759 81.1097 16.9939 81.1241C16.9984 81.1241 16.9984 81.1289 17.003 81.1289C17.0165 81.1385 17.0345 81.1433 17.0481 81.1529C17.0526 81.1529 17.0571 81.1577 17.0616 81.1577C17.0661 81.1577 17.0661 81.1577 17.0707 81.1625C17.0842 81.1673 17.1023 81.1721 17.1158 81.1769C17.1203 81.1769 17.1203 81.1769 17.1248 81.1769C17.1429 81.1817 17.1609 81.1817 17.1835 81.1865H17.188C17.197 81.1865 17.2015 81.1865 17.2106 81.1865C17.2241 81.1865 17.2331 81.1865 17.2467 81.1865C17.2467 81.1865 17.2467 81.1865 17.2512 81.1865C17.2693 81.1865 17.2918 81.1817 17.3099 81.1769H17.3144C17.3324 81.1721 17.355 81.1673 17.3731 81.1577C17.3731 81.1577 17.3776 81.1577 17.3776 81.1529C17.3956 81.1433 17.4137 81.1337 17.4317 81.1241L25.8044 75.6425C25.9579 75.5272 26.0346 75.3207 25.985 75.1237Z" fill="#02A9F7"/>
</g>
<rect width="17" height="92" transform="translate(38 0.186523)" fill="#B8854A"/>
<rect width="1" height="92" transform="translate(46 0.186523)" fill="#434343"/>
</g>
<defs>
<filter id="filter0_d_1058_1697" x="9.18138" y="67.3929" width="19.6372" height="17.6372" filterUnits="userSpaceOnUse" color-interpolation-filters="sRGB">
<feFlood flood-opacity="0" result="BackgroundImageFix"/>
<feColorMatrix in="SourceAlpha" type="matrix" values="0 0 0 0 0 0 0 0 0 0 0 0 0 0 0 0 0 0 127 0" result="hardAlpha"/>
<feOffset dy="1.02495"/>
<feGaussianBlur stdDeviation="1.40931"/>
<feComposite in2="hardAlpha" operator="out"/>
<feColorMatrix type="matrix" values="0 0 0 0 0 0 0 0 0 0 0 0 0 0 0 0 0 0 0.25 0"/>
<feBlend mode="normal" in2="BackgroundImageFix" result="effect1_dropShadow_1058_1697"/>
<feBlend mode="normal" in="SourceGraphic" in2="effect1_dropShadow_1058_1697" result="shape"/>
</filter>
<clipPath id="clip0_1058_1697">
<rect y="0.186523" width="92" height="92" rx="4" fill="white"/>
</clipPath>
</defs>
</svg>
