<svg width="39" height="39" viewBox="0 0 39 39" fill="none" xmlns="http://www.w3.org/2000/svg">
<rect width="39" height="39" rx="1.72" fill="#EABE92"/>
<rect x="2" y="28" width="12" height="9" rx="0.86" fill="#000D24"/>
<g filter="url(#filter0_d_974_1999)">
<path d="M11.0135 32.553C10.9922 32.4683 10.9184 32.4104 10.8369 32.4104H9.28619L10.0257 30.262C10.0606 30.1608 10.0121 30.0492 9.91696 30.0121C9.82186 29.9749 9.71706 30.0265 9.68212 30.1277L8.85144 32.5385C8.8301 32.5984 8.8398 32.6645 8.87279 32.7162C8.90773 32.7678 8.96401 32.7988 9.02224 32.7988H10.1887L7.58019 34.5072L8.98342 30.2579C8.98536 30.2517 8.9873 30.2455 8.9873 30.2414C8.9873 30.2393 8.9873 30.2372 8.98924 30.2352C8.98924 30.231 8.99118 30.2269 8.99118 30.2228C8.99118 30.2207 8.99118 30.2186 8.99118 30.2166C8.99118 30.2124 8.99118 30.2083 8.99118 30.2062C8.99118 30.2042 8.99118 30.2021 8.99118 30.2C8.99118 30.1939 8.99118 30.1897 8.99118 30.1835C8.99118 30.1815 8.99118 30.1794 8.99118 30.1773C8.99118 30.1732 8.99118 30.1711 8.98924 30.167C8.98924 30.1649 8.98924 30.1629 8.9873 30.1608C8.9873 30.1567 8.98536 30.1546 8.98536 30.1505C8.98536 30.1484 8.98536 30.1463 8.98342 30.1443C8.98148 30.1401 8.98148 30.136 8.97954 30.1319V30.1298C8.9776 30.1236 8.97566 30.1195 8.97372 30.1133C8.97372 30.1112 8.97178 30.1112 8.97178 30.1092C8.96984 30.105 8.96789 30.103 8.96595 30.0988C8.96595 30.0968 8.96401 30.0947 8.96207 30.0947C8.96013 30.0906 8.95819 30.0885 8.95625 30.0844C8.95431 30.0823 8.95431 30.0802 8.95237 30.0802C8.95043 30.0761 8.94655 30.074 8.9446 30.0699C8.94266 30.0678 8.94266 30.0658 8.94072 30.0658C8.93684 30.0616 8.9349 30.0596 8.93102 30.0554C8.92908 30.0534 8.92714 30.0513 8.9252 30.0492C8.92326 30.0472 8.92325 30.0472 8.92131 30.0451C8.92131 30.0451 8.92131 30.0451 8.91937 30.0451C8.91161 30.0389 8.90579 30.0348 8.89802 30.0286C8.89608 30.0286 8.89608 30.0265 8.89414 30.0265C8.88832 30.0224 8.88056 30.0203 8.87473 30.0162C8.87279 30.0162 8.87085 30.0141 8.86891 30.0141C8.86891 30.0141 8.86697 30.0141 8.86697 30.0121C8.85921 30.01 8.85338 30.0079 8.84562 30.0059C8.84368 30.0059 8.84174 30.0059 8.84174 30.0059C8.83398 30.0038 8.82621 30.0038 8.82039 30.0017C8.81845 30.0017 8.81845 30.0017 8.81651 30.0017C8.80875 30.0017 8.79904 30.0017 8.79128 30.0017C8.78934 30.0017 8.78934 30.0017 8.7874 30.0017C8.77963 30.0017 8.77187 30.0038 8.76411 30.0059H8.76217C8.7544 30.0079 8.74664 30.01 8.73888 30.0141C8.73693 30.0141 8.73499 30.0162 8.73305 30.0162C8.72529 30.0203 8.71753 30.0245 8.7117 30.0286L5.08622 32.4414C5.01635 32.4869 4.98529 32.5778 5.00664 32.6604C5.02993 32.743 5.10174 32.8009 5.18326 32.8009H6.68935L5.98483 34.8976C5.94989 34.9989 6.00035 35.1104 6.09545 35.1476C6.1168 35.1559 6.13621 35.16 6.15756 35.16C6.23325 35.16 6.30312 35.1104 6.33029 35.0299L7.1241 32.6728C7.14351 32.6129 7.13574 32.5468 7.10081 32.4951C7.06587 32.4435 7.01153 32.4125 6.95136 32.4125H5.82374L8.46716 30.6566L7.06587 34.8997C7.06393 34.9059 7.06199 34.9121 7.06199 34.9162C7.06199 34.9183 7.06199 34.9204 7.06005 34.9224C7.06005 34.9266 7.05811 34.9307 7.05811 34.9348C7.05811 34.9369 7.05811 34.939 7.05811 34.941C7.05811 34.9452 7.05811 34.9493 7.05811 34.9534C7.05811 34.9555 7.05811 34.9576 7.05811 34.9596C7.05811 34.9658 7.05811 34.9699 7.05811 34.9761C7.05811 34.9782 7.05811 34.9803 7.05811 34.9823C7.05811 34.9865 7.05811 34.9885 7.06005 34.9927C7.06005 34.9947 7.06005 34.9968 7.06199 34.9989C7.06199 35.003 7.06393 35.0051 7.06393 35.0092C7.06393 35.0113 7.06393 35.0133 7.06587 35.0154C7.06781 35.0195 7.06781 35.0257 7.06975 35.0299V35.0319C7.0717 35.0381 7.07364 35.0423 7.07558 35.0484C7.07558 35.0505 7.07752 35.0505 7.07752 35.0526C7.07946 35.0567 7.0814 35.0608 7.08334 35.0629C7.08334 35.065 7.08528 35.067 7.08528 35.067C7.08722 35.0712 7.08916 35.0732 7.0911 35.0774C7.09304 35.0794 7.09304 35.0794 7.09499 35.0815C7.09693 35.0856 7.10081 35.0898 7.10275 35.0918C7.10469 35.0939 7.10469 35.096 7.10663 35.096C7.10857 35.098 7.11245 35.1022 7.11439 35.1042C7.11633 35.1063 7.11828 35.1084 7.12022 35.1104C7.12216 35.1125 7.12216 35.1125 7.1241 35.1146C7.1241 35.1146 7.12604 35.1146 7.12604 35.1166C7.1338 35.1228 7.13962 35.1269 7.14739 35.1331C7.14933 35.1331 7.14933 35.1352 7.15127 35.1352C7.15709 35.1393 7.16486 35.1414 7.17068 35.1455C7.17262 35.1455 7.17456 35.1476 7.1765 35.1476C7.17844 35.1476 7.17844 35.1476 7.18038 35.1497C7.1862 35.1517 7.19397 35.1538 7.19979 35.1559C7.20173 35.1559 7.20173 35.1559 7.20367 35.1559C7.21144 35.1579 7.2192 35.1579 7.2289 35.16H7.23084C7.23473 35.16 7.23667 35.16 7.24055 35.16C7.24637 35.16 7.25025 35.16 7.25607 35.16C7.25607 35.16 7.25607 35.16 7.25802 35.16C7.26578 35.16 7.27548 35.1579 7.28325 35.1559H7.28519C7.29295 35.1538 7.30266 35.1517 7.31042 35.1476C7.31042 35.1476 7.31236 35.1476 7.31236 35.1455C7.32012 35.1414 7.32789 35.1373 7.33565 35.1331L10.9359 32.7761C11.0019 32.7265 11.0349 32.6377 11.0135 32.553Z" fill="#02A9F7"/>
</g>
<rect width="8" height="39" transform="translate(16)" fill="#B8854A"/>
<rect width="0.423913" height="39" transform="translate(19.7798)" fill="#434343"/>
<defs>
<filter id="filter0_d_974_1999" x="3.78799" y="29.2287" width="8.44403" height="7.58405" filterUnits="userSpaceOnUse" color-interpolation-filters="sRGB">
<feFlood flood-opacity="0" result="BackgroundImageFix"/>
<feColorMatrix in="SourceAlpha" type="matrix" values="0 0 0 0 0 0 0 0 0 0 0 0 0 0 0 0 0 0 127 0" result="hardAlpha"/>
<feOffset dy="0.440729"/>
<feGaussianBlur stdDeviation="0.606003"/>
<feComposite in2="hardAlpha" operator="out"/>
<feColorMatrix type="matrix" values="0 0 0 0 0 0 0 0 0 0 0 0 0 0 0 0 0 0 0.25 0"/>
<feBlend mode="normal" in2="BackgroundImageFix" result="effect1_dropShadow_974_1999"/>
<feBlend mode="normal" in="SourceGraphic" in2="effect1_dropShadow_974_1999" result="shape"/>
</filter>
</defs>
</svg>
