<svg width="43" height="659" viewBox="0 0 43 659" fill="none" xmlns="http://www.w3.org/2000/svg">
<path d="M0 0H43H0ZM43 659H0H43ZM1.72 659C0.295105 659 -0.86 657.845 -0.86 656.42V2.58C-0.86 1.15511 0.295105 0 1.72 0H1.72C1.24504 0 0.86 0.77007 0.86 1.72V657.28C0.86 658.23 1.24504 659 1.72 659H1.72ZM41.28 0C42.7049 0 43.86 1.15511 43.86 2.58V656.42C43.86 657.845 42.7049 659 41.28 659C41.755 659 42.14 658.23 42.14 657.28V1.72C42.14 0.77007 41.755 0 41.28 0Z" fill="url(#paint0_linear_974_1843)" mask="url(#path-1-inside-1_974_1843)"/>
<g clip-path="url(#clip0_974_1843)">
<rect x="2" width="39" height="657" rx="1.72" fill="url(#paint1_linear_974_1843)" fill-opacity="0.2"/>
<rect opacity="0.4" x="5.59033" y="7.73999" width="32.25" height="1.72" fill="black"/>
<rect opacity="0.5" x="5.59033" y="12.0399" width="32.25" height="1.72" fill="black"/>
<rect opacity="0.5" x="5.59033" y="16.3398" width="32.25" height="1.72" fill="black"/>
<rect opacity="0.6" x="5.59033" y="20.6399" width="32.25" height="1.72" fill="black"/>
<rect opacity="0.6" x="5.59033" y="24.9399" width="32.25" height="1.72" fill="black"/>
<rect opacity="0.6" x="5.59033" y="29.24" width="32.25" height="1.72" fill="black"/>
<rect opacity="0.7" x="5.59033" y="33.5399" width="32.25" height="1.72" fill="black"/>
<rect opacity="0.7" x="5.59033" y="37.8398" width="32.25" height="1.72" fill="black"/>
<rect opacity="0.7" x="5.59033" y="42.1399" width="32.25" height="1.72" fill="black"/>
<rect opacity="0.7" x="5.59033" y="46.4399" width="32.25" height="1.72" fill="black"/>
<rect opacity="0.7" x="5.59033" y="50.74" width="32.25" height="1.72" fill="black"/>
<rect opacity="0.8" x="5.59033" y="55.0399" width="32.25" height="1.72" fill="black"/>
<rect opacity="0.9" x="5.59033" y="59.3398" width="32.25" height="1.72" fill="black"/>
<rect x="5.59033" y="63.6399" width="32.25" height="1.72" fill="black"/>
<rect x="5.59033" y="67.9399" width="32.25" height="1.72" fill="black"/>
<rect x="5.59033" y="72.24" width="32.25" height="1.72" fill="black"/>
<rect x="5.59033" y="76.5399" width="32.25" height="1.72" fill="black"/>
<rect x="5.59033" y="80.8398" width="32.25" height="1.72" fill="black"/>
<rect x="5.59033" y="85.1399" width="32.25" height="1.72" fill="black"/>
<rect x="5.59033" y="89.4399" width="32.25" height="1.72" fill="black"/>
<rect x="5.59033" y="93.7399" width="32.25" height="1.72" fill="black"/>
<rect x="5.59033" y="98.0399" width="32.25" height="1.72" fill="black"/>
<rect x="5.59033" y="102.34" width="32.25" height="1.72" fill="black"/>
<rect x="5.59033" y="106.64" width="32.25" height="1.72" fill="black"/>
<rect x="5.59033" y="110.94" width="32.25" height="1.72" fill="black"/>
<rect x="5.59033" y="115.24" width="32.25" height="1.72" fill="black"/>
<rect x="5.59033" y="119.54" width="32.25" height="1.72" fill="black"/>
<rect x="5.59033" y="123.84" width="32.25" height="1.72" fill="black"/>
<rect x="5.59033" y="128.14" width="32.25" height="1.72" fill="black"/>
<rect x="5.59033" y="132.44" width="32.25" height="1.72" fill="black"/>
<rect x="5.59033" y="136.74" width="32.25" height="1.72" fill="black"/>
<rect x="5.59033" y="141.04" width="32.25" height="1.72" fill="black"/>
<rect x="5.59033" y="145.34" width="32.25" height="1.72" fill="black"/>
<rect x="5.59033" y="149.64" width="32.25" height="1.72" fill="black"/>
<rect x="5.59033" y="153.94" width="32.25" height="1.72" fill="black"/>
<rect x="5.59033" y="158.24" width="32.25" height="1.72" fill="black"/>
<rect x="5.59033" y="162.54" width="32.25" height="1.72" fill="black"/>
<rect x="5.59033" y="166.84" width="32.25" height="1.72" fill="black"/>
<rect x="5.59033" y="171.14" width="32.25" height="1.72" fill="black"/>
<rect x="5.59033" y="175.44" width="32.25" height="1.72" fill="black"/>
<rect x="5.59033" y="179.74" width="32.25" height="1.72" fill="black"/>
<rect x="5.59033" y="184.04" width="32.25" height="1.72" fill="black"/>
<rect x="5.59033" y="188.34" width="32.25" height="1.72" fill="black"/>
<rect x="5.59033" y="192.64" width="32.25" height="1.72" fill="black"/>
<rect x="5.59033" y="196.94" width="32.25" height="1.72" fill="black"/>
<rect x="5.59033" y="201.24" width="32.25" height="1.72" fill="black"/>
<rect x="5.59033" y="205.54" width="32.25" height="1.72" fill="black"/>
<rect x="5.59033" y="209.84" width="32.25" height="1.72" fill="black"/>
<rect x="5.59033" y="214.14" width="32.25" height="1.72" fill="black"/>
<rect x="5.59033" y="218.44" width="32.25" height="1.72" fill="black"/>
<rect x="5.59033" y="222.74" width="32.25" height="1.72" fill="black"/>
<rect x="5.59033" y="227.04" width="32.25" height="1.72" fill="black"/>
<rect x="5.59033" y="231.34" width="32.25" height="1.72" fill="black"/>
<rect x="5.59033" y="235.64" width="32.25" height="1.72" fill="black"/>
<rect x="5.59033" y="239.94" width="32.25" height="1.72" fill="black"/>
<rect x="5.59033" y="244.24" width="32.25" height="1.72" fill="black"/>
<rect x="5.59033" y="248.54" width="32.25" height="1.72" fill="black"/>
<rect x="5.59033" y="252.84" width="32.25" height="1.72" fill="black"/>
<rect x="5.59033" y="257.14" width="32.25" height="1.72" fill="black"/>
<rect x="5.59033" y="261.44" width="32.25" height="1.72" fill="black"/>
<rect x="5.59033" y="265.74" width="32.25" height="1.72" fill="black"/>
<rect x="5.59033" y="270.04" width="32.25" height="1.72" fill="black"/>
<rect x="5.59033" y="274.34" width="32.25" height="1.72" fill="black"/>
<rect x="5.59033" y="278.64" width="32.25" height="1.72" fill="black"/>
<rect x="5.59033" y="282.94" width="32.25" height="1.72" fill="black"/>
<rect x="5.59033" y="287.24" width="32.25" height="1.72" fill="black"/>
<rect x="5.59033" y="291.54" width="32.25" height="1.72" fill="black"/>
<rect x="5.59033" y="295.84" width="32.25" height="1.72" fill="black"/>
<rect x="5.59033" y="300.14" width="32.25" height="1.72" fill="black"/>
<rect x="5.59033" y="304.44" width="32.25" height="1.72" fill="black"/>
<rect x="5.59033" y="308.74" width="32.25" height="1.72" fill="black"/>
<rect x="5.59033" y="313.04" width="32.25" height="1.72" fill="black"/>
<rect x="5.59033" y="317.34" width="32.25" height="1.72" fill="black"/>
<rect x="5.59033" y="321.64" width="32.25" height="1.72" fill="black"/>
<rect x="5.59033" y="325.94" width="32.25" height="1.72" fill="black"/>
<rect x="5.59033" y="330.24" width="32.25" height="1.72" fill="black"/>
<rect x="5.59033" y="334.54" width="32.25" height="1.72" fill="black"/>
<rect x="5.59033" y="338.84" width="32.25" height="1.72" fill="black"/>
<rect x="5.59033" y="343.14" width="32.25" height="1.72" fill="black"/>
<rect x="5.59033" y="347.44" width="32.25" height="1.72" fill="black"/>
<rect x="5.59033" y="351.74" width="32.25" height="1.72" fill="black"/>
<rect x="5.59033" y="356.04" width="32.25" height="1.72" fill="black"/>
<rect x="5.59033" y="360.34" width="32.25" height="1.72" fill="black"/>
<rect x="5.59033" y="364.64" width="32.25" height="1.72" fill="black"/>
<rect x="5.59033" y="368.94" width="32.25" height="1.72" fill="black"/>
<rect x="5.59033" y="373.24" width="32.25" height="1.72" fill="black"/>
<rect x="5.59033" y="377.54" width="32.25" height="1.72" fill="black"/>
<rect x="5.59033" y="381.84" width="32.25" height="1.72" fill="black"/>
<rect x="5.59033" y="386.14" width="32.25" height="1.72" fill="black"/>
<rect x="5.59033" y="390.44" width="32.25" height="1.72" fill="black"/>
<rect x="5.59033" y="394.74" width="32.25" height="1.72" fill="black"/>
<rect x="5.59033" y="399.04" width="32.25" height="1.72" fill="black"/>
<rect x="5.59033" y="403.34" width="32.25" height="1.72" fill="black"/>
<rect x="5.59033" y="407.64" width="32.25" height="1.72" fill="black"/>
<rect x="5.59033" y="411.94" width="32.25" height="1.72" fill="black"/>
<rect x="5.59033" y="416.24" width="32.25" height="1.72" fill="black"/>
<rect x="5.59033" y="420.54" width="32.25" height="1.72" fill="black"/>
<rect x="5.59033" y="424.84" width="32.25" height="1.72" fill="black"/>
<rect x="5.59033" y="429.14" width="32.25" height="1.72" fill="black"/>
<rect x="5.59033" y="433.44" width="32.25" height="1.72" fill="black"/>
<rect x="5.59033" y="437.74" width="32.25" height="1.72" fill="black"/>
<rect x="5.59033" y="442.04" width="32.25" height="1.72" fill="black"/>
<rect x="5.59033" y="446.34" width="32.25" height="1.72" fill="black"/>
<rect x="5.59033" y="450.64" width="32.25" height="1.72" fill="black"/>
<rect x="5.59033" y="454.94" width="32.25" height="1.72" fill="black"/>
<rect x="5.59033" y="459.24" width="32.25" height="1.72" fill="black"/>
<rect x="5.59033" y="463.54" width="32.25" height="1.72" fill="black"/>
<rect x="5.59033" y="467.84" width="32.25" height="1.72" fill="black"/>
<rect x="5.59033" y="472.14" width="32.25" height="1.72" fill="black"/>
<rect x="5.59033" y="476.44" width="32.25" height="1.72" fill="black"/>
<rect x="5.59033" y="480.74" width="32.25" height="1.72" fill="black"/>
<rect x="5.59033" y="485.04" width="32.25" height="1.72" fill="black"/>
<rect x="5.59033" y="489.34" width="32.25" height="1.72" fill="black"/>
<rect x="5.59033" y="493.64" width="32.25" height="1.72" fill="black"/>
<rect x="5.59033" y="497.94" width="32.25" height="1.72" fill="black"/>
<rect x="5.59033" y="502.24" width="32.25" height="1.72" fill="black"/>
<rect x="5.59033" y="506.54" width="32.25" height="1.72" fill="black"/>
<rect x="5.59033" y="510.84" width="32.25" height="1.72" fill="black"/>
<rect x="5.59033" y="515.14" width="32.25" height="1.72" fill="black"/>
<rect x="5.59033" y="519.44" width="32.25" height="1.72" fill="black"/>
<rect x="5.59033" y="523.74" width="32.25" height="1.72" fill="black"/>
<rect x="5.59033" y="528.04" width="32.25" height="1.72" fill="black"/>
<rect x="5.59033" y="532.34" width="32.25" height="1.72" fill="black"/>
<rect x="5.59033" y="536.64" width="32.25" height="1.72" fill="black"/>
<rect x="5.59033" y="540.94" width="32.25" height="1.72" fill="black"/>
<rect x="5.59033" y="545.24" width="32.25" height="1.72" fill="black"/>
<rect x="5.59033" y="549.54" width="32.25" height="1.72" fill="black"/>
<rect x="5.59033" y="553.84" width="32.25" height="1.72" fill="black"/>
<rect x="5.59033" y="558.14" width="32.25" height="1.72" fill="black"/>
<rect x="5.59033" y="562.44" width="32.25" height="1.72" fill="black"/>
<rect x="5.59033" y="566.74" width="32.25" height="1.72" fill="black"/>
<rect x="5.59033" y="571.04" width="32.25" height="1.72" fill="black"/>
<rect x="5.59033" y="575.34" width="32.25" height="1.72" fill="black"/>
<rect x="5.59033" y="579.64" width="32.25" height="1.72" fill="black"/>
<rect x="5.59033" y="583.94" width="32.25" height="1.72" fill="black"/>
<rect x="5.59033" y="588.24" width="32.25" height="1.72" fill="black"/>
<rect x="5.59033" y="592.54" width="32.25" height="1.72" fill="black"/>
<rect x="5.59033" y="596.84" width="32.25" height="1.72" fill="black"/>
<rect x="5.59033" y="601.14" width="32.25" height="1.72" fill="black"/>
<rect x="5.59033" y="605.44" width="32.25" height="1.72" fill="black"/>
<rect opacity="0.9" x="5.59033" y="609.74" width="32.25" height="1.72" fill="black"/>
<rect opacity="0.9" x="5.59033" y="614.04" width="32.25" height="1.72" fill="black"/>
<rect opacity="0.6" x="5.59033" y="627" width="32.25" height="1.72" fill="black"/>
<rect opacity="0.4" x="5.59033" y="639.96" width="32.25" height="1.72" fill="black"/>
<rect opacity="0.3" x="5.59033" y="652.92" width="32.25" height="1.72" fill="black"/>
<rect opacity="0.7" x="5.59033" y="618.34" width="32.25" height="1.72" fill="black"/>
<rect opacity="0.6" x="5.59033" y="631.3" width="32.25" height="1.72" fill="black"/>
<rect opacity="0.3" x="5.59033" y="644.26" width="32.25" height="1.72" fill="black"/>
<rect opacity="0.7" x="5.59033" y="622.64" width="32.25" height="1.72" fill="black"/>
<rect opacity="0.4" x="5.59033" y="635.6" width="32.25" height="1.72" fill="black"/>
<rect opacity="0.3" x="5.59033" y="648.56" width="32.25" height="1.72" fill="black"/>
</g>
<rect x="2.645" y="0.645" width="37.71" height="655.71" rx="1.075" stroke="url(#paint2_linear_974_1843)" stroke-width="1.29"/>
<defs>
<linearGradient id="paint0_linear_974_1843" x1="21.5" y1="2.20812" x2="21.5" y2="657.283" gradientUnits="userSpaceOnUse">
<stop stop-color="#02A9F7" stop-opacity="0"/>
<stop offset="0.0572022" stop-color="#04A5F4"/>
<stop offset="0.926416" stop-color="#1E6AC3"/>
<stop offset="1" stop-color="#2262BC" stop-opacity="0"/>
</linearGradient>
<linearGradient id="paint1_linear_974_1843" x1="21.5" y1="2.20141" x2="21.5" y2="664.154" gradientUnits="userSpaceOnUse">
<stop stop-color="#02A9F7" stop-opacity="0"/>
<stop offset="0.0572022" stop-color="#04A5F4"/>
<stop offset="0.926416" stop-color="#1E6AC3"/>
<stop offset="1" stop-color="#2262BC" stop-opacity="0"/>
</linearGradient>
<linearGradient id="paint2_linear_974_1843" x1="21.5" y1="2.20141" x2="21.5" y2="657" gradientUnits="userSpaceOnUse">
<stop stop-color="#000C24"/>
<stop offset="0.0572022" stop-color="#006CA0"/>
<stop offset="0.926416" stop-color="#006CA0"/>
<stop offset="1" stop-color="#000D25"/>
</linearGradient>
<clipPath id="clip0_974_1843">
<rect x="2" width="39" height="657" rx="1.72" fill="white"/>
</clipPath>
</defs>
</svg>
