<svg width="100" height="1103" viewBox="0 0 100 1103" fill="none" xmlns="http://www.w3.org/2000/svg">
<path d="M0 0.186523H100H0ZM100 1099.19H0H100ZM4 1099.19C0.686292 1099.19 -2 1096.5 -2 1093.19V6.18652C-2 2.87281 0.686292 0.186523 4 0.186523C2.89543 0.186523 2 1.97738 2 4.18652V1095.19C2 1097.4 2.89543 1099.19 4 1099.19ZM96 0.186523C99.3137 0.186523 102 2.87281 102 6.18652V1093.19C102 1096.5 99.3137 1099.19 96 1099.19C97.1046 1099.19 98 1097.4 98 1095.19V4.18652C98 1.97738 97.1046 0.186523 96 0.186523Z" fill="url(#paint0_linear_992_816)" mask="url(#path-1-inside-1_992_816)"/>
<g clip-path="url(#clip0_992_816)">
<rect x="4" y="0.186523" width="92" height="1102" rx="4" fill="url(#paint1_linear_992_816)" fill-opacity="0.2"/>
<rect opacity="0.4" x="13" y="18.1865" width="75" height="4" fill="black"/>
<rect opacity="0.5" x="13" y="28.1865" width="75" height="4" fill="black"/>
<rect opacity="0.5" x="13" y="38.1865" width="75" height="4" fill="black"/>
<rect opacity="0.6" x="13" y="48.1865" width="75" height="4" fill="black"/>
<rect opacity="0.6" x="13" y="58.1865" width="75" height="4" fill="black"/>
<rect opacity="0.6" x="13" y="68.1865" width="75" height="4" fill="black"/>
<rect opacity="0.7" x="13" y="78.1865" width="75" height="4" fill="black"/>
<rect opacity="0.7" x="13" y="88.1865" width="75" height="4" fill="black"/>
<rect opacity="0.7" x="13" y="98.1865" width="75" height="4" fill="black"/>
<rect opacity="0.7" x="13" y="108.187" width="75" height="4" fill="black"/>
<rect opacity="0.7" x="13" y="118.187" width="75" height="4" fill="black"/>
<rect opacity="0.8" x="13" y="128.187" width="75" height="4" fill="black"/>
<rect opacity="0.9" x="13" y="138.187" width="75" height="4" fill="black"/>
<rect x="13" y="148.187" width="75" height="4" fill="black"/>
<rect x="13" y="158.187" width="75" height="4" fill="black"/>
<rect x="13" y="168.187" width="75" height="4" fill="black"/>
<rect x="13" y="178.187" width="75" height="4" fill="black"/>
<rect x="13" y="188.187" width="75" height="4" fill="black"/>
<rect x="13" y="198.187" width="75" height="4" fill="black"/>
<rect x="13" y="208.187" width="75" height="4" fill="black"/>
<rect x="13" y="218.187" width="75" height="4" fill="black"/>
<rect x="13" y="228.187" width="75" height="4" fill="black"/>
<rect x="13" y="238.187" width="75" height="4" fill="black"/>
<rect x="13" y="248.187" width="75" height="4" fill="black"/>
<rect x="13" y="258.187" width="75" height="4" fill="black"/>
<rect x="13" y="268.187" width="75" height="4" fill="black"/>
<rect x="13" y="278.187" width="75" height="4" fill="black"/>
<rect x="13" y="288.187" width="75" height="4" fill="black"/>
<rect x="13" y="298.187" width="75" height="4" fill="black"/>
<rect x="13" y="308.187" width="75" height="4" fill="black"/>
<rect x="13" y="318.187" width="75" height="4" fill="black"/>
<rect x="13" y="328.187" width="75" height="4" fill="black"/>
<rect x="13" y="338.187" width="75" height="4" fill="black"/>
<rect x="13" y="348.187" width="75" height="4" fill="black"/>
<rect x="13" y="358.187" width="75" height="4" fill="black"/>
<rect x="13" y="368.187" width="75" height="4" fill="black"/>
<rect x="13" y="378.187" width="75" height="4" fill="black"/>
<rect x="13" y="388.187" width="75" height="4" fill="black"/>
<rect x="13" y="398.187" width="75" height="4" fill="black"/>
<rect x="13" y="408.187" width="75" height="4" fill="black"/>
<rect x="13" y="418.187" width="75" height="4" fill="black"/>
<rect x="13" y="428.187" width="75" height="4" fill="black"/>
<rect x="13" y="438.187" width="75" height="4" fill="black"/>
<rect x="13" y="448.187" width="75" height="4" fill="black"/>
<rect x="13" y="458.187" width="75" height="4" fill="black"/>
<rect x="13" y="468.187" width="75" height="4" fill="black"/>
<rect x="13" y="478.187" width="75" height="4" fill="black"/>
<rect x="13" y="488.187" width="75" height="4" fill="black"/>
<rect x="13" y="498.187" width="75" height="4" fill="black"/>
<rect x="13" y="508.187" width="75" height="4" fill="black"/>
<rect x="13" y="518.187" width="75" height="4" fill="black"/>
<rect x="13" y="528.187" width="75" height="4" fill="black"/>
<rect x="13" y="538.187" width="75" height="4" fill="black"/>
<rect x="13" y="548.187" width="75" height="4" fill="black"/>
<rect x="13" y="558.187" width="75" height="4" fill="black"/>
<rect x="13" y="568.187" width="75" height="4" fill="black"/>
<rect x="13" y="578.187" width="75" height="4" fill="black"/>
<rect x="13" y="588.187" width="75" height="4" fill="black"/>
<rect x="13" y="598.187" width="75" height="4" fill="black"/>
<rect x="13" y="608.187" width="75" height="4" fill="black"/>
<rect x="13" y="618.187" width="75" height="4" fill="black"/>
<rect x="13" y="628.187" width="75" height="4" fill="black"/>
<rect x="13" y="638.187" width="75" height="4" fill="black"/>
<rect x="13" y="648.187" width="75" height="4" fill="black"/>
<rect x="13" y="658.187" width="75" height="4" fill="black"/>
<rect x="13" y="668.187" width="75" height="4" fill="black"/>
<rect x="13" y="678.187" width="75" height="4" fill="black"/>
<rect x="13" y="688.187" width="75" height="4" fill="black"/>
<rect x="13" y="698.187" width="75" height="4" fill="black"/>
<rect x="13" y="708.187" width="75" height="4" fill="black"/>
<rect x="13" y="718.187" width="75" height="4" fill="black"/>
<rect x="13" y="728.187" width="75" height="4" fill="black"/>
<rect x="13" y="738.187" width="75" height="4" fill="black"/>
<rect x="13" y="748.187" width="75" height="4" fill="black"/>
<rect x="13" y="758.187" width="75" height="4" fill="black"/>
<rect x="13" y="768.187" width="75" height="4" fill="black"/>
<rect x="13" y="778.187" width="75" height="4" fill="black"/>
<rect x="13" y="788.187" width="75" height="4" fill="black"/>
<rect x="13" y="798.187" width="75" height="4" fill="black"/>
<rect x="13" y="808.187" width="75" height="4" fill="black"/>
<rect x="13" y="818.187" width="75" height="4" fill="black"/>
<rect x="13" y="828.187" width="75" height="4" fill="black"/>
<rect x="13" y="838.187" width="75" height="4" fill="black"/>
<rect x="13" y="848.187" width="75" height="4" fill="black"/>
<rect x="13" y="858.187" width="75" height="4" fill="black"/>
<rect x="13" y="868.187" width="75" height="4" fill="black"/>
<rect x="13" y="878.187" width="75" height="4" fill="black"/>
<rect x="13" y="888.187" width="75" height="4" fill="black"/>
<rect x="13" y="898.187" width="75" height="4" fill="black"/>
<rect x="13" y="908.187" width="75" height="4" fill="black"/>
<rect x="13" y="918.187" width="75" height="4" fill="black"/>
<rect x="13" y="928.187" width="75" height="4" fill="black"/>
<rect x="13" y="938.187" width="75" height="4" fill="black"/>
<rect x="13" y="948.187" width="75" height="4" fill="black"/>
<rect x="13" y="958.187" width="75" height="4" fill="black"/>
<rect x="13" y="968.187" width="75" height="4" fill="black"/>
<rect x="13" y="978.187" width="75" height="4" fill="black"/>
<rect x="13" y="988.187" width="75" height="4" fill="black"/>
<rect x="13" y="998.187" width="75" height="4" fill="black"/>
<rect x="13" y="1008.19" width="75" height="4" fill="black"/>
<rect x="13" y="1018.19" width="75" height="4" fill="black"/>
<rect x="13" y="1028.19" width="75" height="4" fill="black"/>
<rect opacity="0.8" x="13" y="1038.19" width="75" height="4" fill="black"/>
<rect opacity="0.8" x="13" y="1048.19" width="75" height="4" fill="black"/>
<rect opacity="0.6" x="13" y="1058.19" width="75" height="4" fill="black"/>
<rect opacity="0.6" x="13" y="1068.19" width="75" height="4" fill="black"/>
<rect opacity="0.4" x="13" y="1078.19" width="75" height="4" fill="black"/>
<rect opacity="0.4" x="13" y="1088.19" width="75" height="4" fill="black"/>
<rect opacity="0.3" x="13" y="1098.19" width="75" height="4" fill="black"/>
</g>
<rect x="5.5" y="1.68652" width="89" height="1099" rx="2.5" stroke="url(#paint2_linear_992_816)" stroke-width="3"/>
<defs>
<linearGradient id="paint0_linear_992_816" x1="50" y1="3.86895" x2="50" y2="1096.32" gradientUnits="userSpaceOnUse">
<stop stop-color="#02A9F7" stop-opacity="0"/>
<stop offset="0.0572022" stop-color="#04A5F4"/>
<stop offset="0.926416" stop-color="#1E6AC3"/>
<stop offset="1" stop-color="#2262BC" stop-opacity="0"/>
</linearGradient>
<linearGradient id="paint1_linear_992_816" x1="50" y1="3.879" x2="50" y2="1114.19" gradientUnits="userSpaceOnUse">
<stop stop-color="#02A9F7" stop-opacity="0"/>
<stop offset="0.0572022" stop-color="#04A5F4"/>
<stop offset="0.926416" stop-color="#1E6AC3"/>
<stop offset="1" stop-color="#2262BC" stop-opacity="0"/>
</linearGradient>
<linearGradient id="paint2_linear_992_816" x1="50" y1="3.879" x2="50" y2="1102.19" gradientUnits="userSpaceOnUse">
<stop stop-color="#000C24"/>
<stop offset="0.0572022" stop-color="#006CA0"/>
<stop offset="0.926416" stop-color="#006CA0"/>
<stop offset="1" stop-color="#000D25"/>
</linearGradient>
<clipPath id="clip0_992_816">
<rect x="4" y="0.186523" width="92" height="1102" rx="4" fill="white"/>
</clipPath>
</defs>
</svg>
