<svg width="80" height="32" viewBox="0 0 80 32" fill="none" xmlns="http://www.w3.org/2000/svg">
<path fillRule="evenodd" clipRule="evenodd" d="M1.16477 5.31698C1.07413 5.42436 1 9.3945 1 14.1397V22.7669H2.63006H4.26012L4.19876 14.0249L4.13741 5.28284L2.73348 5.20244C1.96121 5.15811 1.25541 5.2096 1.16477 5.31698ZM49.7386 5.70356C49.255 5.84811 48.5492 6.15649 48.1699 6.38888C47.5601 6.76252 47.4801 6.95498 47.4801 8.05194C47.4801 9.60403 47.7665 9.75987 49.5376 9.17092C52.6782 8.1271 54.517 9.02306 53.7478 11.223C53.593 11.6661 53.4526 12.0364 53.4363 12.046C53.4198 12.0557 52.5325 12.1622 51.4646 12.2831C50.2318 12.4227 49.4483 12.6424 49.3184 12.8853C49.0702 13.3498 49.0493 14.8047 49.2847 15.2229C49.3786 15.3898 50.2564 15.5963 51.2355 15.6816C53.8163 15.9071 54.4503 16.4911 54.1094 18.3296C53.8412 19.7767 52.1368 20.1204 49.4435 19.2701C48.6277 19.0127 47.9126 18.8588 47.8541 18.9282C47.7955 18.9973 47.7137 19.6727 47.6721 20.4288L47.5963 21.8033L48.7583 22.4643C50.4149 23.4066 53.4784 23.4027 55.0715 22.4564C56.6739 21.5045 57.0999 20.6625 57.2029 18.2426C57.3032 15.8884 56.8803 14.5015 55.9002 13.9723L55.279 13.6372L55.768 13.1771C56.5149 12.4742 56.7762 11.657 56.7762 10.0225C56.7762 8.28653 56.1731 6.99683 54.9732 6.16641C54.0889 5.5546 51.1158 5.29165 49.7386 5.70356ZM61.5792 5.73963C61.0893 5.90291 60.2787 6.49847 59.7781 7.06264L58.8678 8.08856L58.8687 14.1199C58.8696 21.015 58.9605 21.4156 60.776 22.5315C62.1688 23.3876 65.2939 23.4085 66.6551 22.5709C68.1633 21.6427 68.6288 20.3484 68.6277 17.085C68.6267 13.9139 68.2958 12.9915 66.8549 12.1443C66.1568 11.7338 65.4761 11.6187 63.8063 11.6294L61.6566 11.6429V10.9028C61.6566 9.57236 62.3494 8.91761 63.8972 8.78517C64.6564 8.71991 65.6732 8.79618 66.157 8.9545C67.4531 9.37853 67.699 9.16073 67.699 7.58689C67.699 6.36575 67.6363 6.20358 67.0599 5.93484C66.1531 5.51192 62.6373 5.38664 61.5792 5.73963ZM73.129 5.66529C72.0639 5.99184 71.0628 6.92965 70.6326 8.00348C70.3237 8.7747 70.2554 9.94077 70.2554 14.4387C70.2554 19.676 70.2798 19.9758 70.7785 20.8676C71.5831 22.306 73.2139 23.134 75.2425 23.134C76.5816 23.134 77.1196 23.0004 77.9235 22.4688C79.8473 21.1959 79.8905 21.0273 79.9712 14.4762C80.0393 8.96469 80.0197 8.65851 79.5412 7.74108C78.8361 6.38971 77.5151 5.66969 75.5121 5.54496C74.6022 5.48824 73.5297 5.54249 73.129 5.66529ZM29.167 6.57694C28.9648 6.81648 28.8881 8.82151 28.8881 13.8691V20.8308L29.566 21.73C30.2274 22.6075 30.2967 22.6315 32.4252 22.7229C34.9916 22.833 35.1792 22.6915 34.9965 20.7839L34.8726 19.4893L33.6814 19.4072L32.4903 19.3252L32.4248 16.243L32.3592 13.1609L33.4706 13.0766L34.5819 12.9924V11.478V9.96362L33.478 9.87965L32.3741 9.79567V8.18823C32.3741 6.97646 32.2837 6.53977 32.0064 6.41366C31.3673 6.12318 29.4575 6.23276 29.167 6.57694ZM76.246 9.1533C76.7452 9.56741 76.7626 9.73895 76.7626 14.2273C76.7626 19.6396 76.7027 19.8192 74.939 19.6831C73.3726 19.5623 73.2522 19.1415 73.3296 14.053C73.3849 10.4017 73.4479 9.80998 73.8356 9.30336C74.3654 8.6106 75.5067 8.53957 76.246 9.1533ZM9.08406 9.40661C8.48144 9.6032 7.6448 10.0016 7.22485 10.2921L6.46142 10.8202L6.39867 16.8061L6.33615 22.7923L7.90927 22.7108L9.48263 22.6293L9.54607 17.908C9.59069 14.594 9.69458 13.1036 9.89468 12.9078C10.3978 12.4153 11.7743 12.2729 12.3876 12.6504C12.9663 13.0061 12.9691 13.0265 13.0848 17.8185L13.201 22.6293H14.8278H16.4546L16.5267 18.9122C16.5664 16.8678 16.5295 14.3933 16.4447 13.4134C16.3092 11.8467 16.1881 11.5105 15.443 10.6283C14.1497 9.0974 11.5587 8.59959 9.08406 9.40661ZM20.4684 9.31217C19.9864 9.47379 19.2899 10.0231 18.8997 10.5498C18.279 11.3874 18.1977 11.6961 18.1977 13.2159C18.1977 15.898 18.8986 16.6847 21.8208 17.2813C24.093 17.745 24.4725 17.9537 24.4725 18.7382C24.4725 19.1044 24.307 19.4791 24.1048 19.5711C23.4594 19.8646 21.1429 19.7443 19.9028 19.353C18.4275 18.8877 18.1977 19.0945 18.1977 20.8869V22.2008L19.534 22.6645C21.5261 23.3556 24.5538 23.2917 25.8039 22.5326C27.0837 21.7553 27.4937 20.7732 27.4937 18.4854C27.4937 16.7844 27.4398 16.5905 26.7335 15.7538C26.0942 14.9963 25.697 14.8014 24.2352 14.5271C21.4399 14.0031 21.194 13.9244 21.0611 13.5136C20.9913 13.2988 21.0738 12.9241 21.244 12.6812C21.5015 12.3137 21.8477 12.2712 23.3035 12.429C24.2659 12.5331 25.4195 12.6408 25.8669 12.6677L26.6803 12.717L26.7495 11.3032C26.8172 9.92673 26.7986 9.8802 26.0523 9.55722C25.0123 9.10704 21.5359 8.9545 20.4684 9.31217ZM38.2352 9.38293C37.5603 9.58531 36.9394 9.83201 36.8557 9.93141C36.6122 10.22 36.7911 12.6856 37.0704 12.8899C37.2099 12.9924 37.8555 12.8888 38.5046 12.6606C39.9743 12.1435 42.2228 12.0945 42.7052 12.5689C42.9028 12.763 43.0645 13.2168 43.0645 13.5766C43.0645 14.197 42.9874 14.2314 41.5962 14.2314C39.5862 14.2314 37.8007 14.906 36.8601 16.0203C36.1518 16.8595 36.0927 17.0644 36.096 18.6781C36.1004 20.9434 36.423 21.6562 37.8139 22.4729C38.7714 23.0351 39.2931 23.142 41.0675 23.1389C42.926 23.1359 43.349 23.0387 44.5751 22.3316L45.9695 21.5279L46.0332 16.7772C46.1076 11.215 45.9984 10.7756 44.3007 9.80172C42.956 9.0305 40.0747 8.8317 38.2352 9.38293ZM64.5639 15.0574C65.2218 15.0574 65.6074 15.9068 65.6039 17.3485C65.6018 18.133 65.5161 18.9317 65.4131 19.1236C65.1435 19.627 63.8191 20.0166 63.0212 19.8274C62.0435 19.5959 61.6566 18.7773 61.6566 16.9396V15.3652L62.6443 15.1037C63.1874 14.9599 63.7712 14.8906 63.9415 14.9498C64.1117 15.009 64.3919 15.0574 64.5639 15.0574ZM43.0645 18.0666C43.0645 19.081 42.5788 19.6663 41.5465 19.8957C39.4544 20.3607 38.1985 19.1704 39.3461 17.8108C39.7224 17.365 40.1207 17.2601 41.4377 17.2601H43.0645V18.0666Z" fill="black"/>
</svg>
