    <svg
      className="lg:w-[32px] sm:w-[26px] w-[22px] h-auto"
      width="32"
      height="32"
      viewBox="0 0 32 32"
      fill="none"
      xmlns="http://www.w3.org/2000/svg"
    >
      <path
        opacity="0.5"
        d="M18.3513 15.9637L31.6153 2.73521C31.8774 2.42995 32.0144 2.03728 31.9988 1.63567C31.9833 1.23407 31.8163 0.853109 31.5314 0.56892C31.2464 0.284731 30.8644 0.118245 30.4618 0.102733C30.0591 0.0872204 29.6654 0.223825 29.3593 0.485246L16.0953 13.7138L2.83127 0.469288C2.52998 0.168808 2.12135 -5.00378e-09 1.69527 -3.99875e-09C1.26919 -2.99372e-09 0.860555 0.168808 0.559269 0.469288C0.257984 0.769768 0.0887228 1.17731 0.0887228 1.60225C0.0887228 2.02719 0.257984 2.43473 0.559269 2.73521L13.8393 15.9637L0.55927 29.1923C0.391779 29.3353 0.255746 29.5113 0.159709 29.7093C0.0636718 29.9073 0.00970357 30.1229 0.00119238 30.3427C-0.00731881 30.5624 0.0298099 30.7816 0.110249 30.9864C0.190689 31.1911 0.312702 31.3771 0.468629 31.5326C0.624557 31.6881 0.811033 31.8098 1.01635 31.89C1.22167 31.9703 1.4414 32.0073 1.66176 31.9988C1.88211 31.9903 2.09832 31.9365 2.29682 31.8407C2.49532 31.7449 2.67183 31.6093 2.81527 31.4422L16.0953 18.2137L29.3593 31.4422C29.6654 31.7036 30.0591 31.8402 30.4618 31.8247C30.8644 31.8092 31.2464 31.6427 31.5314 31.3586C31.8163 31.0744 31.9833 30.6934 31.9988 30.2918C32.0144 29.8902 31.8774 29.4975 31.6153 29.1923L18.3513 15.9637Z"
        fill="#FF0000"
      />
    </svg>