<svg width="32" height="33" viewBox="0 0 32 33" fill="none" xmlns="http://www.w3.org/2000/svg">
<path opacity="0.5" d="M18.3513 16.4637L31.6153 3.23521C31.8774 2.92995 32.0144 2.53728 31.9988 2.13567C31.9833 1.73407 31.8163 1.35311 31.5314 1.06892C31.2464 0.784731 30.8644 0.618245 30.4618 0.602733C30.0591 0.58722 29.6654 0.723825 29.3593 0.985246L16.0953 14.2138L2.83127 0.969288C2.52998 0.668808 2.12135 0.5 1.69527 0.5C1.26919 0.5 0.860555 0.668808 0.559269 0.969288C0.257984 1.26977 0.0887228 1.67731 0.0887228 2.10225C0.0887228 2.52719 0.257984 2.93473 0.559269 3.23521L13.8393 16.4637L0.55927 29.6923C0.391779 29.8353 0.255746 30.0113 0.159709 30.2093C0.0636718 30.4073 0.00970357 30.6229 0.00119238 30.8427C-0.00731881 31.0624 0.0298099 31.2816 0.110249 31.4864C0.190689 31.6911 0.312702 31.8771 0.468629 32.0326C0.624557 32.1881 0.811033 32.3098 1.01635 32.39C1.22167 32.4703 1.4414 32.5073 1.66176 32.4988C1.88211 32.4903 2.09832 32.4365 2.29682 32.3407C2.49532 32.2449 2.67183 32.1093 2.81527 31.9422L16.0953 18.7137L29.3593 31.9422C29.6654 32.2036 30.0591 32.3402 30.4618 32.3247C30.8644 32.3092 31.2464 32.1427 31.5314 31.8586C31.8163 31.5744 31.9833 31.1934 31.9988 30.7918C32.0144 30.3902 31.8774 29.9975 31.6153 29.6923L18.3513 16.4637Z" fill="#FF0000"/>
</svg>
