<svg width="38" height="37" viewBox="0 0 38 37" fill="none" xmlns="http://www.w3.org/2000/svg">
<path fill-rule="evenodd" clip-rule="evenodd" d="M18.9544 36.6424C21.3341 36.6424 23.6905 36.1737 25.889 35.263C28.0876 34.3524 30.0853 33.0176 31.768 31.3349C33.4507 29.6522 34.7855 27.6545 35.6961 25.4559C36.6068 23.2574 37.0755 20.901 37.0755 18.5213C37.0755 16.1416 36.6068 13.7852 35.6961 11.5866C34.7855 9.38807 33.4507 7.39041 31.768 5.70771C30.0853 4.025 28.0876 2.69021 25.889 1.77954C23.6905 0.868863 21.3341 0.400146 18.9544 0.400146C14.1484 0.400147 9.53918 2.30933 6.14081 5.70771C2.74244 9.10608 0.833252 13.7153 0.833252 18.5213C0.833252 23.3273 2.74244 27.9365 6.14081 31.3349C9.53918 34.7332 14.1484 36.6424 18.9544 36.6424ZM18.4873 25.8503L28.5546 13.7695L25.4619 11.1923L16.804 21.5797L12.3241 17.0978L9.47704 19.9448L15.5174 25.9852L17.0758 27.5436L18.4873 25.8503Z" fill="white"/>
</svg>
