<svg width="160" height="54" viewBox="0 0 160 54" fill="none" xmlns="http://www.w3.org/2000/svg">
<path fill-rule="evenodd" clip-rule="evenodd" d="M15.6812 11.6363C12.716 12.4247 10.6861 13.5468 8.63858 15.5284C5.39142 18.672 4.01286 21.9539 4.00038 26.5714C3.99334 29.1919 4.12585 30.0005 4.87867 31.9314C6.12791 35.1351 6.21913 36.0723 5.41127 37.3986C5.04062 38.0071 4.73751 38.6798 4.73751 38.8933C4.73751 39.3893 8.16487 40.971 10.8375 41.7081C13.6657 42.4884 19.8156 42.4871 22.6617 41.7058C28.5267 40.0962 33.0234 35.456 34.2237 29.7744C34.6625 27.6983 34.426 23.6425 33.7625 21.861C33.4965 21.1463 33.0237 19.8908 32.7123 19.0705C32.156 17.6068 32.1586 17.5551 32.8451 16.218C33.2295 15.4692 33.5442 14.6636 33.5442 14.4275C33.5442 13.8265 29.6726 12.1126 26.9196 11.495C23.7441 10.7829 18.6495 10.8469 15.6812 11.6363ZM24.078 16.9905C29.7782 19.9174 31.6717 27.3162 28.0776 32.6185C25.8509 35.903 22.7439 37.422 18.6607 37.2222C15.629 37.0735 13.7162 36.2581 11.6777 34.2443C9.44836 32.0428 8.749 30.2126 8.74484 26.5714C8.74196 23.8234 8.83702 23.3073 9.61224 21.861C11.0673 19.1475 12.547 17.7578 15.1822 16.6309C17.8372 15.4952 21.4508 15.6414 24.078 16.9905ZM15.7801 19.2037C12.844 20.6503 11.1531 23.3427 11.1531 26.5714C11.1531 31.1183 14.6989 34.6816 19.2311 34.6894C22.3922 34.6949 24.8234 33.2298 26.3665 30.3897C28.0885 27.2198 27.5015 23.4122 24.8807 20.752C23.369 19.218 22.0964 18.6837 19.621 18.5427C17.7399 18.4358 17.1237 18.542 15.7801 19.2037ZM23.507 22.527C24.9259 23.967 23.9535 25.9217 21.8186 25.9217C19.8748 25.9217 19.0922 23.5951 20.6244 22.372C21.7405 21.4809 22.5173 21.5225 23.507 22.527Z" fill="#FFD200"/>
<path fill-rule="evenodd" clip-rule="evenodd" d="M47.3607 16.2277C47.2356 16.3538 47.1332 21.0173 47.1332 26.5913V36.7252H49.3843H51.6355L51.5508 26.4564L51.466 16.1876L49.5272 16.0932C48.4606 16.0411 47.4859 16.1016 47.3607 16.2277ZM114.442 16.6818C113.775 16.8516 112.8 17.2138 112.276 17.4868C111.434 17.9257 111.323 18.1518 111.323 19.4403C111.323 21.2635 111.719 21.4465 114.165 20.7547C118.502 19.5286 121.042 20.581 119.979 23.1652C119.765 23.6856 119.572 24.1206 119.549 24.1319C119.526 24.1433 118.301 24.2684 116.826 24.4104C115.124 24.5744 114.042 24.8325 113.862 25.1177C113.519 25.6634 113.491 27.3724 113.816 27.8636C113.945 28.0596 115.158 28.3022 116.51 28.4025C120.074 28.6674 120.949 29.3533 120.479 31.5129C120.108 33.2128 117.754 33.6164 114.035 32.6177C112.908 32.3153 111.921 32.1345 111.84 32.216C111.759 32.2972 111.646 33.0905 111.589 33.9787L111.484 35.5932L113.089 36.3698C115.376 37.4765 119.607 37.472 121.807 36.3604C124.02 35.2423 124.609 34.2533 124.751 31.4107C124.889 28.6454 124.305 27.0163 122.952 26.3946L122.094 26.001L122.769 25.4606C123.801 24.6349 124.162 23.6749 124.162 21.7551C124.162 19.7159 123.329 18.2009 121.672 17.2255C120.45 16.5068 116.344 16.198 114.442 16.6818ZM130.795 16.7242C130.118 16.916 128.999 17.6155 128.307 18.2782L127.05 19.4833L127.051 26.568C127.053 34.6673 127.178 35.1378 129.685 36.4487C131.609 37.4542 135.925 37.4788 137.805 36.4949C139.888 35.4047 140.53 33.8842 140.529 30.051C140.527 26.3261 140.07 25.2426 138.081 24.2474C137.116 23.7652 136.176 23.63 133.87 23.6426L130.902 23.6584V22.7891C130.902 21.2263 131.858 20.4572 133.996 20.3016C135.044 20.2249 136.449 20.3145 137.117 20.5005C138.907 20.9986 139.246 20.7427 139.246 18.894C139.246 17.4596 139.16 17.2691 138.364 16.9535C137.111 16.4567 132.256 16.3095 130.795 16.7242ZM146.745 16.6368C145.274 17.0204 143.892 18.122 143.298 19.3834C142.871 20.2893 142.777 21.659 142.777 26.9425C142.777 33.0944 142.81 33.4466 143.499 34.4942C144.61 36.1838 146.862 37.1563 149.664 37.1563C151.513 37.1563 152.256 36.9995 153.367 36.375C156.023 34.8798 156.083 34.6818 156.194 26.9865C156.288 20.5125 156.261 20.1528 155.601 19.0752C154.627 17.4878 152.803 16.642 150.036 16.4955C148.78 16.4289 147.299 16.4926 146.745 16.6368ZM86.0325 17.7077C85.7533 17.9891 85.6474 20.3443 85.6474 26.2734V34.4509L86.5836 35.5072C87.497 36.538 87.5926 36.5661 90.5322 36.6735C94.0765 36.8028 94.3355 36.6366 94.0832 34.3959L93.9122 32.8751L92.267 32.7788L90.6221 32.6824L90.5316 29.0619L90.4411 25.4415L91.9759 25.3425L93.5107 25.2436V23.4647V21.6859L91.9861 21.5872L90.4616 21.4886V19.6004C90.4616 18.177 90.3368 17.664 89.9539 17.5159C89.0713 17.1747 86.4337 17.3034 86.0325 17.7077ZM151.05 20.734C151.739 21.2205 151.763 21.4219 151.763 26.6941C151.763 33.0517 151.681 33.2626 149.245 33.1028C147.082 32.9609 146.915 32.4667 147.022 26.4894C147.099 22.2004 147.186 21.5054 147.721 20.9103C148.453 20.0965 150.029 20.0131 151.05 20.734ZM58.2975 21.0316C57.4652 21.2625 56.3098 21.7305 55.7299 22.0717L54.6755 22.692L54.5889 29.7233L54.5025 36.755L56.6751 36.6592L58.8479 36.5635L58.9355 31.0177C58.9972 27.1249 59.1406 25.3742 59.417 25.1443C60.1118 24.5657 62.0128 24.3984 62.8598 24.8419C63.659 25.2597 63.6628 25.2837 63.8227 30.9126L63.9831 36.5635H66.2298H68.4764L68.5759 32.1972C68.6308 29.7958 68.5798 26.8892 68.4626 25.7381C68.2755 23.8978 68.1083 23.5029 67.0793 22.4666C65.2933 20.6684 61.715 20.0836 58.2975 21.0316ZM74.0196 20.9206C73.3539 21.1105 72.3921 21.7557 71.8532 22.3744C70.9959 23.3583 70.8836 23.7209 70.8836 25.5062C70.8836 28.6567 71.8516 29.5807 75.8872 30.2816C79.0252 30.8262 79.5493 31.0714 79.5493 31.9928C79.5493 32.423 79.3208 32.8632 79.0415 32.9712C78.1502 33.316 74.951 33.1746 73.2384 32.715C71.201 32.1685 70.8836 32.4114 70.8836 34.5169V36.0603L72.7291 36.6049C75.4803 37.4167 79.6616 37.3417 81.388 36.45C83.1555 35.537 83.7216 34.3833 83.7216 31.6959C83.7216 29.6978 83.6472 29.4701 82.6718 28.4872C81.7889 27.5975 81.2404 27.3685 79.2216 27.0463C75.3612 26.4309 75.0216 26.3384 74.838 25.8558C74.7418 25.6035 74.8557 25.1633 75.0906 24.8781C75.4462 24.4463 75.9245 24.3965 77.9349 24.5818C79.264 24.7041 80.8572 24.8305 81.475 24.8622L82.5983 24.9201L82.694 23.2593C82.7874 21.6425 82.7617 21.5879 81.7311 21.2085C80.2948 20.6797 75.4937 20.5005 74.0196 20.9206ZM98.556 21.0038C97.624 21.2415 96.7664 21.5313 96.6508 21.648C96.3145 21.987 96.5616 24.8833 96.9474 25.1232C97.14 25.2436 98.0316 25.122 98.928 24.8538C100.958 24.2464 104.063 24.1889 104.729 24.7461C105.002 24.9741 105.225 25.5072 105.225 25.9299C105.225 26.6586 105.119 26.699 103.198 26.699C100.422 26.699 97.9558 27.4914 96.657 28.8003C95.6787 29.7861 95.5972 30.0267 95.6017 31.9223C95.6078 34.5832 96.0532 35.4205 97.9741 36.3798C99.2965 37.0402 100.017 37.1657 102.467 37.1622C105.034 37.1586 105.618 37.0444 107.312 36.2139L109.237 35.2698L109.325 29.6894C109.428 23.1558 109.277 22.6396 106.933 21.4957C105.076 20.5898 101.096 20.3563 98.556 21.0038ZM134.917 27.6693C135.825 27.6693 136.358 28.667 136.353 30.3605C136.35 31.2819 136.232 32.2202 136.089 32.4456C135.717 33.0369 133.888 33.4945 132.786 33.2723C131.436 33.0003 130.902 32.0388 130.902 29.8802V28.0309L132.266 27.7236C133.016 27.5548 133.822 27.4733 134.057 27.5428C134.292 27.6123 134.679 27.6693 134.917 27.6693ZM105.225 31.204C105.225 32.3955 104.555 33.0831 103.129 33.3525C100.24 33.8988 98.5053 32.5006 100.09 30.9035C100.61 30.3799 101.16 30.2567 102.979 30.2567H105.225V31.204Z" fill="white"/>
</svg>
