<svg width="160" height="54" viewBox="0 0 160 54" fill="none" xmlns="http://www.w3.org/2000/svg">
<path fill-rule="evenodd" clip-rule="evenodd" d="M77.1416 2.18842C74.1113 2.66814 71.8921 3.42667 69.8836 4.66922C67.3104 6.26111 65.873 8.28137 65.1806 11.2793C65.0299 11.9316 64.9983 12.2993 65.0023 13.3555C65.0065 14.4839 65.0324 14.7277 65.2166 15.3742C65.5853 16.667 66.2462 17.6153 67.067 18.0288C67.4192 18.2062 67.5244 18.2287 67.6851 18.1609C68.019 18.0201 68.0141 17.7647 67.6668 17.1925L67.354 16.6774L67.3721 15.7714C67.3968 14.5422 67.554 13.7709 67.9226 13.0713C68.4646 12.0425 69.077 11.5794 69.8907 11.5831C70.3335 11.585 70.4825 11.6158 71.7171 11.9589C73.5329 12.4636 74.1553 12.576 76.1219 12.7543C78.1108 12.9347 80.1138 12.8837 82.2398 12.5985C83.2525 12.4626 83.7455 12.3542 85.3802 11.9076C86.7922 11.5218 87.2099 11.4926 87.7492 11.7419C88.2431 11.9702 88.53 12.2821 88.9394 13.0357C89.3441 13.7806 89.4917 14.4776 89.5081 15.7214C89.5202 16.6466 89.4538 16.898 89.044 17.4781C88.8679 17.7274 88.9438 18.0493 89.2045 18.1593C89.5791 18.3173 90.3899 17.7942 90.8979 17.0669C91.5356 16.1537 91.9467 14.6887 91.9467 13.3295C91.9467 12.0863 91.5809 10.4453 91.0139 9.14439C90.6386 8.28356 90.5487 8.1266 89.9654 7.31559C88.3925 5.12833 85.2186 3.31357 81.5872 2.52507C80.8355 2.36192 78.5589 1.98835 78.3885 2.00028C78.3308 2.00436 77.7697 2.08899 77.1416 2.18842ZM80.2005 4.4872C82.9263 4.86673 85.3376 5.86263 86.7623 7.19729C87.0289 7.44703 87.2308 7.66575 87.2109 7.68334C87.191 7.70086 86.9099 7.65262 86.5862 7.57614C85.9282 7.42053 84.8854 7.36595 84.7616 7.48048C84.7083 7.52986 84.7125 7.63004 84.7739 7.77515C84.8252 7.8961 84.8696 8.24988 84.8729 8.56132C84.889 10.1273 83.6183 11.132 81.1937 11.4703C80.2741 11.5985 77.054 11.6201 76.1627 11.5038C73.2559 11.1249 71.9004 9.82531 72.3851 7.88198C72.4641 7.56534 72.4618 7.48154 72.373 7.43073C72.1789 7.31974 70.9105 7.46893 70.0963 7.69867L69.903 7.75318L70.0528 7.54148C70.4431 6.99012 71.9627 5.98939 73.186 5.47819C74.2862 5.0184 76.0647 4.5821 77.5352 4.41124C78.1739 4.33695 79.3659 4.37093 80.2005 4.4872ZM75.4103 7.49822C73.132 7.54881 73.1737 7.53537 73.0067 8.27261C72.6841 9.6956 73.8897 10.7603 76.1482 11.0472C77.0824 11.1659 80.2577 11.1499 81.0978 11.0224C83.218 10.7005 84.307 9.76793 84.1732 8.38873C84.1157 7.79659 83.9638 7.59969 83.5261 7.54986C82.959 7.48524 77.5458 7.45073 75.4103 7.49822Z" fill="white"/>
<path fill-rule="evenodd" clip-rule="evenodd" d="M77.1416 2.18842C74.1113 2.66814 71.8921 3.42667 69.8836 4.66922C67.3104 6.26111 65.873 8.28137 65.1806 11.2793C65.0299 11.9316 64.9983 12.2993 65.0023 13.3555C65.0065 14.4839 65.0324 14.7277 65.2166 15.3742C65.5853 16.667 66.2462 17.6153 67.067 18.0288C67.4192 18.2062 67.5244 18.2287 67.6851 18.1609C68.019 18.0201 68.0141 17.7647 67.6668 17.1925L67.354 16.6774L67.3721 15.7714C67.3968 14.5422 67.554 13.7709 67.9226 13.0713C68.4646 12.0425 69.077 11.5794 69.8907 11.5831C70.3335 11.585 70.4825 11.6158 71.7171 11.9589C73.5329 12.4636 74.1553 12.576 76.1219 12.7543C78.1108 12.9347 80.1138 12.8837 82.2398 12.5985C83.2525 12.4626 83.7455 12.3542 85.3802 11.9076C86.7922 11.5218 87.2099 11.4926 87.7492 11.7419C88.2431 11.9702 88.53 12.2821 88.9394 13.0357C89.3441 13.7806 89.4917 14.4776 89.5081 15.7214C89.5202 16.6466 89.4538 16.898 89.044 17.4781C88.8679 17.7274 88.9438 18.0493 89.2045 18.1593C89.5791 18.3173 90.3899 17.7942 90.8979 17.0669C91.5356 16.1537 91.9467 14.6887 91.9467 13.3295C91.9467 12.0863 91.5809 10.4453 91.0139 9.14439C90.6386 8.28356 90.5487 8.1266 89.9654 7.31559C88.3925 5.12833 85.2186 3.31357 81.5872 2.52507C80.8355 2.36192 78.5589 1.98835 78.3885 2.00028C78.3308 2.00436 77.7697 2.08899 77.1416 2.18842ZM80.2005 4.4872C82.9263 4.86673 85.3376 5.86263 86.7623 7.19729C87.0289 7.44703 87.2308 7.66575 87.2109 7.68334C87.191 7.70086 86.9099 7.65262 86.5862 7.57614C85.9282 7.42053 84.8854 7.36595 84.7616 7.48048C84.7083 7.52986 84.7125 7.63004 84.7739 7.77515C84.8252 7.8961 84.8696 8.24988 84.8729 8.56132C84.889 10.1273 83.6183 11.132 81.1937 11.4703C80.2741 11.5985 77.054 11.6201 76.1627 11.5038C73.2559 11.1249 71.9004 9.82531 72.3851 7.88198C72.4641 7.56534 72.4618 7.48154 72.373 7.43073C72.1789 7.31974 70.9105 7.46893 70.0963 7.69867L69.903 7.75318L70.0528 7.54148C70.4431 6.99012 71.9627 5.98939 73.186 5.47819C74.2862 5.0184 76.0647 4.5821 77.5352 4.41124C78.1739 4.33695 79.3659 4.37093 80.2005 4.4872Z" fill="#0061A8"/>
<path fill-rule="evenodd" clip-rule="evenodd" d="M61.3187 12.5645C61.0495 12.5968 60.3521 12.6757 59.7689 12.7399C59.1856 12.8042 58.5983 12.8748 58.4637 12.897C58.3292 12.9191 57.7785 12.9919 57.2402 13.0589C56.7018 13.1259 55.5088 13.2977 54.5891 13.4408C53.6694 13.5839 52.6967 13.7351 52.4275 13.7768C49.2842 14.2636 43.1195 15.574 39.4985 16.5249C36.9593 17.1917 31.682 18.7602 30.9743 19.0585C30.8846 19.0963 30.6276 19.1825 30.4033 19.2501C29.5694 19.5016 25.9022 20.8735 24.7686 21.3581C24.4291 21.5033 24.1172 21.6221 24.0756 21.6221C24.034 21.6221 24 21.6724 24 21.7337C24 21.8804 24.3348 22.8488 24.4148 22.9338C24.449 22.97 25.2047 22.7108 26.0943 22.3578C26.9837 22.0047 28.0602 21.5905 28.4864 21.4373C28.9126 21.2841 29.4381 21.0912 29.6542 21.0086C31.7666 20.2016 37.0128 18.6261 41.0483 17.5869C42.0701 17.3238 45.3228 16.5695 46.432 16.3384C46.8582 16.2496 47.4272 16.1304 47.6964 16.0734C49.6876 15.6519 53.1426 15.0493 55.8943 14.6436C57.3918 14.4228 59.6961 14.1342 61.074 13.9951C62.286 13.8726 62.258 13.8821 62.249 13.5989C62.2336 13.1256 62.0574 12.526 61.9305 12.5158C61.8632 12.5104 61.5879 12.5323 61.3187 12.5645ZM94.8477 12.5811C94.8299 12.6331 94.7739 12.9102 94.7233 13.1969C94.6546 13.5863 94.6548 13.7317 94.7243 13.7715C94.7753 13.8007 95.2087 13.8636 95.6873 13.911C98.0267 14.1433 100.608 14.4872 103.409 14.9397C103.813 15.0049 104.364 15.0927 104.633 15.1347C106.798 15.473 112.986 16.7502 115.196 17.315C119.745 18.4772 121.754 19.0443 124.699 19.9976C125.417 20.2298 126.211 20.4854 126.463 20.5654C127.643 20.9402 130.271 21.9086 131.808 22.535C132.308 22.7388 132.757 22.9055 132.805 22.9055C132.888 22.9055 133.31 22.1919 133.425 21.8548C133.481 21.6927 133.46 21.6813 132.041 21.0905C129.409 19.9953 123.782 18.1548 119.357 16.9414C115.383 15.852 109.362 14.5211 105.53 13.8852C105.126 13.8183 104.631 13.7317 104.429 13.6929C103.483 13.5113 99.5206 12.9467 97.8218 12.7515C97.3058 12.6923 96.6084 12.6095 96.2719 12.5676C95.4194 12.4615 94.887 12.4665 94.8477 12.5811ZM93.2982 18.1633C93.2786 18.2178 93.1324 19.1287 92.9736 20.1876C92.8147 21.2465 92.6282 22.4695 92.559 22.9055C92.0734 25.9682 91.2161 31.7095 91.2152 31.9053C91.2147 31.9927 91.2997 32.0461 91.4796 32.0714C91.8876 32.129 93.1989 32.3224 94.1689 32.4679C94.6499 32.5401 95.0592 32.5839 95.0786 32.5653C95.098 32.5468 95.2105 31.8861 95.3287 31.0971C95.6956 28.6468 95.7133 28.5362 95.7759 28.3037C95.8145 28.1602 95.8791 28.0881 95.9524 28.1069C96.0159 28.1232 96.5823 28.1528 97.211 28.1725C98.9583 28.2274 99.7647 27.9867 100.679 27.1375C101.665 26.2222 102.089 25.0722 102.098 23.283C102.104 22.3287 102.08 22.1241 101.917 21.6875C101.568 20.7526 100.705 19.8436 99.7593 19.414C98.5592 18.8689 97.962 18.7191 95.7825 18.4166C95.3114 18.3513 94.7424 18.2667 94.5181 18.2286C93.6174 18.076 93.3354 18.0609 93.2982 18.1633ZM79.3547 20.4213C79.332 20.5212 79.274 21.775 79.2257 23.2075C79.0423 28.6557 78.9798 30.3555 78.9478 30.766C78.9297 30.9991 78.9384 31.2251 78.9672 31.2682C79.0231 31.3517 84.5258 31.5946 84.6182 31.5176C84.6467 31.494 84.6952 30.8937 84.7262 30.1838L84.7825 28.893L84.1523 28.8437C83.8058 28.8166 83.2363 28.7944 82.8868 28.7944C82.5311 28.7944 82.228 28.7595 82.1984 28.7152C82.1693 28.6716 82.1718 28.3115 82.2039 27.9151L82.2622 27.1942L83.3494 27.2202C84.004 27.2358 84.4671 27.2162 84.5134 27.1709C84.5557 27.1295 84.6033 26.5351 84.6192 25.85L84.648 24.6043L83.5069 24.5288C82.193 24.4419 82.272 24.5057 82.3632 23.6059L82.4198 23.0461L83.6971 23.0701L84.9743 23.0943L85.0346 21.8138C85.0677 21.1094 85.0677 20.5107 85.0346 20.4831C85.0015 20.4555 84.2952 20.4121 83.4653 20.3866C82.6353 20.3611 81.3801 20.3176 80.6762 20.29L79.3961 20.2398L79.3547 20.4213ZM70.7108 20.3948L70.0697 20.4207L70.1184 21.4555C70.1647 22.4404 70.1979 23.5648 70.2915 27.3222C70.3143 28.2357 70.3556 29.5573 70.3832 30.2589L70.4336 31.5346L71.4154 31.4857C71.9554 31.4588 72.6533 31.4369 72.9663 31.4369H73.5355L73.4824 29.304L73.4293 27.1712L74.0485 28.7189C74.389 29.5702 74.7687 30.5045 74.892 30.7951L75.1163 31.3236L76.7609 31.3185C77.6654 31.3156 78.4254 31.2949 78.4498 31.2723C78.4742 31.2497 77.9647 30.2327 77.3176 29.0125C76.1487 26.8083 76.1422 26.793 76.316 26.6805C76.806 26.3632 77.2106 25.9344 77.4479 25.4806C77.6831 25.0308 77.7118 24.8996 77.7404 24.1455C77.7873 22.9033 77.5161 22.0677 76.8325 21.3489C76.4421 20.9384 75.5392 20.5202 74.8187 20.4163C74.3273 20.3453 72.2111 20.3343 70.7108 20.3948ZM66.264 20.6666L64.7651 20.8146L64.818 21.4638C64.847 21.8207 64.9078 22.4356 64.953 22.83C65.1586 24.6265 65.5166 28.4892 65.4859 28.5802C65.4671 28.6357 65.4289 28.7768 65.4012 28.8938C65.3368 29.1647 64.8964 29.3582 64.5897 29.2503C64.1286 29.088 64.0997 28.9484 63.7266 25.095C63.4387 22.1207 63.3163 21.0623 63.2543 21.0093C63.2216 20.9814 62.7727 21.0027 62.2568 21.0567C61.7409 21.1106 61.0709 21.1777 60.7681 21.2057C60.2617 21.2525 60.2175 21.2707 60.2175 21.4324C60.2175 21.9734 60.9725 29.0428 61.0732 29.4447C61.2418 30.1177 61.6034 30.8093 62.0047 31.2265C62.8319 32.0864 64.4377 32.3932 66.0056 31.9908C67.3527 31.645 68.1386 30.8978 68.4997 29.6195C68.6577 29.0601 68.6342 27.9344 68.4219 25.8877C68.3531 25.2233 68.2423 24.1192 68.1759 23.434C67.9812 21.4254 67.8794 20.6056 67.8193 20.5608C67.7882 20.5376 67.0883 20.5853 66.264 20.6666ZM58.0559 21.5528C57.8764 21.5897 56.5963 21.7929 55.211 22.0045C53.8259 22.216 52.6401 22.4076 52.5762 22.4304C52.5003 22.4573 52.474 22.5405 52.5005 22.6698C52.5228 22.7787 52.5599 23.0037 52.5827 23.1698C52.6933 23.9708 52.899 25.0631 52.9488 25.1129C52.9795 25.1435 53.3255 25.1167 53.7179 25.0533C54.1102 24.9899 54.4621 24.9558 54.5 24.9774C54.5377 24.999 54.6118 25.2976 54.6644 25.641C54.717 25.9843 54.7958 26.4691 54.8395 26.7182C54.8831 26.9674 55.0638 28.0885 55.2411 29.2097C55.4184 30.3308 55.6258 31.6388 55.702 32.1164C55.8484 33.0336 55.9221 33.2086 56.1307 33.1344C56.2016 33.1093 56.5903 33.0408 56.9946 32.9823C58.6123 32.748 58.8735 32.7006 58.9198 32.6325C58.9462 32.5935 58.9381 32.385 58.9016 32.1691C58.782 31.4618 58.4244 29.2399 58.1762 27.6619C58.0423 26.8107 57.8785 25.7915 57.8122 25.397C57.6381 24.3605 57.5858 24.4542 58.4026 24.3405C59.2861 24.2175 59.418 24.1618 59.357 23.9371C59.3317 23.8433 59.2304 23.2587 59.132 22.6378L58.9532 21.5088L58.6677 21.4973C58.5107 21.4909 58.2353 21.5159 58.0559 21.5528ZM97.4141 21.8892C97.8585 22.0958 98.1378 22.5946 98.1444 23.193C98.1556 24.2046 97.5562 24.8685 96.6316 24.8685C96.4839 24.8685 96.3459 24.8428 96.3249 24.8113C96.3039 24.7799 96.3928 24.0919 96.5225 23.2824C96.6521 22.4731 96.7589 21.7847 96.7598 21.7528C96.7617 21.6818 97.136 21.7599 97.4141 21.8892ZM49.4094 22.8621C47.9798 23.1332 47.0417 24.0463 46.7147 25.4851C46.5617 26.1579 46.5637 26.6208 46.7219 27.2527C47.0339 28.4974 47.6909 29.165 49.4276 30.0016C50.3483 30.445 50.603 30.8481 50.2727 31.3386C49.8822 31.9188 48.8398 31.8235 47.8799 31.1199C47.6231 30.9317 47.574 30.9173 47.574 31.0299C47.574 31.2791 48.2356 34.2675 48.3052 34.3326C48.3432 34.3681 48.6817 34.4149 49.0575 34.4366C51.6959 34.5889 53.4572 33.1511 53.4717 30.8329C53.4824 29.1376 52.7608 28.1023 50.998 27.2835C50.5323 27.0672 50.0486 26.7885 49.9231 26.6642C49.4296 26.1752 49.7909 25.548 50.5661 25.548C50.9805 25.548 51.6396 25.8172 51.9984 26.133C52.1213 26.2412 52.243 26.3101 52.2688 26.2863C52.2945 26.2624 52.1887 25.6534 52.0333 24.9328C51.8781 24.2123 51.7279 23.4988 51.6996 23.3472C51.6332 22.9907 51.5562 22.9411 50.9117 22.8393C50.267 22.7375 50.0493 22.7408 49.4094 22.8621ZM74.1662 22.9715C74.8714 23.4334 74.807 24.8277 74.0609 25.2486C73.7557 25.4209 73.4677 25.4408 73.4067 25.2938C73.3721 25.2102 73.3167 23.0383 73.3431 22.8028C73.3545 22.7023 73.9378 22.8219 74.1662 22.9715ZM103.26 22.8112C103.22 22.8724 103.191 23.0035 102.264 27.39C101.662 30.2352 101.644 30.3552 101.673 31.2404C101.711 32.3894 101.879 32.8298 102.53 33.4799C103.299 34.2485 104.419 34.6436 105.816 34.6388C106.853 34.6352 107.392 34.4443 108.029 33.8549C108.696 33.2371 109.093 32.4486 109.358 31.2104C110.38 26.4344 110.796 24.3835 110.759 24.2957C110.735 24.237 110.655 24.189 110.581 24.189C110.507 24.189 110.148 24.1251 109.783 24.0472C108.119 23.6913 107.841 23.6441 107.781 23.7071C107.747 23.7438 107.528 24.6911 107.295 25.8122C107.062 26.9334 106.839 27.9696 106.799 28.1149C106.759 28.2603 106.702 28.5321 106.672 28.7189C106.642 28.9058 106.585 29.1776 106.546 29.3229C106.506 29.4682 106.396 29.9609 106.3 30.4176C106.064 31.5416 105.935 31.7389 105.439 31.7389C105.041 31.7389 104.755 31.462 104.755 31.077C104.755 30.9168 104.972 29.7687 105.237 28.5255C105.502 27.2823 105.855 25.625 106.021 24.8425C106.187 24.0599 106.291 23.3937 106.253 23.3619C106.185 23.306 103.589 22.7544 103.394 22.7545C103.34 22.7546 103.28 22.78 103.26 22.8112ZM30.9743 24.8691C30.2393 25.0197 29.6694 25.1887 27.9154 25.7766C27.3995 25.9496 26.7662 26.1588 26.5083 26.2417C26.2372 26.3287 26.0393 26.4371 26.0393 26.4984C26.0393 26.5567 26.1101 26.7998 26.1967 27.0388C26.2833 27.2777 26.5623 28.0847 26.8168 28.8322C27.0712 29.5796 27.3646 30.429 27.4686 30.7196C27.5727 31.0103 27.8661 31.8597 28.1208 32.6071C28.3754 33.3545 28.7611 34.4757 28.978 35.0985C29.3325 36.1171 30.2461 38.7872 30.4587 39.4261C30.5046 39.564 30.5853 39.6921 30.6381 39.7109C30.7332 39.7446 31.2421 39.5915 33.0544 38.9838C33.5703 38.8108 34.0606 38.6508 34.1439 38.6283C34.3536 38.5717 34.314 38.398 33.6643 36.5213C33.3647 35.6557 33.0634 34.7848 32.9949 34.586C32.9264 34.3871 32.8842 34.2154 32.9012 34.2043C32.9182 34.1933 33.2032 34.0854 33.5345 33.9646C36.1022 33.0287 37.2815 31.4233 36.9703 29.2872C36.7743 27.9426 36.1955 26.6735 35.4281 25.9061C34.6385 25.1164 33.8491 24.7978 32.565 24.7504C31.9104 24.7263 31.5353 24.7542 30.9743 24.8691ZM41.0076 24.797C40.0667 24.9466 39.4078 25.2651 38.7914 25.8683C37.4084 27.2218 37.1417 29.7031 38.0988 32.3132C38.7038 33.9631 39.755 35.2498 40.9413 35.7924C41.4752 36.0366 41.6441 36.0759 42.2782 36.104C42.6907 36.1223 43.1718 36.0975 43.3925 36.0467C44.7975 35.7233 45.8364 34.7435 46.3189 33.2866C46.5346 32.6353 46.5368 30.5081 46.3226 29.7004C45.432 26.3425 43.3528 24.4243 41.0076 24.797ZM112.923 24.9705C112.881 25.0182 112.323 26.3143 111.684 27.8507C111.044 29.3871 110.287 31.2047 110 31.8899C108.906 34.5053 108.656 35.1527 108.723 35.2037C108.843 35.2944 111.151 35.9458 111.626 36.0229C111.883 36.0645 111.874 36.0802 112.301 34.8343C112.45 34.3983 112.743 33.5489 112.953 32.9468C113.162 32.3447 113.457 31.4614 113.607 30.9839C113.893 30.0741 113.943 30.0646 113.805 30.9461C113.76 31.2368 113.67 31.9163 113.605 32.4561C113.421 33.9938 113.248 35.3577 113.173 35.8698C113.135 36.128 113.125 36.3692 113.151 36.4059C113.205 36.4822 115.523 37.1239 115.574 37.0767C115.593 37.0595 116.141 35.979 116.793 34.6754C117.444 33.3717 118.011 32.2372 118.053 32.1541C118.095 32.0711 118.201 31.8332 118.289 31.6256C118.378 31.418 118.452 31.2872 118.455 31.335C118.459 31.4201 117.348 36.0963 117.112 36.9832C117.047 37.2308 117.02 37.4577 117.053 37.4874C117.127 37.5537 119.859 38.3072 120.026 38.3072C120.169 38.3072 120.084 38.7249 121.228 32.3806C121.888 28.7185 122.089 27.4523 122.019 27.3907C121.968 27.3453 121.449 27.1801 120.866 27.0236C120.282 26.8671 119.531 26.6579 119.196 26.5588C118.86 26.4596 118.561 26.3785 118.531 26.3785C118.454 26.3785 118.22 26.7665 117.893 27.4355C117.741 27.7469 117.435 28.3584 117.215 28.7944C116.735 29.7415 116.43 30.3628 116.344 30.5686C116.309 30.6517 116.201 30.8725 116.103 31.0594C115.935 31.3813 115.928 31.386 115.968 31.148C116.042 30.7088 116.591 26.4272 116.608 26.152C116.624 25.8893 116.621 25.8867 116.065 25.7149C115.757 25.6198 115.317 25.494 115.086 25.4353C114.855 25.3767 114.473 25.2761 114.238 25.2119C113.087 24.8977 113.002 24.8821 112.923 24.9705ZM41.8663 27.7906C42.1321 27.9602 42.2357 28.0819 42.4783 28.5097C42.9525 29.3459 43.3071 30.5657 43.3842 31.6256C43.4428 32.4316 43.3375 32.8727 43.0339 33.0938C42.2931 33.6331 41.4662 32.6942 40.9135 30.6863C40.6713 29.8063 40.577 28.6348 40.7169 28.2427C40.901 27.7263 41.4358 27.516 41.8663 27.7906ZM31.9829 28.1192C32.3897 28.3321 32.7038 28.7667 32.862 29.3356C33.0299 29.939 32.9355 30.3137 32.5185 30.6997C32.2709 30.9288 31.8625 31.1223 31.7909 31.0442C31.7514 31.0011 30.7712 28.1645 30.7911 28.1509C31.1247 27.9229 31.5843 27.9106 31.9829 28.1192ZM124.944 28.3603C124.925 28.4123 124.708 28.9643 124.463 29.5872C124.217 30.21 123.682 31.586 123.272 32.6448C122.863 33.7037 122.367 34.9777 122.171 35.476C121.201 37.9447 120.975 38.5474 121.01 38.5792C121.076 38.6401 123.861 39.6745 123.889 39.6485C123.915 39.6247 124.257 38.76 124.883 37.137C125.043 36.7218 125.183 36.3714 125.193 36.3586C125.204 36.3457 125.491 36.4218 125.832 36.5276C128.083 37.2271 129.48 36.7443 130.441 34.9347C130.845 34.1748 130.973 33.6633 130.977 32.7889C130.98 32.0076 130.973 31.9761 130.666 31.4163C130.055 30.3014 129.231 29.7711 126.547 28.7656C125.154 28.2436 125.003 28.2053 124.944 28.3603ZM127.554 31.8898C127.745 32.0738 127.795 32.1991 127.823 32.5585C127.887 33.3757 127.397 34.0045 126.698 34.0024C126.146 34.0007 126.136 33.9538 126.49 33.0072C126.952 31.7722 127.007 31.6634 127.173 31.6634C127.254 31.6634 127.425 31.7653 127.554 31.8898ZM133.335 33.2436C132.968 33.3269 132.596 33.5945 132.344 33.9553C132.042 34.3876 132.027 35.1834 132.314 35.6097C132.644 36.1009 133.005 36.2991 133.622 36.328C134.275 36.3585 134.605 36.2188 134.998 35.7456C135.248 35.4448 135.263 35.3909 135.263 34.802C135.263 34.2324 135.242 34.1508 135.026 33.8748C134.615 33.3504 133.953 33.1032 133.335 33.2436ZM134.271 33.7459C134.973 34.1337 135.048 35.0763 134.426 35.681L134.17 35.929L134.119 35.6648C134.091 35.5194 134.043 35.3315 134.013 35.2471C133.969 35.1247 134.007 35.0766 134.202 35.0086C134.49 34.9079 134.657 34.5805 134.556 34.3129C134.476 34.0986 133.981 33.8417 133.618 33.8261C133.363 33.8151 133.361 33.8178 133.084 34.6059C132.826 35.3433 132.817 35.4032 132.947 35.4917C133.135 35.6186 133.273 35.5062 133.341 35.1713C133.43 34.7326 133.547 34.8263 133.674 35.4383C133.704 35.5836 133.808 35.7612 133.905 35.833C134.077 35.9613 134.074 35.9634 133.713 35.9648C133.253 35.9665 132.887 35.7674 132.707 35.4169C132.43 34.8771 132.618 34.1334 133.119 33.788C133.396 33.5963 133.963 33.5756 134.271 33.7459ZM134.08 34.3544C134.195 34.4606 134.198 34.4935 134.1 34.5839C133.926 34.7452 133.548 34.5932 133.607 34.3855C133.659 34.1989 133.895 34.1834 134.08 34.3544ZM73.7787 34.4346C73.6778 34.4526 73.5952 34.4828 73.5952 34.5019C73.5952 34.5209 73.9989 35.3715 74.4925 36.3922L75.3897 38.2479V39.9763V41.7046H76.1647H76.9396V39.9473V38.1898L77.3137 37.3615C77.5196 36.9058 77.7735 36.3292 77.8781 36.08C77.9825 35.8309 78.1813 35.3826 78.3195 35.0838C78.4579 34.785 78.571 34.5035 78.571 34.4583C78.571 34.4029 78.2981 34.383 77.7349 34.3975L76.8988 34.4191L76.5317 35.4555C76.3298 36.0256 76.1414 36.4928 76.113 36.4936C76.0846 36.4945 76.0425 36.4358 76.0194 36.3631C75.8401 35.7988 75.2843 34.4896 75.204 34.4422C75.1012 34.3818 74.1047 34.3765 73.7787 34.4346ZM79.7293 34.4719C79.6602 34.5358 79.6315 34.9741 79.6317 35.963C79.6318 36.7333 79.5906 38.3247 79.5401 39.4996C79.4896 40.6745 79.4654 41.6516 79.4863 41.671C79.5072 41.6904 80.0164 41.7092 80.6179 41.7129C81.562 41.7188 81.7773 41.6967 82.1933 41.5513C83.0368 41.2566 83.6013 40.5846 83.9109 39.507C84.104 38.8347 84.0557 36.882 83.8316 36.3065C83.545 35.5703 83.0447 35.0222 82.3697 34.705C81.8116 34.4427 79.9394 34.2774 79.7293 34.4719ZM71.4057 34.5127L70.97 34.5407L71.0286 35.9219L71.0872 37.3031L70.8933 37.3511C70.7867 37.3775 70.4931 37.3997 70.241 37.4002L69.7827 37.4012L69.7321 37.1181C69.7043 36.9624 69.6811 36.6449 69.6807 36.4125C69.6802 36.1801 69.6555 35.6745 69.626 35.289L69.5722 34.588L68.8841 34.6277C68.5056 34.6496 68.1633 34.6977 68.1233 34.7347C68.0591 34.7941 68.1789 38.1944 68.3443 41.009L68.3988 41.9365L69.1412 41.915L69.8837 41.8934L69.8824 41.3649C69.8816 41.0742 69.8632 40.3948 69.8416 39.8549L69.8021 38.8735L70.4547 38.8282C70.8136 38.8033 71.1205 38.793 71.1368 38.8052C71.153 38.8174 71.1978 39.4806 71.2363 40.2789C71.2747 41.0771 71.335 41.7569 71.3702 41.7894C71.4053 41.822 71.746 41.8248 72.1272 41.7955L72.8202 41.7424L72.8168 41.1384C72.8095 39.8371 72.5434 34.6152 72.4792 34.5134C72.444 34.4576 72.2654 34.4575 71.4057 34.5127ZM85.8752 34.6976C85.8416 34.7901 85.7659 35.767 85.4584 40.0747C85.3906 41.0261 85.364 41.8289 85.3994 41.859C85.5022 41.946 86.7885 42.024 86.8403 41.9463C86.8658 41.9081 86.931 41.2436 86.9851 40.4696C87.0392 39.6955 87.1137 39.0622 87.1506 39.0622C87.1873 39.0622 87.2173 39.1047 87.217 39.1566C87.2165 39.2458 87.3957 39.867 87.8428 41.3261C87.9508 41.6784 88.0691 41.9946 88.1058 42.0285C88.2019 42.1175 89.5292 42.2322 89.6119 42.1587C89.6501 42.1246 89.5876 41.7962 89.4728 41.4288C88.8421 39.409 88.6797 38.7998 88.765 38.7735C89.0142 38.6966 89.3861 38.3028 89.5945 37.8952C89.7914 37.5099 89.8277 37.3436 89.8277 36.8253C89.8279 35.5584 89.187 34.9399 87.6915 34.7639C86.3965 34.6113 85.9129 34.5937 85.8752 34.6976ZM62.3648 35.0939C60.7217 35.5695 59.701 37.6277 60.1785 39.5025C60.5883 41.1112 61.5665 42.1262 62.9632 42.3915C63.3766 42.4701 63.5479 42.4688 63.93 42.3839C64.1854 42.3272 64.4126 42.2366 64.4351 42.1825C64.4574 42.1285 64.4445 41.8035 64.4064 41.4603C64.3435 40.8964 64.3212 40.8386 64.1737 40.8592C63.4045 40.9666 63.2699 40.9584 62.9149 40.7824C62.2136 40.4348 61.7334 39.4894 61.7343 38.4582C61.7352 37.2298 62.292 36.5259 63.3319 36.4386C63.5955 36.4165 63.8236 36.3777 63.8388 36.3525C63.9034 36.2443 63.7134 35.1007 63.6218 35.0468C63.468 34.9564 62.7466 34.9835 62.3648 35.0939ZM92.8948 35.2752C92.8676 35.3159 92.3363 36.7368 91.7141 38.4325C91.0918 40.1284 90.5328 41.6518 90.4717 41.8179C90.4106 41.984 90.36 42.1521 90.3593 42.1916C90.358 42.2654 91.6976 42.4722 91.7996 42.4138C91.831 42.3958 91.9386 42.1407 92.0389 41.8469C92.139 41.553 92.2607 41.2997 92.3092 41.2838C92.3576 41.268 92.6726 41.299 93.0091 41.3527L93.6208 41.4502L93.687 42.0115C93.7234 42.3203 93.7807 42.5988 93.8145 42.6305C93.8891 42.7005 95.2892 42.8658 95.3479 42.8115C95.3864 42.7759 95.3073 42.0248 95.0085 39.5907C94.7538 37.5149 94.6436 36.5844 94.5925 36.08C94.5632 35.7893 94.505 35.512 94.4633 35.4637C94.4216 35.4154 94.1967 35.3546 93.9634 35.3284C93.7302 35.3023 93.4054 35.263 93.2418 35.2411C93.0782 35.2191 92.922 35.2344 92.8948 35.2752ZM56.364 35.7674C55.3988 36.1015 54.9377 36.8395 55.0178 37.9219C55.0934 38.9428 55.5792 39.5609 56.7447 40.1192C57.4171 40.4413 57.6888 40.7153 57.6888 41.0714C57.6888 41.7436 56.9435 42.0152 56.0452 41.6704C55.9713 41.6421 55.8923 41.6467 55.8696 41.6806C55.8244 41.7485 56.0152 42.9394 56.0891 43.0499C56.1143 43.0878 56.3477 43.1575 56.6077 43.2048C56.9948 43.2753 57.1681 43.2697 57.5649 43.1741C58.9123 42.8492 59.5202 41.6238 59.0559 40.1681C58.9203 39.7429 58.3434 39.1957 57.6253 38.8111C56.9035 38.4245 56.6558 38.2059 56.549 37.8613C56.3484 37.2136 57.0143 36.8407 57.7983 37.1617C58.0056 37.2465 58.193 37.2893 58.2148 37.2566C58.2486 37.2061 58.1767 36.6937 58.0476 36.0633C58.0286 35.9711 57.94 35.8594 57.8506 35.8151C57.5757 35.6789 56.7008 35.6509 56.364 35.7674ZM96.6442 35.7531C96.5373 36.0559 96.4271 36.971 96.4904 37.0297C96.5304 37.0667 96.7609 37.1317 97.0027 37.1741C97.2445 37.2166 97.4593 37.2672 97.4802 37.2865C97.5012 37.3058 97.3449 38.3673 97.1329 39.6453C96.6148 42.7693 96.581 42.9973 96.6284 43.0413C96.7109 43.1176 98.0142 43.2931 98.0733 43.2359C98.1269 43.184 98.2861 42.2928 98.6774 39.8549C98.9352 38.2494 99.0528 37.5956 99.0903 37.561C99.1122 37.5406 99.3511 37.5578 99.621 37.5991C99.9611 37.6512 100.131 37.6497 100.176 37.5944C100.263 37.4853 100.457 36.342 100.397 36.287C100.371 36.2626 100.065 36.1997 99.7178 36.1471C98.7337 35.998 97.1521 35.7447 96.904 35.6965C96.7555 35.6675 96.6677 35.6867 96.6442 35.7531ZM81.9291 36.1864C82.589 36.8254 82.7295 38.4287 82.2226 39.5346C82.0259 39.9638 81.586 40.3457 81.2885 40.3457H81.075L81.1274 38.7036C81.1562 37.8005 81.1801 36.7775 81.1805 36.4305L81.1813 35.7994L81.4056 35.848C81.529 35.8747 81.7646 36.027 81.9291 36.1864ZM87.8114 36.0757C88.0765 36.1295 88.3588 36.5104 88.3592 36.8146C88.3601 37.3842 87.9326 37.8542 87.4135 37.8542H87.1935L87.2506 36.9725C87.3112 36.034 87.3297 35.9574 87.4852 36.0015C87.5399 36.017 87.6866 36.0504 87.8114 36.0757ZM52.3051 36.5238C52.0584 36.5704 51.8171 36.6323 51.7689 36.6614C51.7071 36.6987 51.7139 36.8877 51.792 37.3031C51.9955 38.3861 52.2288 39.6226 52.3448 40.2324C52.5434 41.2768 52.7866 42.5506 52.9037 43.16C52.9658 43.483 53.0364 43.7657 53.0608 43.7882C53.0852 43.8107 53.4207 43.7712 53.8064 43.7004C54.4075 43.5898 54.5076 43.5498 54.5076 43.42C54.5076 43.2806 53.4709 37.7216 53.2762 36.8161C53.1796 36.3674 53.1618 36.3621 52.3051 36.5238ZM102.846 36.9159C101.891 37.2398 101.116 38.2354 100.726 39.6401C100.256 41.329 100.467 42.8773 101.273 43.6551C101.977 44.3361 103.11 44.4833 103.987 44.0079C105.557 43.1559 106.475 39.8504 105.621 38.1176C105.126 37.1122 103.87 36.5686 102.846 36.9159ZM46.8232 37.6897C46.3429 37.8009 45.9144 37.926 45.8709 37.9675C45.8198 38.0162 45.8329 38.2033 45.9078 38.496C45.9716 38.7451 46.0587 39.1018 46.1014 39.2887C46.1442 39.4756 46.2526 39.9172 46.3421 40.2702C46.5375 41.0398 46.8475 42.324 47.203 43.8372C47.3469 44.4495 47.4884 44.9724 47.5173 44.9992C47.601 45.0768 49.2023 44.6644 49.6826 44.4417C50.2398 44.1833 50.7788 43.6283 51.0064 43.0789C51.2641 42.4568 51.251 41.325 50.9746 40.3398C50.5208 38.7217 49.6874 37.7901 48.4877 37.5597C47.9117 37.4492 47.8363 37.4551 46.8232 37.6897ZM93.4885 39.6662L93.4986 40.1569L93.0907 40.1307C92.8663 40.1164 92.6828 40.0682 92.6828 40.0238C92.6828 39.9473 93.0741 38.5456 93.2778 37.892C93.368 37.6028 93.3743 37.6237 93.4252 38.3827C93.4545 38.8187 93.483 39.3963 93.4885 39.6662ZM108.389 38.1751C108.294 38.4541 107.053 42.4389 106.539 44.1142C106.407 44.5467 106.314 44.9379 106.332 44.9835C106.366 45.0649 107.426 45.4041 107.646 45.4041C107.761 45.4041 107.867 45.1185 108.352 43.4977C108.498 43.0099 108.644 42.6106 108.676 42.6106C108.708 42.6106 108.761 43.2817 108.794 44.1017C108.826 44.9218 108.885 45.6502 108.925 45.7203C108.998 45.8493 110.341 46.2997 110.423 46.223C110.462 46.1868 110.427 45.5543 110.261 43.3484L110.217 42.765L110.525 42.6463C110.984 42.4688 111.355 42.1022 111.63 41.5536C111.829 41.1555 111.876 40.9632 111.876 40.5344C111.876 39.4225 111.359 38.9293 109.618 38.3826C108.577 38.0554 108.437 38.0318 108.389 38.1751ZM104.074 38.494C104.409 38.8406 104.415 39.8475 104.088 41.0615C103.785 42.1908 103.335 42.8381 102.855 42.836C102.545 42.8346 102.478 42.796 102.266 42.4974C101.964 42.071 102.113 40.417 102.55 39.3523C102.977 38.3133 103.574 37.977 104.074 38.494ZM48.6583 39.2731C49.4446 39.9823 49.8584 41.733 49.4646 42.6841C49.3252 43.0208 48.8305 43.4325 48.7117 43.3106C48.6537 43.2511 47.6556 39.1673 47.6556 38.9897C47.6556 38.7849 48.3277 38.9749 48.6583 39.2731ZM109.968 39.8514C110.49 40.1011 110.487 40.9088 109.962 41.3546C109.746 41.538 109.659 41.5646 109.387 41.5308C109.21 41.5088 109.049 41.4755 109.028 41.4568C109.008 41.438 109.089 41.1209 109.208 40.7521C109.326 40.3832 109.442 40.005 109.464 39.9116C109.512 39.7143 109.648 39.6981 109.968 39.8514ZM114.016 40.0647C113.616 40.2746 113.233 40.8289 113.179 41.2778C113.069 42.1786 113.88 43.0677 114.806 43.062C115.456 43.058 116.146 42.5283 116.341 41.8851C116.475 41.4408 116.401 41.0084 116.118 40.5843C115.808 40.1202 115.374 39.8952 114.789 39.8952C114.474 39.8952 114.243 39.9458 114.016 40.0647ZM115.492 40.5047C115.951 40.9014 116.061 41.4748 115.776 41.9908C115.621 42.2724 115.307 42.5873 115.242 42.527C115.223 42.5092 115.182 42.3169 115.15 42.0996C115.103 41.7701 115.115 41.7046 115.221 41.7046C115.391 41.7046 115.686 41.3477 115.686 41.1425C115.686 41.0521 115.614 40.9071 115.527 40.8203C115.34 40.6348 114.557 40.3753 114.468 40.4695C114.434 40.5052 114.29 40.8697 114.147 41.2796C113.947 41.8526 113.909 42.0488 113.981 42.1289C114.141 42.3073 114.283 42.2445 114.384 41.95C114.517 41.5641 114.608 41.4932 114.662 41.7314C114.687 41.8413 114.728 42.0245 114.753 42.1388C114.778 42.253 114.879 42.405 114.977 42.4768C115.153 42.6056 115.151 42.6073 114.789 42.6087C113.849 42.6122 113.367 41.7573 113.821 40.8906C114.057 40.4389 114.391 40.2528 114.893 40.2929C115.159 40.3141 115.35 40.3814 115.492 40.5047ZM115.145 41.0419C115.281 41.2422 115.097 41.3783 114.838 41.269C114.69 41.2065 114.65 41.1438 114.683 41.0255C114.737 40.8351 115.012 40.8449 115.145 41.0419ZM75.1042 44.2397C71.3442 44.3488 65.7833 44.7903 62.216 45.263C61.5879 45.3463 60.8538 45.4437 60.5846 45.4795C59.0161 45.688 57.904 45.8657 55.4048 46.3066C53.4742 46.6474 50.9323 47.1605 49.7764 47.4427C49.6194 47.481 48.6467 47.7178 47.6148 47.9688C43.6578 48.9315 38.5151 50.5136 36.2824 51.4552C36.167 51.5039 36.0725 51.5719 36.0725 51.6064C36.0725 51.7705 36.5961 52.7274 36.686 52.7274C36.7422 52.7274 37.4622 52.4756 38.2861 52.1678C42.0945 50.745 48.3938 49.0219 53.2024 48.0876C65.0535 45.7849 76.6358 45.0239 87.6662 45.8235C90.6808 46.042 95.3882 46.5997 97.5363 46.9929C97.7606 47.0339 98.3112 47.1339 98.7598 47.2151C101.616 47.732 104.105 48.267 106.142 48.8017C110.292 49.8912 114.054 51.0867 117.073 52.2754C117.885 52.5955 118.197 52.6868 118.263 52.6239C118.356 52.535 118.704 51.677 118.704 51.5367C118.704 51.3411 112.916 49.3803 109.853 48.5386C109.45 48.4276 109.028 48.3064 108.915 48.2695C108.228 48.0424 103.044 46.8302 101.492 46.5337C101.021 46.4437 100.489 46.3414 100.31 46.3064C95.5711 45.3814 90.409 44.7346 84.9335 44.3798C83.2958 44.2736 77.0185 44.1842 75.1042 44.2397Z" fill="white"/>
</svg>
