<svg width="32" height="31" viewBox="0 0 32 31" fill="none" xmlns="http://www.w3.org/2000/svg">
<path d="M9.70234 0.0628052C7.04037 0.36318 4.54092 1.76878 2.78046 3.95613C1.0587 6.08957 0.15332 8.69283 0.15332 11.5156C0.15332 14.088 0.884586 16.4371 2.3239 18.5051C3.10547 19.6257 4.33198 20.7849 5.48885 21.4973C5.8719 21.7322 6.65733 22.1327 6.98234 22.2636C7.67104 22.5294 8.10438 22.6603 8.7544 22.7989L9.23804 22.899L9.25739 25.691L9.27673 28.4791L9.37733 28.6909C9.51662 28.9913 9.6946 29.1761 9.96931 29.3148C10.1744 29.4187 10.2479 29.4341 10.5149 29.438C10.7702 29.438 10.8631 29.4226 11.0449 29.3379C11.308 29.2146 11.25 29.2724 13.4167 27.0157C14.3724 26.0183 15.1694 25.1865 15.1926 25.1673C15.2158 25.1442 15.2932 25.0633 15.3629 24.9863L15.4944 24.8476L15.4093 24.4317C14.7167 20.9158 16.5314 17.3459 19.793 15.8133C20.5359 15.4628 20.9306 15.3319 21.7547 15.1663C22.1532 15.0893 22.308 15.0777 23.1863 15.0777C24.1187 15.0777 24.2 15.0854 24.6913 15.1856C25.3917 15.3319 26.0455 15.5514 26.6491 15.8479C27.6048 16.3177 28.2509 16.7991 29.0441 17.6348C29.2531 17.8543 29.2724 17.8658 29.3227 17.8042C29.4156 17.6771 29.9843 16.5488 30.1236 16.2138C30.7465 14.7003 31.0483 13.1676 31.0483 11.4963C31.0561 7.86487 29.462 4.45291 26.742 2.27326C25.1905 1.0294 23.3913 0.27846 21.4451 0.0589542C20.7139 -0.0219154 10.4297 -0.0180645 9.70234 0.0628052ZM22.308 6.45541C22.5092 6.52473 22.6446 6.67107 22.7181 6.90212C22.8071 7.17169 22.6252 7.53368 22.3467 7.64921C22.1609 7.73008 9.04458 7.73008 8.85886 7.64921C8.69249 7.5799 8.53386 7.3912 8.47969 7.1948C8.40231 6.90598 8.61511 6.54013 8.9169 6.44386C9.00589 6.41305 11.0836 6.4015 15.5873 6.39765C21.4954 6.3938 22.1455 6.4015 22.308 6.45541ZM22.5285 11.2691C22.6098 11.3577 22.6949 11.4963 22.7181 11.5811C22.7916 11.8468 22.6562 12.1433 22.397 12.2935L22.2383 12.3821H15.6028H8.9672L8.80857 12.2935C8.5532 12.1471 8.41391 11.8468 8.48743 11.5849C8.52999 11.4232 8.72345 11.1805 8.84726 11.1305C8.89369 11.1112 11.9542 11.0997 15.6531 11.1035L22.3776 11.1112L22.5285 11.2691ZM15.3048 15.3434C15.4673 15.4089 15.626 15.5976 15.684 15.7902C15.7769 16.0944 15.5563 16.4679 15.2352 16.5565C15.0185 16.6143 9.14518 16.6143 8.92851 16.5565C8.61511 16.4679 8.39844 16.0982 8.48356 15.7902C8.53386 15.6053 8.69249 15.4128 8.85113 15.3434C9.02524 15.2664 15.123 15.2664 15.3048 15.3434Z" fill="white"/>
<path d="M23.1277 16.9421C23.0426 16.9806 22.911 17.0692 22.8414 17.1424C22.6208 17.3619 22.5938 17.4697 22.5705 18.2283L22.5473 18.9138L22.2378 19.0216C22.0675 19.0794 21.8393 19.1757 21.7271 19.2296C21.6149 19.2873 21.5027 19.3336 21.4756 19.3336C21.4524 19.3336 21.2086 19.1179 20.9416 18.8522C20.6631 18.5788 20.3922 18.3477 20.311 18.3131C20.1291 18.2399 19.7809 18.2399 19.599 18.3131C19.394 18.3978 18.5505 19.2334 18.4538 19.4491C18.3532 19.6724 18.3532 19.9613 18.4538 20.1808C18.5079 20.2925 18.6975 20.5158 19.0032 20.8162C19.2624 21.0703 19.4714 21.2976 19.4714 21.3245C19.4714 21.3515 19.4095 21.4978 19.3359 21.6518C19.2624 21.8059 19.1657 22.0408 19.1193 22.1717L19.0341 22.4143H18.4112C17.9895 22.4182 17.7419 22.4336 17.6413 22.4682C17.3898 22.5607 17.1963 22.7186 17.0918 22.9265C16.999 23.1152 16.9951 23.1499 16.9951 23.7968C16.9951 24.5478 17.0261 24.6749 17.2582 24.9021C17.4865 25.1331 17.6026 25.1601 18.3571 25.1793L19.038 25.1947L19.1193 25.4335C19.1657 25.5606 19.2663 25.7955 19.3398 25.9534L19.4752 26.2383L19.0148 26.7043C18.7517 26.9662 18.5118 27.2473 18.4615 27.3436C18.3377 27.5939 18.3454 27.8943 18.4847 28.1484C18.6202 28.391 19.3746 29.1343 19.5758 29.219C19.7654 29.2999 20.1446 29.2999 20.3342 29.219C20.4193 29.1843 20.6863 28.9533 20.9571 28.6914L21.433 28.2293L21.7387 28.3679C21.905 28.4488 22.1565 28.5489 22.2958 28.5951L22.5473 28.6799L22.5705 29.3692C22.5938 30.1317 22.6208 30.2395 22.8414 30.459C23.0813 30.6978 23.2051 30.7324 23.9247 30.7324C24.6521 30.7324 24.8224 30.6939 25.039 30.4898C25.2828 30.2588 25.3138 30.1394 25.3138 29.4C25.3138 28.9186 25.3254 28.7299 25.364 28.703C25.3873 28.6799 25.5227 28.6259 25.662 28.5797C25.8013 28.5335 26.0373 28.4372 26.1843 28.3679L26.4551 28.2408L26.9581 28.7299C27.4379 29.1959 27.4727 29.2228 27.6817 29.2652C28.1305 29.3576 28.3355 29.2575 28.9391 28.6452C29.3106 28.264 29.3763 28.1754 29.4305 27.9982C29.5079 27.7441 29.5079 27.7133 29.4305 27.4552C29.3763 27.2704 29.3106 27.1895 28.8927 26.7659L28.4129 26.2846L28.5329 26.0381C28.5986 25.9033 28.6992 25.6607 28.7573 25.499L28.8656 25.2063L29.5543 25.1832C30.1579 25.1639 30.2662 25.1524 30.4055 25.0792C30.6067 24.9791 30.835 24.7172 30.8853 24.5362C30.9046 24.4592 30.924 24.1203 30.924 23.7814C30.924 23.2153 30.9163 23.1499 30.8311 22.9727C30.7228 22.7455 30.5758 22.5992 30.363 22.5029C30.243 22.4528 30.0612 22.4297 29.535 22.4143L28.8656 22.3951L28.7418 22.0677C28.6722 21.8868 28.5638 21.6403 28.5058 21.5209L28.3936 21.3014L28.8656 20.82C29.4653 20.2077 29.5582 19.9998 29.4344 19.5723C29.3763 19.3759 29.3222 19.3066 28.9004 18.8791C28.3742 18.3516 28.2195 18.2553 27.8906 18.2553C27.5695 18.2553 27.4108 18.3516 26.8769 18.8791L26.4087 19.3413L26.2578 19.2642C26.1766 19.2219 25.9599 19.1333 25.778 19.0678C25.5962 18.9985 25.4221 18.9292 25.3911 18.9138C25.3447 18.8868 25.3292 18.7521 25.3138 18.1744C25.2983 17.6006 25.2828 17.4427 25.2286 17.3465C25.1358 17.177 24.8649 16.9537 24.6986 16.9075C24.6212 16.8882 24.273 16.8689 23.9209 16.8689C23.3869 16.8689 23.2554 16.8805 23.1277 16.9421ZM24.6367 21.0896C25.1009 21.2013 25.6581 21.5209 25.9754 21.8598C26.517 22.4413 26.7453 23.0189 26.7453 23.8007C26.7453 24.128 26.726 24.3206 26.6679 24.5247C26.3275 25.7416 25.2325 26.5849 23.9789 26.5926C23.0503 26.5965 22.2455 26.1921 21.6768 25.4373C21.2357 24.8481 21.0461 24.0163 21.1893 23.3039C21.2782 22.8687 21.3788 22.6223 21.5955 22.2911C22.261 21.2821 23.4604 20.8085 24.6367 21.0896Z" fill="white"/>
<path d="M23.6374 22.4759C23.2118 22.5798 22.8791 22.8571 22.6895 23.2615C22.6082 23.4347 22.5928 23.531 22.5928 23.8006C22.5928 24.0779 22.6121 24.1664 22.7011 24.3667C22.9565 24.9251 23.5562 25.2486 24.1675 25.1484C24.6086 25.0791 24.9568 24.8365 25.1619 24.4514C25.2702 24.2512 25.2934 24.1549 25.3089 23.9084C25.3321 23.5426 25.278 23.3154 25.1038 23.0458C24.802 22.576 24.1907 22.3372 23.6374 22.4759Z" fill="white"/>
</svg>
