<svg width="33" height="29" viewBox="0 0 33 29" fill="none" xmlns="http://www.w3.org/2000/svg">
<path d="M14.4811 0.952969C11.1127 1.83227 9.07003 4.67308 9.07003 8.43378C9.07003 9.51599 9.07003 9.52952 8.73184 9.52952C8.33954 9.52952 7.85254 9.96241 7.85254 10.3006C7.85254 10.8011 8.2719 13.9531 8.39365 14.4265C8.55598 15.0218 8.84006 15.1435 9.88169 15.0894L10.6257 15.0623L10.8692 15.7793C11.0721 16.361 11.3427 16.7127 12.3302 17.6732C13.9535 19.2559 14.914 19.7429 16.4426 19.7429C17.4031 19.7429 17.6195 19.6888 18.3365 19.2965C18.7829 19.053 19.4187 18.6201 19.7569 18.3225L20.3656 17.7949L19.8651 17.7814C19.4999 17.7814 19.1617 17.9167 18.7153 18.2278C17.8089 18.8636 17.2408 19.0665 16.3615 19.053C15.3469 19.0395 14.3999 18.5795 13.1148 17.4703C11.992 16.5098 11.3697 15.5223 11.3697 14.6971C11.3697 14.4536 11.2074 13.9801 11.018 13.6555C10.761 13.1955 10.6934 12.9114 10.7204 12.4109C10.761 11.8428 10.788 11.7616 11.0451 11.8022C11.2615 11.8292 11.4644 11.6534 11.8567 11.0581C13.1689 9.06958 14.0347 8.51494 16.118 8.2985C17.5113 8.16322 18.0795 7.97384 18.6341 7.47331C18.9994 7.13512 19.3511 7.20276 20.2439 7.79798C21.1367 8.40672 21.3667 8.86666 21.529 10.3682C21.6102 11.1664 21.7319 11.6804 21.8672 11.7751C22.2054 12.0457 22.1107 12.9791 21.6643 13.4796C21.3667 13.8313 21.272 14.1019 21.2044 14.7647C21.1367 15.6305 21.2449 15.8334 21.5426 15.3464C21.7184 15.0759 22.3272 14.9676 22.3272 15.2111C22.3272 15.4682 22.016 16.0093 21.7996 16.104C21.6778 16.1446 20.8391 16.2257 19.9192 16.2663C18.4312 16.3204 18.2418 16.3069 17.9848 16.0769C17.7683 15.874 17.4978 15.8199 16.8214 15.8199C16.0233 15.8199 15.915 15.8605 15.6174 16.1987C15.1981 16.6857 15.2116 16.7668 15.6851 17.2538C16.0233 17.5785 16.1856 17.6461 16.7808 17.6461C17.1596 17.6461 17.6331 17.565 17.836 17.4567C18.0389 17.362 18.9047 17.2403 19.8245 17.1862C22.3407 17.0374 22.8277 16.8209 23.1659 15.7252C23.2606 15.387 23.3958 15.2111 23.5447 15.2111C23.6799 15.2111 23.9234 15.1029 24.0993 14.9676C24.3563 14.7512 24.4375 14.4536 24.6404 13.0332C25.0598 10.1112 24.9786 9.74596 23.8964 9.5701C23.4635 9.50246 23.4094 9.46188 23.4905 9.20485C23.5447 9.05605 23.5852 8.33908 23.5852 7.63564C23.5717 5.53885 22.963 4.07786 21.5155 2.71157C20.6362 1.87285 19.2428 1.14235 18.0254 0.88533C17.0514 0.682415 15.3875 0.709471 14.4811 0.952969ZM18.0389 1.88638C19.2023 2.18399 20.1221 2.71157 20.9338 3.5097C21.7049 4.29431 21.9213 4.7813 21.2314 4.18608C19.7975 2.99565 17.3625 2.41396 15.428 2.81979C14.0888 3.10387 13.1419 3.57734 12.1679 4.48369C11.2886 5.30888 10.8151 6.01232 10.4634 7.04043C10.1658 7.93325 10.0846 7.60859 10.3416 6.49932C11.0315 3.57734 13.3042 1.71052 16.2397 1.69699C16.8079 1.68346 17.6195 1.77816 18.0389 1.88638Z" fill="white"/>
<path d="M11.3707 20.3385C10.5861 20.7579 9.67977 21.0149 6.97424 21.556C3.72759 22.2189 2.9971 22.4894 2.09074 23.3823C1.17086 24.3022 0.724446 25.5467 0.34567 28.2252L0.250977 28.8745H16.376H32.501L32.4063 28.2387C31.9328 24.8838 31.1753 23.3687 29.5925 22.5841C29.1596 22.3812 27.7528 22.0024 26.0483 21.6372C23.0857 21.0014 22.1929 20.7579 21.3542 20.3385C21.0701 20.1897 20.8266 20.0815 20.7995 20.0815C20.7725 20.0815 20.2719 21.4749 19.6767 23.1929C19.095 24.8974 18.5675 26.2501 18.5269 26.196C18.4863 26.1419 18.1887 25.3573 17.864 24.4374L17.2823 22.7735L17.6341 22.4083C18.1481 21.8807 18.2428 21.272 17.8776 20.9067C17.6341 20.6632 17.4311 20.6226 16.5383 20.6226C15.8078 20.6226 15.402 20.6903 15.1855 20.8391C14.7527 21.1367 14.7932 21.7319 15.2938 22.2865L15.6996 22.7465L15.0638 24.5457C14.4956 26.169 14.428 26.3043 14.2792 26.0066C14.198 25.8443 13.6434 24.4374 13.0617 22.8817C12.48 21.3396 11.966 20.0815 11.9254 20.0815C11.8848 20.095 11.6278 20.2033 11.3707 20.3385Z" fill="white"/>
</svg>
