<svg width="16" height="8" viewBox="0 0 16 8" fill="none" xmlns="http://www.w3.org/2000/svg">
<path opacity="0.34" d="M1.34901 0.214988C1.27268 0.146314 1.18288 0.092627 1.08476 0.056991C0.986632 0.0213551 0.882095 0.0044684 0.777115 0.00729605C0.672135 0.0101232 0.568768 0.032609 0.472916 0.0734691C0.377063 0.114329 0.290603 0.172763 0.218471 0.245435C0.146339 0.318108 0.0899475 0.403595 0.052517 0.497015C0.0150866 0.590436 -0.00265021 0.68996 0.000319525 0.789907C0.00328926 0.889853 0.0269073 0.988265 0.0698251 1.07952C0.112743 1.17078 0.17412 1.25309 0.250452 1.32177L7.44623 7.79193C7.59468 7.92555 7.79122 8 7.99551 8C8.1998 8 8.39634 7.92555 8.54478 7.79193L15.7414 1.32177C15.8194 1.25355 15.8824 1.17125 15.9267 1.07966C15.971 0.988064 15.9957 0.889003 15.9995 0.788224C16.0033 0.687446 15.9859 0.586961 15.9486 0.492605C15.9112 0.39825 15.8545 0.311905 15.7818 0.238586C15.7091 0.165267 15.6218 0.106436 15.525 0.0655091C15.4282 0.0245826 15.3238 0.00237678 15.2179 0.000180949C15.112 -0.00201488 15.0067 0.0158436 14.9081 0.0527189C14.8095 0.0895946 14.7196 0.144752 14.6436 0.214987L7.99551 6.1919L1.34901 0.214988Z" fill="black"/>
</svg>
