<svg width="34" height="33" viewBox="0 0 34 33" fill="none" xmlns="http://www.w3.org/2000/svg">
<path d="M4.0258 0.511073C3.02593 0.938554 2.44629 1.80076 2.44629 2.88034C2.44629 4.04685 3.15634 4.98152 4.30112 5.31481C5.1416 5.55391 6.11973 5.30032 6.75009 4.66996C7.9963 3.4165 7.63403 1.33705 6.03279 0.561791C5.48938 0.300954 4.5837 0.279218 4.0258 0.511073Z" fill="white"/>
<path d="M4.13419 6.24221C3.40964 6.48131 2.72132 7.06819 2.42426 7.72029C2.24312 8.10429 2.24312 8.31441 2.3663 10.8865C2.40977 11.7198 2.446 13.5384 2.446 14.915C2.446 16.2989 2.48222 17.5958 2.51845 17.8132C2.59091 18.19 2.6851 18.4001 3.14881 19.255C3.26473 19.4724 3.46036 19.9723 3.56904 20.3636L3.77191 21.0809L3.6415 21.5953C3.44587 22.3778 2.94593 23.6603 2.06923 25.66C0.982415 28.138 0.598406 29.1813 0.511461 29.8914C0.402779 30.855 1.07661 31.6158 2.1272 31.7027C2.63438 31.739 3.0039 31.6448 3.3227 31.3767C3.59078 31.1448 3.75018 30.8333 3.99652 30.0653C4.29359 29.1234 4.61239 28.3916 5.62675 26.3773C6.66285 24.2979 7.14105 23.1603 7.38015 22.2039L7.53955 21.5591L7.71344 21.7692C9.41612 23.7762 10.5681 26.4208 10.9594 29.1813C11.1043 30.2319 11.184 30.4855 11.4521 30.8188C12.0897 31.5868 13.5243 31.6448 14.1329 30.9275C14.5314 30.4493 14.5459 29.9421 14.2126 28.0945C13.6692 25.1311 12.423 22.3633 10.5681 20.0158C10.0392 19.342 8.68433 17.9509 8.11919 17.5016L7.66272 17.1394V15.1686V13.1978L8.38002 13.4297C9.93055 13.9441 11.9448 14.2484 12.9157 14.1253C13.2345 14.0818 13.5026 14.0528 13.5098 14.0601C13.517 14.0673 15.0458 17.0742 16.9007 20.7331L20.2843 27.3844L20.0307 27.6525C19.4511 28.2467 19.1613 29.232 19.3062 30.087C19.4076 30.6956 19.6395 31.1593 20.0452 31.5941C20.6828 32.2751 21.3929 32.5505 22.3565 32.4925C23.4288 32.4273 24.2983 31.8404 24.7765 30.8623C25.0011 30.413 25.0156 30.3333 25.0156 29.616C25.0156 28.9495 24.9938 28.8046 24.8272 28.4568C24.7258 28.2322 24.5301 27.9279 24.3997 27.7829C24.2693 27.6308 24.1824 27.4931 24.1968 27.4714C24.2186 27.4569 26.298 26.4788 28.8267 25.2978C31.3554 24.124 33.4493 23.1314 33.4855 23.0951C33.5145 23.0662 33.5 22.8343 33.442 22.5735C33.3696 22.2474 33.3116 22.1242 33.2319 22.1387C33.174 22.1532 30.8554 23.2183 28.0804 24.508C23.1535 26.7903 23.0158 26.8483 22.755 26.7758C22.4942 26.7034 21.5885 26.7324 21.3566 26.8193C21.2769 26.8483 20.422 25.305 17.7556 20.2477L14.2561 13.6326L14.401 13.35C14.6836 12.7993 14.5459 11.8719 14.1112 11.343C13.7272 10.8793 13.3721 10.7634 12.2781 10.7416C10.9449 10.7127 9.66247 10.3794 8.16266 9.67656L7.5323 9.38674L7.48159 8.90129C7.35117 7.61885 6.84399 6.78562 5.93106 6.35089C5.51082 6.15527 4.57616 6.0973 4.13419 6.24221ZM22.4217 28.7538C22.9216 28.9422 23.2042 29.4711 23.0231 29.8986C22.6898 30.7101 21.7261 30.7391 21.3349 29.9566C21.1175 29.5146 21.3349 28.9929 21.8203 28.7756C22.0957 28.6596 22.1609 28.6524 22.4217 28.7538Z" fill="white"/>
<path d="M25.3413 10.1694C24.3052 10.6693 23.6459 11.0316 23.6604 11.0896C23.6749 11.133 24.9428 13.7776 26.4789 16.9511L29.2684 22.7185L29.79 22.4794C31.0435 21.8998 32.7317 21.0593 32.7317 21.0231C32.7317 20.9506 27.1599 9.44484 27.0947 9.39412C27.0658 9.36514 26.276 9.71292 25.3413 10.1694Z" fill="white"/>
<path d="M19.6547 13.2053C17.8216 14.0965 16.2928 14.8355 16.2638 14.85C16.1769 14.8862 18.8359 20.342 18.9301 20.342C19.0678 20.342 25.7843 17.0599 25.7626 17.0091C25.5307 16.4367 23.1108 11.575 23.06 11.5823C23.0238 11.5823 21.4878 12.3141 19.6547 13.2053Z" fill="white"/>
<path d="M22.733 19.3638C20.8781 20.2622 19.3349 21.0302 19.2986 21.0664C19.2552 21.1099 19.7334 22.175 20.5159 23.798C21.2259 25.2616 21.8345 26.4933 21.8635 26.5223C21.8997 26.5657 28.609 23.3995 28.7395 23.2691C28.7684 23.2401 28.4424 22.5518 26.9208 19.4217L26.1021 17.7335L22.733 19.3638Z" fill="white"/>
</svg>
