<svg width="35" height="36" viewBox="0 0 35 36" fill="none" xmlns="http://www.w3.org/2000/svg">
<path d="M29.737 0.28035C29.2811 0.349392 28.9164 0.535801 28.5868 0.860294C27.7381 1.69569 27.7381 2.99366 28.5868 3.82905L28.9024 4.14664V8.94498C28.9024 14.2335 28.9234 13.9919 28.4675 14.1438C28.3273 14.1921 27.17 14.2197 25.1149 14.2197H21.9798L21.559 13.8538C19.4197 11.9759 16.9649 10.9403 14.0612 10.6917C12.1815 10.5329 10.2247 10.8298 8.40811 11.5547C7.9943 11.7204 7.65062 11.8447 7.63659 11.8378C7.62257 11.824 7.62958 11.1267 7.65062 10.2844L7.68569 8.75166L7.88208 8.58596L8.07846 8.42027H12.2166H16.3547L16.6984 8.76547C17.1613 9.22804 17.5821 9.41446 18.1713 9.41446C18.7745 9.41446 19.1111 9.30399 19.539 8.9864C20.058 8.59977 20.3666 7.9784 20.3596 7.32252C20.3596 6.45951 19.9458 5.81743 19.1743 5.4377C18.7745 5.24439 18.6412 5.21677 18.2134 5.22368C17.6172 5.23058 17.2174 5.38937 16.7615 5.78291L16.4389 6.06597L12.0623 6.09359C7.39111 6.1143 7.53139 6.1074 6.84404 6.46641C6.4162 6.68734 5.9603 7.1223 5.7078 7.52964C5.301 8.19934 5.26593 8.4686 5.26593 11.03V13.3291L5.04149 13.5155C2.87424 15.2622 1.26808 17.9065 0.699963 20.6819C0.482535 21.7451 0.433439 23.8509 0.60177 24.8589C0.924404 26.8197 1.54863 28.4283 2.58667 29.961C4.55754 32.8814 7.63659 34.8215 11.1926 35.3807C12.406 35.574 14.3137 35.5257 15.6323 35.2841C16.8737 35.0493 18.4589 34.428 19.6512 33.7168L20.051 33.4821H25.5358H31.0276L31.3712 33.7997C31.8412 34.2277 32.262 34.4072 32.8301 34.4072C33.4193 34.4141 33.7699 34.3037 34.1978 33.9792C34.4433 33.7997 34.6186 33.5857 34.7799 33.275C35.0044 32.8469 35.0184 32.7986 34.9903 32.2394C34.9553 31.5697 34.815 31.2245 34.3942 30.8171C34.0014 30.4236 33.4613 30.2165 32.8722 30.2165C32.255 30.2165 31.8412 30.3822 31.3642 30.824L31.0276 31.1347H26.8754H22.7232L23.102 30.6652C24.3925 29.0704 25.2482 27.0958 25.6129 24.8865C25.7392 24.1547 25.7392 21.9316 25.6199 21.2619C25.3534 19.7775 24.8274 18.2448 24.2102 17.1746L23.8735 16.5809L26.3353 16.5464C28.3413 16.5257 28.8603 16.498 29.1268 16.4083C30.2069 16.0493 31.0065 15.1587 31.2169 14.0885C31.259 13.8607 31.2871 11.8999 31.2871 8.93117V4.13973L31.5676 3.89119C31.8832 3.60812 32.1848 3.04198 32.2409 2.60012C32.3391 1.90281 31.9814 1.09503 31.3712 0.639362C30.9434 0.321777 30.3332 0.183693 29.737 0.28035ZM12.2797 14.7375V16.4221L12.0553 16.4566C11.929 16.4773 11.5222 16.5119 11.1575 16.5326C10.7928 16.5533 10.2808 16.6016 10.0213 16.643C9.21469 16.7673 9.22171 16.7742 9.5724 16.0355C10.1896 14.772 10.9331 13.8331 11.7467 13.3084C11.9781 13.1634 12.1885 13.046 12.2236 13.046C12.2517 13.046 12.2797 13.8055 12.2797 14.7375ZM15.0011 13.7019C15.1764 13.8538 15.5061 14.2197 15.7305 14.5235C16.1513 15.0758 16.9719 16.6016 16.8878 16.6776C16.8667 16.6983 16.4249 16.6706 15.9058 16.6085C15.3868 16.5464 14.7907 16.498 14.5732 16.498C13.9139 16.498 13.963 16.6361 13.963 14.7237V13.0391L14.3207 13.2324C14.5171 13.336 14.8257 13.5431 15.0011 13.7019ZM8.87102 13.9228C8.48526 14.489 7.81194 15.8353 7.5384 16.6154L7.335 17.1746L6.80897 17.3265C6.08655 17.5337 4.85914 18.0308 4.16477 18.4036C3.84214 18.5762 3.58263 18.6935 3.58263 18.6728C3.58263 18.6521 3.74394 18.3552 3.94033 18.01C4.93629 16.2702 6.44425 14.8342 8.28186 13.8814C8.72373 13.6536 9.1165 13.4602 9.14456 13.4602C9.17261 13.4602 9.05338 13.6674 8.87102 13.9228ZM18.3537 14.0885C19.9598 14.993 21.6501 16.7397 22.4918 18.3691C22.6671 18.7212 22.6531 18.7764 22.4006 18.6038C21.9167 18.2724 20.2684 17.5751 19.3145 17.292L18.8797 17.1677L18.6202 16.4704C18.3186 15.6557 17.7855 14.5718 17.4068 14.0195C17.2595 13.8055 17.1192 13.5914 17.0912 13.5431C17.028 13.4326 17.7084 13.7295 18.3537 14.0885ZM12.2797 20.2263V22.3665H10.2107C9.07442 22.3665 8.14159 22.3458 8.14159 22.3113C8.15561 21.4552 8.5554 18.7074 8.69567 18.5555C8.78685 18.4588 11.1295 18.1343 12.0553 18.0929L12.2797 18.086V20.2263ZM15.6113 18.231C15.962 18.2655 16.5301 18.3483 16.8878 18.4105L17.533 18.5209L17.6382 19.0111C17.8136 19.7844 17.9609 20.82 18.01 21.6209L18.0521 22.3665H16.011H13.963V20.2193V18.0791L14.475 18.1205C14.7486 18.1412 15.2676 18.1895 15.6113 18.231ZM6.84404 19.2044C6.74584 19.6394 6.60557 20.7579 6.56348 21.3999C6.53543 21.8004 6.50036 22.1801 6.48633 22.2422C6.45126 22.3596 6.29696 22.3665 4.51546 22.3665H2.57966L2.62875 22.042C2.74097 21.2135 4.11567 20.1296 6.07252 19.3218C6.82299 19.0111 6.89313 19.0042 6.84404 19.2044ZM19.8686 19.2183C21.1662 19.6946 22.4146 20.4679 23.123 21.2135C23.4877 21.6002 23.5719 21.7382 23.5719 21.9178C23.5719 22.0489 23.5929 22.1939 23.614 22.2561C23.6561 22.3527 23.4527 22.3665 21.6922 22.3665H19.7284L19.6793 21.6209C19.6512 21.2135 19.5741 20.4886 19.4969 20.0053C19.3496 19.0318 19.3496 19.0526 19.3987 19.0526C19.4127 19.0526 19.6302 19.1285 19.8686 19.2183ZM6.48633 24.1409C6.50036 24.2099 6.53543 24.5896 6.56348 24.9832C6.59154 25.3767 6.66869 26.0602 6.73883 26.5021C6.80195 26.9439 6.85105 27.3098 6.84404 27.3237C6.80897 27.3651 5.79197 26.9439 5.11865 26.6056C4.23491 26.1638 3.63172 25.7219 3.07763 25.1351C2.79007 24.8382 2.67084 24.6518 2.67084 24.5206C2.67084 24.417 2.64979 24.2651 2.62875 24.1754L2.58667 24.0235H4.51546C6.29696 24.0235 6.45126 24.0304 6.48633 24.1409ZM12.2797 26.1638V28.3109L12.0553 28.2764C11.929 28.2557 11.5222 28.2212 11.1575 28.1936C10.7928 28.1729 10.0844 28.0831 9.57941 28.0072L8.66762 27.8553L8.51332 27.0613C8.36603 26.2949 8.26783 25.5631 8.17665 24.5206L8.13457 24.0235H10.2036H12.2797V26.1638ZM18.031 24.4239C18.031 25.2524 17.6523 27.6758 17.498 27.8207C17.4068 27.9036 15.8076 28.1521 15.0502 28.2005C14.7065 28.2212 14.3137 28.2557 14.1945 28.2764L13.963 28.3109V26.1638V24.0235H15.997H18.031V24.4239ZM23.5649 24.3756C23.4316 25.2041 21.9868 26.3226 20.037 27.0889C19.6933 27.227 19.3987 27.3306 19.3847 27.3167C19.3707 27.3029 19.4268 26.8749 19.4969 26.364C19.5741 25.8531 19.6582 25.1212 19.6793 24.7277L19.7284 24.0235H21.6782H23.621L23.5649 24.3756ZM5.79197 28.7045C6.10057 28.8218 6.57751 28.9806 6.85105 29.0704L7.34201 29.2223L7.54541 29.7815C7.79791 30.5064 8.41512 31.7906 8.70269 32.2048C8.82192 32.3774 8.9131 32.5431 8.89206 32.5569C8.83595 32.6191 7.92416 32.1358 7.22278 31.6801C6.45828 31.1761 5.04851 29.8298 4.55053 29.1256C4.24192 28.6838 3.7229 27.8415 3.7229 27.7862C3.7229 27.7655 4.05956 27.9243 4.48039 28.1245C4.8942 28.3316 5.48336 28.594 5.79197 28.7045ZM22.3375 28.0762C21.4537 29.5813 20.2965 30.8171 18.9358 31.7216C18.4589 32.0322 17.4348 32.5777 17.3156 32.5846C17.2876 32.5846 17.3787 32.4051 17.519 32.191C17.8346 31.7008 18.4378 30.4512 18.6903 29.747L18.8797 29.2292L19.7985 28.9254C20.3035 28.7597 21.096 28.4283 21.566 28.1936C22.0359 27.9657 22.4427 27.7655 22.4707 27.7586C22.4988 27.7586 22.4427 27.8967 22.3375 28.0762ZM10.1265 29.7539C10.4281 29.7884 11.0383 29.8436 11.4801 29.8713L12.2797 29.9127V31.6318C12.2797 32.5708 12.2517 33.344 12.2236 33.344C12.1956 33.344 12.0132 33.2474 11.8238 33.13C10.9892 32.6122 10.1826 31.6111 9.57941 30.3614C9.40407 29.9955 9.26379 29.6848 9.26379 29.6572C9.26379 29.6365 9.33393 29.6296 9.42511 29.6503C9.50927 29.6641 9.82489 29.7125 10.1265 29.7539ZM16.5301 30.5548C15.8848 31.832 15.0431 32.8055 14.2295 33.2128L13.963 33.344V31.6318V29.9127L14.8257 29.8644C15.2956 29.8298 15.9479 29.7746 16.2776 29.7263C16.6142 29.6848 16.8878 29.6779 16.9018 29.7125C16.9158 29.7401 16.7475 30.1198 16.5301 30.5548Z" fill="white"/>
</svg>
