<svg width="36" height="33" viewBox="0 0 36 33" fill="none" xmlns="http://www.w3.org/2000/svg">
<path d="M17.6715 0.28611C17.1374 0.32538 16.8271 0.376432 16.1556 0.537445C15.3702 0.722021 14.8007 0.953722 14.035 1.38964C12.5112 2.26146 11.1014 3.76555 10.3866 5.28928C9.7583 6.62058 9.4834 8.12468 9.57765 9.71124C9.65619 10.9915 9.8015 11.4706 10.6262 13.2221C10.9836 13.9761 11.5569 15.1975 11.9025 15.9318C12.2481 16.6662 12.8372 17.9111 13.2103 18.7005C13.5833 19.4898 14.0271 20.4245 14.192 20.7818C15.9239 24.4616 16.5051 25.6751 16.6072 25.8282C16.9842 26.378 17.6715 26.7275 18.3744 26.7236C19.1363 26.7236 19.8864 26.3073 20.2359 25.6908C20.3576 25.4708 20.7857 24.5872 21.202 23.6879C21.3237 23.4169 21.6575 22.7101 21.9403 22.1171C22.2191 21.5241 22.655 20.5933 22.9103 20.0553C23.1655 19.5134 23.6525 18.4727 23.9981 17.7383C24.3437 17.0039 24.8267 15.979 25.0702 15.4606C25.3137 14.9422 25.7575 14.0036 26.052 13.3792C26.755 11.8947 26.7981 11.7926 26.9356 11.2664C27.1123 10.5713 27.1791 9.98614 27.1791 9.11824C27.183 6.82087 26.4761 4.93191 24.9838 3.2511C23.3933 1.4564 21.3944 0.46283 19.0028 0.282183C18.4176 0.238983 18.2723 0.238983 17.6715 0.28611ZM19.317 4.73556C20.1181 4.88871 20.9467 5.35997 21.579 6.01973C22.5058 6.99366 22.9142 8.18358 22.7768 9.53452C22.7218 10.1197 22.6236 10.481 22.3998 10.9601C21.9678 11.8672 21.1863 12.6527 20.2791 13.0886C19.7764 13.3281 19.4269 13.4224 18.8221 13.4852C17.4751 13.6187 16.3048 13.2142 15.3152 12.2835C14.7536 11.7494 14.2863 10.9915 14.0978 10.3042C13.9643 9.8212 13.9132 9.15359 13.9721 8.60771C14.031 8.01864 14.1253 7.66913 14.3648 7.17431C15.0089 5.8273 16.3009 4.88086 17.7657 4.6845C18.1192 4.63345 18.9399 4.66094 19.317 4.73556Z" fill="white"/>
<path d="M4.27658 26.7236C2.34442 29.6218 0.75786 32.0056 0.750006 32.0213C0.742152 32.041 8.67497 32.0527 18.375 32.0527C28.075 32.0527 36.0079 32.041 36 32.0213C35.9961 32.0056 34.4056 29.6218 32.4734 26.7236L28.9586 21.4495H26.6024H24.2421L23.8534 22.2977C23.6374 22.7611 23.4567 23.1617 23.4489 23.1813C23.441 23.201 24.3442 23.2167 25.7462 23.2167H28.0593L30.392 26.7158C31.6762 28.644 32.7365 30.2345 32.7405 30.2502C32.7483 30.2698 26.2843 30.2855 18.375 30.2855C10.4657 30.2855 4.00168 30.2737 4.00953 30.2541C4.01738 30.2384 5.07378 28.6479 6.35796 26.7236L8.69461 23.2206L11.0155 23.2088L13.3365 23.197L12.9241 22.3213L12.5118 21.4495H10.1516H7.79136L4.27658 26.7236Z" fill="white"/>
</svg>
