<svg width="32" height="30" viewBox="0 0 32 30" fill="none" xmlns="http://www.w3.org/2000/svg">
<path d="M28.0595 2.3213C26.2901 3.12325 24.7817 3.82972 24.7053 3.88701C24.6035 3.95702 24.5589 4.05249 24.5589 4.20524C24.5589 4.51074 24.6862 4.56802 25.7046 4.77806C26.1756 4.87353 26.6211 4.97536 26.6847 5.00082C26.7866 5.03901 26.3665 5.50362 24.0816 7.90309C22.5859 9.47516 21.3384 10.7672 21.313 10.7799C21.2939 10.7863 19.9891 10.1625 18.4234 9.38606C16.8514 8.61593 15.4766 7.96674 15.3684 7.94765C15.2538 7.92855 15.0629 7.94128 14.9356 7.97947C14.7701 8.02402 0.411489 17.0364 0.252373 17.1955C0.214185 17.2337 0.971577 18.322 1.03522 18.3156C1.06068 18.3156 4.25573 16.3044 8.13816 13.854C12.0142 11.3973 15.222 9.39242 15.2602 9.39242C15.2984 9.39242 16.6159 10.0352 18.1943 10.8245C21.2748 12.3647 21.2875 12.3647 21.8221 12.1547C22.0194 12.0783 22.7196 11.3782 24.9472 9.036C26.5256 7.37483 27.8367 6.01916 27.8622 6.01916C27.8876 6.01916 28.034 6.41377 28.1868 6.89112C28.5305 7.99856 28.5687 8.05585 28.8805 8.05585C29.0142 8.05585 29.1606 8.01766 29.1988 7.97311C29.307 7.83308 31.751 1.44298 31.751 1.29023C31.751 1.21386 31.7255 1.11839 31.7001 1.0802C31.6491 1.00382 31.4073 0.863802 31.3245 0.863802C31.2991 0.863802 29.8289 1.52572 28.0595 2.3213Z" fill="white"/>
<path d="M24.3741 13.8285L22.3311 15.967L22.3438 22.5926L22.3629 29.2182L24.4187 29.2373L26.4681 29.25V20.4668C26.4681 15.636 26.4553 11.6836 26.4426 11.6836C26.4235 11.6836 25.4943 12.6447 24.3741 13.8285Z" fill="white"/>
<path d="M16.0938 21.517V29.25H18.1304H20.1671V22.5162V15.7888L18.1623 14.7832C17.0612 14.2358 16.1447 13.7839 16.1256 13.7839C16.1065 13.7839 16.0938 17.2654 16.0938 21.517Z" fill="white"/>
<path d="M11.8291 15.6169L9.82422 16.9408V23.0763V29.2182L11.88 29.2373L13.9294 29.25V21.7715C13.9294 17.66 13.9103 14.2931 13.8849 14.2931C13.853 14.2995 12.9302 14.8914 11.8291 15.6169Z" fill="white"/>
<path d="M5.59137 19.703L3.58651 21.0269L3.56742 25.1384L3.55469 29.25H5.59137H7.62806V23.8082C7.62806 20.8169 7.62169 18.3665 7.61533 18.3728C7.6026 18.3728 6.69246 18.9711 5.59137 19.703Z" fill="white"/>
</svg>
