<svg width="110" height="34" viewBox="0 0 110 34" fill="none" xmlns="http://www.w3.org/2000/svg">
<path fill-rule="evenodd" clip-rule="evenodd" d="M78.2612 0.302445C78.2612 0.538987 72.8381 31.5646 72.674 32.2672C72.5772 32.6808 72.5174 32.69 69.9345 32.69C67.9094 32.69 67.3111 32.6353 67.3669 32.4551C67.407 32.326 67.493 31.8462 67.5577 31.3891L67.6756 30.5579L66.7487 31.4186C65.3153 32.7493 64.4177 33.136 62.739 33.1458C58.6749 33.1698 56.6362 29.9097 56.932 23.8595C57.2429 17.5028 58.8912 12.8285 61.5202 10.8495C62.7899 9.89359 64.0402 9.49434 65.7677 9.49341C67.4135 9.49265 68.249 9.82107 69.4249 10.9313C69.8423 11.3254 70.1971 11.6266 70.2131 11.6007C70.229 11.5746 70.6968 9.10148 71.2524 6.10478C71.8078 3.10808 72.3009 0.550635 72.348 0.421373C72.4114 0.247395 73.1881 0.186523 75.3474 0.186523C76.95 0.186523 78.2612 0.238753 78.2612 0.302445ZM17.9708 2.37026C20.3287 2.9371 22.0586 4.2239 22.9922 6.10478C23.4119 6.95081 23.4585 7.27772 23.4594 9.3927C23.4602 11.4047 23.3985 11.8932 23.0282 12.8022C22.49 14.123 21.3306 15.4492 19.927 16.3497L18.8512 17.0398L19.7127 17.7547C20.992 18.8161 21.5324 20.1175 21.6272 22.3665C21.8408 27.4225 19.1098 31.2061 14.3818 32.404C12.8725 32.7865 0.839465 32.8318 0.839844 32.4551C0.839844 32.326 1.30797 29.557 1.88002 26.302C4.14266 13.4252 5.67897 4.58745 5.86467 3.3805C6.10867 1.79347 5.67046 1.89906 11.5799 2.0039C15.2387 2.0689 17.1801 2.18013 17.9708 2.37026ZM11.3468 7.37297C11.3022 7.50224 11.0038 9.08739 10.6839 10.8957C10.364 12.7041 10.054 14.3405 9.99489 14.5324C9.89362 14.8614 10.0204 14.8771 12.2568 14.8142C14.538 14.7498 14.6563 14.7261 15.4466 14.1773C17.0681 13.0511 17.8985 10.489 17.2165 8.71632C16.7391 7.47556 15.9386 7.14771 13.3746 7.14226C11.984 7.13925 11.4051 7.2052 11.3468 7.37297ZM37.9581 9.70984C38.1373 9.88776 37.9104 12.2915 37.4617 14.9675L37.362 15.5633L35.806 15.5312C34.43 15.5026 34.1517 15.5565 33.3983 15.9971C31.7967 16.9341 31.7931 16.9444 30.4539 24.5778C29.7889 28.3678 29.1958 31.7434 29.1362 32.0793L29.0273 32.69H26.0804H23.1335L23.2164 32.1733C23.4636 30.6351 27.0072 10.392 27.0613 10.2098C27.1333 9.96686 30.088 9.70007 31.6 9.79983C32.6313 9.86804 32.6082 9.82539 32.3809 11.2523L32.2491 12.0785L33.1509 11.0829C34.3257 9.78612 35.2406 9.36001 36.6665 9.44549C37.2668 9.48157 37.8479 9.60049 37.9581 9.70984ZM90.6115 9.95446C94.1754 11.2779 95.6894 15.5533 94.7537 21.6519L94.5014 23.2959H88.7718H83.042L82.9372 24.0005C82.7982 24.9352 83.0394 26.3386 83.4447 26.9523C84.5361 28.6056 87.5383 28.602 90.0202 26.9444C91.0147 26.28 91.0195 26.2791 91.3125 26.6667C91.4742 26.8805 91.9374 27.6951 92.3417 28.4769L93.0771 29.8982L92.3627 30.6242C90.525 32.4921 86.9438 33.5341 83.9185 33.0811C81.1879 32.6723 79.166 31.2181 78.0568 28.8653C77.2776 27.2125 77.0618 25.8274 77.1892 23.2959C77.5737 15.6553 80.5511 10.7877 85.5305 9.65949C87.0242 9.32112 89.2547 9.45056 90.6115 9.95446ZM109.822 9.65461C109.886 9.7183 109.773 11.0592 109.571 12.6346L109.204 15.4988L108.261 15.4611C106.703 15.3987 105.779 15.5839 104.981 16.1188C103.608 17.0393 103.512 17.2724 102.792 21.4355C102.427 23.5437 101.865 26.7905 101.543 28.6505C101.222 30.5105 100.914 32.1804 100.86 32.3612C100.772 32.6559 100.459 32.69 97.8405 32.69C96.2338 32.69 94.9191 32.6539 94.9191 32.6097C94.9191 32.5128 97.3266 18.8279 98.2407 13.7294C98.6004 11.723 98.9263 10.0497 98.9651 10.0114C99.0037 9.97288 100.217 9.92365 101.662 9.90204C104.615 9.85751 104.425 9.74404 104.122 11.3654L103.981 12.117L104.84 11.1526C106.06 9.7833 107.004 9.34629 108.512 9.45395C109.168 9.50073 109.758 9.5911 109.822 9.65461ZM44.5393 17.6125C43.8292 21.8235 43.2468 25.5941 43.2451 25.9918C43.2405 26.9735 43.7433 27.9693 44.3155 28.1119C45.3881 28.379 47.1375 27.6469 47.7427 26.6776C47.876 26.4643 48.1064 25.5952 48.255 24.746C48.4035 23.8967 48.9534 20.7501 49.477 17.7534C50.0008 14.7567 50.5248 11.7765 50.6416 11.1306L50.854 9.95634H53.8395H56.8251L56.6649 10.7548C56.5169 11.4938 54.2408 24.4805 53.2567 30.2005L52.8285 32.69H50.0958H47.3632L47.491 31.8445C47.5612 31.3795 47.5799 30.999 47.5324 30.999C47.4849 30.999 47.1603 31.2658 46.811 31.592C45.7139 32.6161 44.3 33.1467 42.6738 33.1444C39.4584 33.1403 37.698 31.127 37.4351 27.1535C37.3315 25.5896 37.4445 24.686 38.6195 17.6905L39.9184 9.95634H42.8742H45.8303L44.5393 17.6125ZM65.8624 14.6838C65.0346 15.1362 64.2333 16.094 63.8648 17.0714C63.0858 19.1379 62.471 25.3964 62.9156 26.7336C63.3783 28.125 64.8105 28.5772 66.3252 27.8103C67.63 27.1495 67.6885 26.9876 68.6946 21.232L69.6235 15.9186L68.8387 15.192C68.1508 14.5551 67.9422 14.4662 67.1475 14.4711C66.6489 14.4743 66.0706 14.5699 65.8624 14.6838ZM85.6289 14.8927C84.7875 15.4554 84.1886 16.365 83.8147 17.6476C83.6472 18.2226 83.47 18.7986 83.4208 18.9277C83.3519 19.1093 83.997 19.1625 86.2657 19.1625C89.6386 19.1625 89.4296 19.2882 89.4296 17.2591C89.4296 15.8594 89.1165 14.9899 88.4935 14.659C87.8278 14.3052 86.3236 14.4279 85.6289 14.8927ZM9.16862 19.4372C9.16862 19.5011 8.87048 21.2613 8.50609 23.3489C8.1417 25.4366 7.84356 27.251 7.84356 27.3808C7.84356 27.5576 8.41825 27.6172 10.1227 27.6172C11.9937 27.6172 12.5275 27.5529 13.1041 27.2587C14.5921 26.4989 15.3341 25.2936 15.6342 23.149C15.8753 21.4248 15.6281 20.4585 14.7871 19.8381C14.3195 19.4932 13.9381 19.4366 11.711 19.3829C10.3127 19.3489 9.16862 19.3735 9.16862 19.4372Z" fill="white"/>
</svg>
