<svg width="160" height="54" viewBox="0 0 160 54" fill="none" xmlns="http://www.w3.org/2000/svg">
<mask id="mask0_2306_1798" style="mask-type:luminance" maskUnits="userSpaceOnUse" x="25" y="7" width="109" height="40">
<path d="M133.975 7H25.1443V46.59H133.975V7Z" fill="white"/>
</mask>
<g mask="url(#mask0_2306_1798)">
<path d="M120.129 35.9852C123.312 36.017 126.421 34.9211 129.01 32.8553C129.226 32.6746 129.409 32.4474 129.546 32.1871C129.683 31.9268 129.772 31.6387 129.807 31.3395C129.843 31.0404 129.825 30.7363 129.754 30.445C129.683 30.1538 129.561 29.8813 129.394 29.6436C129.006 29.1845 128.488 28.8895 127.927 28.8089C127.366 28.7284 126.797 28.8672 126.318 29.2017C124.529 30.6796 122.352 31.4559 120.126 31.4097C117.582 31.408 115.123 30.3815 113.204 28.5191C112.326 27.6367 111.622 26.5596 111.139 25.3566C110.655 24.1536 110.403 22.8512 110.397 21.533C110.41 20.216 110.666 18.9162 111.149 17.7143C111.632 16.5124 112.331 15.4341 113.204 14.5464C115.124 12.6843 117.582 11.6579 120.126 11.6557C122.353 11.6032 124.532 12.3806 126.318 13.8648C126.792 14.2182 127.365 14.368 127.93 14.2867C128.496 14.2054 129.016 13.8983 129.394 13.4224C129.56 13.1844 129.682 12.9119 129.753 12.6208C129.823 12.3296 129.841 12.0257 129.805 11.7268C129.77 11.4278 129.681 11.1398 129.544 10.8795C129.408 10.6192 129.226 10.3918 129.01 10.2107C126.422 8.14367 123.312 7.0462 120.129 7.07635C112.438 7.11621 106.054 13.5807 106.016 21.5308C106.054 29.5206 112.438 35.9852 120.129 35.9852ZM93.9413 26.0674H101.171C101.752 26.08 102.313 25.8395 102.737 25.3971C103.161 24.9548 103.413 24.3455 103.44 23.6989C103.421 23.0458 103.172 22.4273 102.748 21.9768C102.323 21.5263 101.757 21.2798 101.171 21.2905H93.9413C93.3553 21.2798 92.789 21.5265 92.3646 21.9772C91.9401 22.428 91.6916 23.0467 91.6725 23.7C91.6995 24.3466 91.9517 24.9559 92.3755 25.3983C92.7992 25.8406 93.361 26.0811 93.9413 26.0686M80.675 15.9094C79.2408 15.9124 77.8332 16.3419 76.5974 17.1535C76.4168 16.7724 76.1451 16.4544 75.8125 16.2348C75.4798 16.0152 75.0992 15.9026 74.7127 15.9094C74.4537 15.8989 74.1955 15.9456 73.9528 16.0468C73.7101 16.1481 73.4878 16.3019 73.2987 16.4995C73.1096 16.697 72.9575 16.9343 72.851 17.1978C72.7445 17.4612 72.6859 17.7455 72.6784 18.0343V33.8569C72.6855 34.1463 72.7439 34.4314 72.8504 34.6955C72.957 34.9595 73.1094 35.1974 73.2989 35.3954C73.4884 35.5933 73.7113 35.7474 73.9546 35.8486C74.1978 35.9498 74.4567 35.9963 74.7162 35.9852C75.1802 35.9932 75.6332 35.8275 76.0028 35.5145C76.3724 35.2016 76.6372 34.7594 76.755 34.2588C76.8134 34.1354 76.8399 33.9962 76.8315 33.8569V24.2608C76.8425 23.712 76.951 23.171 77.1507 22.6692C77.3504 22.1675 77.6374 21.7149 77.9951 21.3376C78.3527 20.9604 78.7739 20.666 79.2343 20.4716C79.6946 20.2771 80.185 20.1864 80.677 20.2047C82.8689 20.2047 84.6761 22.0119 84.6761 24.2608V33.8569C84.7033 34.4366 84.9306 34.982 85.3106 35.3788C85.6905 35.7756 86.1934 35.9929 86.7139 35.9852C87.2321 35.9986 87.7339 35.7819 88.1089 35.3828C88.4838 34.9837 88.7013 34.4348 88.7134 33.8569V24.2608C88.7134 19.723 85.1392 15.9094 80.677 15.9094M63.4856 30.1224C62.5202 31.1395 61.2395 31.7008 59.9114 31.6888C59.2526 31.7027 58.5977 31.5716 57.9844 31.3028C57.3711 31.034 56.8113 30.6329 56.3372 30.1224C55.8623 29.574 55.4889 28.9265 55.2384 28.2171C54.9879 27.5076 54.8652 26.7501 54.8774 25.9877C54.8584 25.2242 54.9779 24.4643 55.2288 23.7536C55.4796 23.0429 55.8567 22.3961 56.3372 21.8519C56.7974 21.315 57.353 20.8913 57.9684 20.6077C58.5839 20.3242 59.2457 20.1871 59.9114 20.2053C60.5761 20.1956 61.2357 20.3365 61.8501 20.6195C62.4645 20.9026 63.0209 21.3218 63.4856 21.8519C63.9722 22.3934 64.3557 23.0387 64.6134 23.7494C64.8711 24.46 64.9976 25.2213 64.9853 25.9877C64.9958 27.533 64.4565 29.0198 63.4856 30.1224ZM69.0619 18.0776C69.0486 17.4888 68.8265 16.93 68.4443 16.5236C68.0621 16.1172 67.551 15.8963 67.0231 15.9094C66.5601 15.9096 66.1108 16.0841 65.7479 16.4047C65.3849 16.7252 65.1297 17.1731 65.0236 17.6756C63.2556 16.3368 61.1239 15.7285 58.9966 15.9558C56.8693 16.1832 54.8799 17.2319 53.3722 18.9208C52.5328 19.8425 51.8685 20.9432 51.4187 22.1573C50.969 23.3714 50.7431 24.6741 50.7544 25.9877C50.75 27.3002 50.9791 28.6006 51.4285 29.8136C51.8778 31.0267 52.5385 32.1283 53.3722 33.0546C55.1179 34.957 57.4683 36.0107 59.9089 35.9852C61.73 35.991 63.511 35.3898 65.0236 34.2588C65.138 34.7531 65.3965 35.191 65.7585 35.5035C66.1205 35.816 66.5653 35.9854 67.0231 35.9852C67.5454 35.9999 68.052 35.785 68.4335 35.3868C68.8149 34.9886 69.0406 34.4391 69.0619 33.8569V18.0776ZM40.0288 35.9863C43.2124 36.0184 46.3228 34.9221 48.9115 32.8553C49.1283 32.6747 49.3105 32.4475 49.4475 32.1872C49.5845 31.9269 49.6735 31.6387 49.7093 31.3396C49.7451 31.0404 49.7269 30.7362 49.6559 30.445C49.5848 30.1538 49.4623 29.8813 49.2956 29.6436C48.9079 29.1845 48.3894 28.8895 47.8285 28.8089C47.2677 28.7284 46.6991 28.8672 46.2197 29.2017C44.4308 30.6796 42.2537 31.4559 40.0278 31.4097C37.4835 31.4082 35.0253 30.3817 33.106 28.5191C32.2274 27.6365 31.524 26.559 31.0407 25.3556C30.5574 24.1521 30.3049 22.8494 30.2995 21.5308C30.3126 20.2137 30.5687 18.9138 31.0517 17.7118C31.5346 16.5099 32.2343 15.4316 33.107 14.5441C35.0266 12.6819 37.4846 11.6554 40.0288 11.6535C42.2557 11.6009 44.4347 12.3783 46.2208 13.8626C46.6948 14.2159 47.2675 14.3658 47.833 14.2845C48.3985 14.2031 48.9185 13.8961 49.2966 13.4202C49.4628 13.1822 49.5848 12.9097 49.6556 12.6186C49.7263 12.3274 49.7443 12.0235 49.7086 11.7245C49.6728 11.4255 49.584 11.1374 49.4473 10.8771C49.3106 10.6168 49.1288 10.3895 48.9125 10.2084C46.3235 8.1414 43.2128 7.04468 40.0288 7.07635C32.3378 7.11621 25.9545 13.5807 25.9153 21.5308C25.9545 29.5206 32.3378 35.9852 40.0288 35.9852" fill="white"/>
<path d="M133.764 7.00021H133.756C133.722 7.00175 133.689 7.01069 133.659 7.02649C133.629 7.0423 133.602 7.06467 133.579 7.09228L132.843 8.17298L132.106 7.09228C132.063 7.03859 132.003 7.00558 131.939 7.00021H131.921C131.869 7.00011 131.82 7.02191 131.782 7.06115C131.745 7.10039 131.722 7.15411 131.719 7.2113V9.52652C131.723 9.58343 131.746 9.63669 131.783 9.67577C131.82 9.71485 131.869 9.73692 131.921 9.73761C131.972 9.73869 132.022 9.71721 132.06 9.67777C132.097 9.63833 132.12 9.58405 132.122 9.52652V7.87039L132.666 8.65635C132.687 8.68547 132.714 8.70894 132.745 8.72506C132.775 8.74117 132.809 8.74953 132.842 8.74953C132.876 8.74953 132.909 8.74117 132.94 8.72506C132.97 8.70894 132.997 8.68547 133.019 8.65635L133.554 7.87039V9.52652C133.557 9.5855 133.581 9.64073 133.62 9.68025C133.66 9.71976 133.712 9.74037 133.765 9.73761C133.817 9.73909 133.868 9.71804 133.907 9.67878C133.947 9.63952 133.971 9.58503 133.975 9.52652V7.2113C133.971 7.15274 133.946 7.09825 133.907 7.059C133.868 7.01976 133.817 6.99872 133.764 7.00021ZM131.193 7.2113C131.191 7.15382 131.168 7.09962 131.131 7.06021C131.093 7.0208 131.043 6.99928 130.992 7.00021H129.386C129.361 6.99893 129.335 7.00342 129.311 7.0134C129.287 7.02339 129.265 7.03867 129.246 7.05835C129.227 7.07803 129.212 7.1017 129.202 7.12797C129.191 7.15424 129.186 7.18257 129.185 7.2113C129.185 7.27119 129.206 7.32862 129.244 7.37138C129.282 7.41415 129.333 7.43889 129.386 7.44035H129.983V9.52652C129.988 9.58503 130.012 9.63952 130.051 9.67878C130.09 9.71804 130.141 9.73909 130.194 9.73761C130.246 9.73869 130.295 9.71721 130.333 9.67777C130.371 9.63833 130.393 9.58405 130.395 9.52652V7.43979H130.991C131.044 7.43672 131.095 7.41147 131.132 7.36905C131.169 7.32663 131.191 7.27012 131.193 7.21074" fill="white"/>
<path d="M130.293 44.0049C130.269 44.7135 129.996 45.3829 129.531 45.8675C129.067 46.352 128.45 46.6124 127.815 46.5919H27.6218C26.9863 46.6125 26.3692 46.3522 25.9051 45.8676C25.441 45.383 25.1674 44.7135 25.144 44.0049V43.6748C25.1675 42.9665 25.4411 42.2973 25.9051 41.813C26.3692 41.3286 26.986 41.0684 27.6213 41.089H127.815C128.45 41.0684 129.067 41.3286 129.531 41.8129C129.995 42.2972 130.269 42.9664 130.293 43.6748V44.0049Z" fill="white"/>
<path d="M120.552 45.2295C120.906 45.5348 121.335 45.71 121.782 45.7308C122.098 45.737 122.407 45.6374 122.671 45.445C122.792 45.3633 122.894 45.2495 122.966 45.1136C123.038 44.9778 123.079 44.8241 123.085 44.6664C123.085 44.5144 123.045 44.3658 122.969 44.2391C122.848 44.0523 122.681 43.9076 122.489 43.8215C122.276 43.7222 122.053 43.6512 121.826 43.6098H121.816C121.605 43.5785 121.401 43.5039 121.215 43.3897C121.165 43.3558 121.121 43.3114 121.086 43.2589C121.061 43.2175 121.049 43.1683 121.051 43.1186C121.056 43.0528 121.075 42.9893 121.107 42.9339C121.139 42.8784 121.183 42.8329 121.235 42.8014C121.395 42.6867 121.582 42.6281 121.773 42.633C122.053 42.6544 122.322 42.7659 122.547 42.9541C122.602 42.9928 122.667 43.0066 122.731 42.9926C122.794 42.9786 122.851 42.9378 122.888 42.8789C122.905 42.851 122.918 42.8193 122.924 42.7859C122.93 42.7524 122.93 42.7179 122.924 42.6844C122.918 42.651 122.905 42.6194 122.887 42.5916C122.869 42.5638 122.847 42.5404 122.82 42.5229C122.513 42.2789 122.149 42.1393 121.773 42.121C121.478 42.1158 121.189 42.2084 120.942 42.3871C120.829 42.4656 120.735 42.5734 120.668 42.7013C120.601 42.8292 120.563 42.9734 120.556 43.1214C120.556 43.268 120.594 43.4115 120.667 43.5335C120.78 43.7092 120.935 43.8455 121.114 43.9264C121.313 44.0185 121.522 44.0844 121.734 44.1229H121.744C121.974 44.1586 122.197 44.2384 122.402 44.3587C122.461 44.3962 122.51 44.4483 122.547 44.5109C122.577 44.5579 122.592 44.6141 122.591 44.6714C122.586 44.7462 122.565 44.8186 122.529 44.8818C122.492 44.9451 122.443 44.9972 122.384 45.0335C122.204 45.1597 121.995 45.2245 121.783 45.2199C121.448 45.1994 121.128 45.0641 120.865 44.8325C120.812 44.7884 120.747 44.7676 120.682 44.7742C120.617 44.7807 120.556 44.8141 120.512 44.8679C120.492 44.8946 120.478 44.9254 120.469 44.9586C120.46 44.9917 120.457 45.0265 120.461 45.0609C120.465 45.0952 120.474 45.1284 120.49 45.1584C120.505 45.1885 120.526 45.2147 120.55 45.2356M110.009 42.7744H110.6C110.664 42.7687 110.728 42.7778 110.789 42.8011C110.849 42.8245 110.905 42.8616 110.952 42.9102C111 42.9588 111.037 43.0177 111.063 43.0834C111.089 43.149 111.102 43.2199 111.102 43.2915C111.102 43.3631 111.089 43.434 111.063 43.4996C111.037 43.5652 111 43.6242 110.952 43.6728C110.905 43.7214 110.849 43.7585 110.789 43.7819C110.728 43.8052 110.664 43.8143 110.6 43.8085H110.009V42.7744ZM111.634 43.2965C111.629 43.15 111.599 43.0057 111.545 42.8722C111.491 42.7386 111.413 42.6182 111.317 42.518C111.221 42.4178 111.108 42.3397 110.985 42.2881C110.862 42.2366 110.731 42.2126 110.6 42.2175H109.739C109.706 42.2162 109.672 42.2223 109.641 42.2354C109.609 42.2485 109.58 42.2685 109.556 42.2941C109.531 42.3198 109.512 42.3505 109.498 42.3847C109.484 42.4189 109.476 42.4557 109.475 42.4932V45.4546C109.481 45.5295 109.511 45.5996 109.56 45.6507C109.61 45.7019 109.675 45.7303 109.742 45.7303C109.809 45.7303 109.874 45.7019 109.924 45.6507C109.973 45.5996 110.004 45.5295 110.009 45.4546V44.366H110.6C110.863 44.3764 111.12 44.27 111.314 44.0702C111.507 43.8704 111.622 43.5933 111.634 43.2994M99.3122 44.8C99.2122 44.9145 99.0926 45.0056 98.9605 45.0677C98.8284 45.1299 98.6865 45.1619 98.5432 45.1619C98.3998 45.1619 98.2579 45.1299 98.1259 45.0677C97.9938 45.0056 97.8742 44.9145 97.7742 44.8C97.67 44.6864 97.5873 44.5505 97.5311 44.4005C97.4749 44.2506 97.4463 44.0895 97.447 43.927C97.4466 43.7637 97.4754 43.6019 97.5315 43.4511C97.5877 43.3002 97.6702 43.1634 97.7742 43.0484C97.8758 42.9337 97.9969 42.8429 98.1306 42.7814C98.2642 42.7198 98.4075 42.6888 98.552 42.6902C98.6935 42.6907 98.8335 42.7225 98.9639 42.7838C99.0943 42.8451 99.2125 42.9346 99.3117 43.0473C99.5198 43.281 99.6373 43.5965 99.6389 43.9259C99.6385 44.0882 99.6093 44.2489 99.5532 44.3987C99.497 44.5485 99.415 44.6845 99.3117 44.7989M98.552 42.1187C98.3336 42.1172 98.117 42.1638 97.9149 42.256C97.7127 42.3483 97.5289 42.4842 97.374 42.656C97.2233 42.8219 97.1036 43.0196 97.0219 43.2376C96.9403 43.4555 96.8982 43.6894 96.8982 43.9256C96.8982 44.1618 96.9403 44.3957 97.0219 44.6136C97.1036 44.8316 97.2233 45.0292 97.374 45.1952C97.6882 45.5398 98.1114 45.7326 98.552 45.7319C98.7657 45.7311 98.9772 45.6832 99.1743 45.5911C99.3714 45.499 99.5503 45.3645 99.7008 45.1952C99.9251 44.9419 100.077 44.6203 100.138 44.2708C100.199 43.9212 100.167 43.5594 100.044 43.2307C99.9211 42.902 99.7141 42.621 99.4486 42.4231C99.1832 42.2252 98.8713 42.1196 98.552 42.1187ZM86.7582 43.8097H86.1672V42.7744H86.7582C86.8216 42.7698 86.8853 42.7797 86.9451 42.8036C87.005 42.8274 87.0599 42.8648 87.1063 42.9132C87.1527 42.9617 87.1897 43.0203 87.215 43.0853C87.2403 43.1504 87.2534 43.2206 87.2534 43.2915C87.2534 43.3624 87.2403 43.4326 87.215 43.4976C87.1897 43.5627 87.1527 43.6213 87.1063 43.6698C87.0599 43.7182 87.005 43.7556 86.9451 43.7794C86.8853 43.8033 86.8216 43.8132 86.7582 43.8085M87.7579 45.1436C87.7407 45.046 87.7345 44.9464 87.7393 44.8471C87.7403 44.6519 87.6845 44.4616 87.5802 44.3048C87.5341 44.233 87.4774 44.1704 87.4126 44.1196C87.5277 44.0237 87.6214 43.8995 87.6863 43.7567C87.7513 43.6138 87.7858 43.4562 87.7871 43.296C87.7834 43.1497 87.7538 43.0056 87.7 42.8721C87.6463 42.7386 87.5694 42.6182 87.4737 42.518C87.3781 42.4177 87.2657 42.3395 87.1429 42.2878C87.0201 42.2362 86.8893 42.2121 86.7582 42.217H85.8978C85.8642 42.2152 85.8305 42.2209 85.7989 42.2339C85.7672 42.2469 85.7382 42.2668 85.7136 42.2925C85.689 42.3182 85.6693 42.3492 85.6556 42.3836C85.642 42.4179 85.6346 42.455 85.6341 42.4926V45.454C85.635 45.4915 85.6426 45.5284 85.6564 45.5626C85.6702 45.5968 85.69 45.6276 85.7145 45.6533C85.739 45.6789 85.7678 45.6989 85.7993 45.7121C85.8307 45.7254 85.8642 45.7315 85.8978 45.7302C85.9663 45.7331 86.0331 45.7057 86.0835 45.654C86.134 45.6022 86.164 45.5304 86.1672 45.454V44.366H86.7345C86.8294 44.3903 86.9203 44.431 87.0038 44.4867C87.0616 44.522 87.1113 44.5718 87.1488 44.6321C87.1857 44.6966 87.2057 44.7712 87.2067 44.8477C87.1959 45.0546 87.2304 45.2614 87.3074 45.4501C87.3448 45.522 87.3978 45.5824 87.4614 45.6258C87.5178 45.663 87.5822 45.6824 87.6477 45.6819H87.6537C87.6891 45.682 87.7243 45.6769 87.7584 45.6668C87.7907 45.6572 87.8209 45.6404 87.8472 45.6172C87.8734 45.5941 87.8951 45.5653 87.9109 45.5324C87.9267 45.4996 87.9363 45.4635 87.9391 45.4263C87.9419 45.3892 87.9378 45.3518 87.9271 45.3165C87.9127 45.2757 87.89 45.2392 87.8607 45.2099C87.8314 45.1807 87.7964 45.1595 87.7584 45.148M74.4367 42.7744H74.7348C74.8812 42.7651 75.0279 42.7892 75.1657 42.8453C75.3036 42.9013 75.4297 42.9882 75.5364 43.1006C75.6431 43.2129 75.728 43.3484 75.7861 43.4986C75.8442 43.6489 75.8742 43.8108 75.8742 43.9744C75.8742 44.1381 75.8442 44.3 75.7861 44.4502C75.728 44.6005 75.6431 44.736 75.5364 44.8483C75.4297 44.9607 75.3036 45.0475 75.1657 45.1036C75.0279 45.1597 74.8812 45.1838 74.7348 45.1744H74.4367V42.7744ZM74.1674 45.7308H74.7348C74.9501 45.7463 75.166 45.7123 75.3692 45.6311C75.5723 45.5498 75.7583 45.423 75.9158 45.2584C76.0732 45.0938 76.1987 44.8949 76.2845 44.6741C76.3703 44.4532 76.4145 44.2151 76.4145 43.9744C76.4145 43.7338 76.3703 43.4957 76.2845 43.2748C76.1987 43.054 76.0732 42.8551 75.9158 42.6905C75.7583 42.5259 75.5723 42.399 75.3692 42.3178C75.166 42.2365 74.9501 42.2026 74.7348 42.2181H74.1674C74.1337 42.2163 74.1001 42.222 74.0684 42.235C74.0368 42.248 74.0078 42.2679 73.9832 42.2936C73.9586 42.3193 73.9389 42.3503 73.9252 42.3847C73.9115 42.4191 73.9042 42.4561 73.9036 42.4937V45.4551C73.9046 45.4926 73.9122 45.5295 73.926 45.5637C73.9398 45.5979 73.9595 45.6287 73.9841 45.6544C74.0086 45.68 74.0374 45.7001 74.0688 45.7133C74.1003 45.7265 74.1338 45.7321 74.1674 45.7308ZM65.1448 44.4912H66.0485C66.085 44.4937 66.1216 44.4878 66.1561 44.474C66.1905 44.4601 66.222 44.4385 66.2487 44.4105C66.2754 44.3825 66.2966 44.3488 66.3112 44.3113C66.3257 44.2738 66.3332 44.2334 66.3332 44.1925C66.3332 44.1517 66.3257 44.1113 66.3112 44.0738C66.2966 44.0363 66.2754 44.0026 66.2487 43.9746C66.222 43.9466 66.1905 43.925 66.1561 43.9111C66.1216 43.8972 66.085 43.8914 66.0485 43.8939H65.1448C65.1083 43.8914 65.0717 43.8972 65.0372 43.9111C65.0028 43.925 64.9713 43.9466 64.9446 43.9746C64.9179 44.0026 64.8966 44.0363 64.8821 44.0738C64.8676 44.1113 64.8601 44.1517 64.8601 44.1925C64.8601 44.2334 64.8676 44.2738 64.8821 44.3113C64.8966 44.3488 64.9179 44.3825 64.9446 44.4105C64.9713 44.4385 65.0028 44.4601 65.0372 44.474C65.0717 44.4878 65.1083 44.4937 65.1448 44.4912ZM55.5569 45.7308L55.5609 45.7263C55.5609 45.7263 55.5609 45.7308 55.571 45.7308H57.1276C57.1631 45.7361 57.1993 45.733 57.2337 45.7214C57.2681 45.7099 57.2999 45.6903 57.3269 45.664C57.3539 45.6376 57.3756 45.6051 57.3904 45.5687C57.4053 45.5322 57.413 45.4926 57.413 45.4526C57.413 45.4126 57.4053 45.373 57.3904 45.3365C57.3756 45.3001 57.3539 45.2676 57.3269 45.2413C57.2999 45.2149 57.2681 45.1953 57.2337 45.1838C57.1993 45.1723 57.1631 45.1691 57.1276 45.1744H55.8262V44.2498H56.9463C57.0146 44.2512 57.0806 44.2225 57.1299 44.1699C57.1793 44.1174 57.2081 44.0452 57.2101 43.9691C57.2065 43.894 57.177 43.8234 57.1279 43.772C57.0788 43.7205 57.0137 43.6922 56.9463 43.6929H55.8262V42.7744H57.1286C57.1967 42.7751 57.2624 42.7462 57.3119 42.6938C57.3613 42.6414 57.3905 42.5697 57.3934 42.4937C57.3905 42.4182 57.3611 42.347 57.3116 42.2955C57.262 42.2439 57.1963 42.2161 57.1286 42.2181H55.5569C55.5232 42.2161 55.4894 42.2218 55.4576 42.2347C55.4259 42.2476 55.3968 42.2675 55.372 42.2932C55.3473 42.3189 55.3275 42.35 55.3138 42.3844C55.3001 42.4189 55.2927 42.456 55.2921 42.4937V45.4551C55.2932 45.4927 55.3009 45.5296 55.3147 45.5639C55.3286 45.5981 55.3484 45.6289 55.373 45.6546C55.3977 45.6803 55.4266 45.7003 55.4581 45.7134C55.4897 45.7266 55.5233 45.7321 55.5569 45.7308ZM46.33 42.3068C46.2729 42.2632 46.2031 42.2452 46.1347 42.2563C46.0662 42.2674 46.004 42.3069 45.9605 42.3669L45.1389 43.5419L44.3163 42.3669C44.274 42.3064 44.2124 42.2665 44.1444 42.2553C44.0763 42.2441 44.007 42.2626 43.9508 42.3068C43.9226 42.3261 43.8985 42.3522 43.8803 42.383C43.862 42.4139 43.8501 42.4489 43.8454 42.4855C43.8406 42.5221 43.8431 42.5594 43.8527 42.5948C43.8624 42.6302 43.8788 42.6627 43.901 42.6902L44.8761 44.1005V45.4557C44.8791 45.5312 44.9085 45.6024 44.958 45.654C45.0075 45.7056 45.0732 45.7336 45.1409 45.7319C45.1746 45.7337 45.2083 45.7279 45.24 45.7149C45.2717 45.7019 45.3007 45.6819 45.3253 45.6562C45.3499 45.6304 45.3696 45.5994 45.3833 45.5649C45.3969 45.5305 45.4042 45.4933 45.4047 45.4557V44.0988L46.3878 42.6902C46.4074 42.6614 46.4214 42.6284 46.429 42.5932C46.4367 42.5581 46.4379 42.5216 46.4324 42.486C46.427 42.4504 46.4151 42.4163 46.3975 42.386C46.3799 42.3557 46.3569 42.3297 46.33 42.3096M33.119 45.7342L33.124 45.7297C33.124 45.7297 33.124 45.7342 33.1336 45.7342H34.6912C34.7267 45.7395 34.7629 45.7363 34.7973 45.7248C34.8317 45.7133 34.8635 45.6937 34.8905 45.6673C34.9175 45.641 34.9392 45.6085 34.954 45.572C34.9689 45.5356 34.9766 45.496 34.9766 45.456C34.9766 45.4159 34.9689 45.3764 34.954 45.3399C34.9392 45.3035 34.9175 45.271 34.8905 45.2446C34.8635 45.2183 34.8317 45.1987 34.7973 45.1872C34.7629 45.1756 34.7267 45.1724 34.6912 45.1778H33.3883V44.2498H34.5084C34.5768 44.2515 34.6431 44.2229 34.6927 44.1703C34.7423 44.1177 34.7712 44.0454 34.7732 43.9691C34.7695 43.8939 34.7398 43.8232 34.6905 43.7718C34.6412 43.7203 34.576 43.6921 34.5084 43.6929H33.3883V42.7744H34.6912C34.7592 42.7751 34.8248 42.7461 34.8741 42.6937C34.9233 42.6413 34.9523 42.5696 34.9549 42.4937C34.9522 42.4184 34.923 42.3473 34.8736 42.2957C34.8243 42.2441 34.7588 42.2163 34.6912 42.2181H33.119C33.0853 42.2163 33.0517 42.222 33.02 42.235C32.9884 42.248 32.9594 42.2679 32.9348 42.2936C32.9102 42.3193 32.8905 42.3503 32.8768 42.3847C32.8631 42.4191 32.8558 42.4561 32.8552 42.4937V45.4551C32.8562 45.4926 32.8638 45.5295 32.8776 45.5637C32.8914 45.5979 32.9111 45.6287 32.9356 45.6544C32.9602 45.68 32.989 45.7001 33.0204 45.7133C33.0519 45.7265 33.0854 45.7326 33.119 45.7313" fill="black"/>
</g>
</svg>
