<svg width="64" height="65" viewBox="0 0 64 65" fill="none" xmlns="http://www.w3.org/2000/svg">
<circle cx="31.7681" cy="32.2681" r="27.1304" fill="#00225E"/>
<circle cx="32" cy="32.5" r="31.0725" stroke="#00225E" stroke-width="1.85507"/>
<path fill-rule="evenodd" clip-rule="evenodd" d="M18 14H30.2655V14.7933H27.9078C27.2433 14.7933 26.7944 15.4714 27.0539 16.0831L30.7135 24.7096C31.8383 24.4452 34.675 24.0749 37.0236 24.7096L39.5228 18.9734L40.7785 16.0913C41.0455 15.4787 40.5965 14.7933 39.9282 14.7933H36.794V14H45.1029V14.7933H44.4997C43.7811 14.7933 43.1271 15.2083 42.8211 15.8586L42.5628 16.4077L38.3766 25.3046L40.5353 26.2158C41.356 26.5622 42.2864 26.0588 42.4453 25.1823L42.5311 24.7096H43.1246V33.4359C42.3992 31.651 40.2362 27.8828 37.3875 27.0895L32.046 39.1874H46.2899V40.3773H44.9796C43.9551 40.3773 43.1246 41.2079 43.1246 42.2324V49.1037C38.5085 51.2191 26.5069 54.2603 21.1653 46.9221C16.6741 40.7521 18.207 34.4647 20.5995 30.4731C21.6152 28.7786 23.1473 27.4834 24.7264 26.2962L20.1453 15.8253C19.9238 15.3189 19.4234 14.9916 18.8707 14.9916H18V14ZM26.309 30.461C24.7612 35.7497 23.475 46.9617 30.7135 49.5003C32.168 49.897 34.7122 50.3132 37.0236 49.1037V42.2324C37.0236 41.2079 36.1931 40.3773 35.1686 40.3773H30.7135L26.309 30.461ZM33.8265 32.0476L31.3866 26.2962C32.4196 26.0979 34.8551 25.8202 36.3324 26.2962L33.8265 32.0476Z" fill="white"/>
</svg>
