<svg width="340" height="273" viewBox="0 0 340 273" fill="none" xmlns="http://www.w3.org/2000/svg">
<g opacity="0.03" filter="url(#filter0_d_1584_1375)">
<path d="M336.641 134.102C335.457 129.719 331.365 126.726 326.842 126.726H240.805L281.832 15.5581C283.77 10.3204 281.078 4.54818 275.802 2.62411C270.525 0.700051 264.711 3.37236 262.772 8.61009L216.685 133.354C215.5 136.453 216.039 139.874 217.869 142.546C219.807 145.219 222.93 146.822 226.161 146.822H290.877L146.154 235.222L224.007 15.3443C224.115 15.0236 224.222 14.703 224.222 14.4892C224.222 14.3823 224.222 14.2754 224.33 14.1685C224.33 13.9547 224.438 13.7409 224.438 13.5271C224.438 13.4202 224.438 13.3134 224.438 13.2065C224.438 12.9927 224.438 12.7789 224.438 12.672C224.438 12.5651 224.438 12.4582 224.438 12.3513C224.438 12.0306 224.438 11.8169 224.438 11.4962C224.438 11.3893 224.438 11.2824 224.438 11.1755C224.438 10.9617 224.438 10.8548 224.33 10.641C224.33 10.5342 224.33 10.4273 224.222 10.3204C224.222 10.1066 224.115 9.99969 224.115 9.78591C224.115 9.67901 224.115 9.57212 224.007 9.46523C223.899 9.25144 223.899 9.03766 223.792 8.82387V8.71698C223.684 8.3963 223.576 8.18252 223.469 7.86184C223.469 7.75495 223.361 7.75495 223.361 7.64806C223.253 7.43427 223.146 7.32738 223.038 7.1136C223.038 7.0067 222.93 6.89981 222.823 6.89981C222.715 6.68603 222.607 6.57913 222.5 6.36535C222.392 6.25846 222.392 6.15156 222.284 6.15156C222.176 5.93778 221.961 5.83089 221.853 5.6171C221.746 5.51021 221.746 5.40332 221.638 5.40332C221.423 5.18953 221.315 5.08264 221.1 4.86885C220.992 4.76196 220.884 4.65507 220.777 4.54818C220.669 4.44128 220.669 4.44128 220.561 4.33439C220.561 4.33439 220.561 4.33439 220.454 4.33439C220.023 4.01372 219.7 3.79993 219.269 3.47925C219.161 3.47925 219.161 3.37236 219.054 3.37236C218.731 3.15858 218.3 3.05168 217.977 2.8379C217.869 2.8379 217.762 2.73101 217.654 2.73101C217.654 2.73101 217.546 2.73101 217.546 2.62411C217.115 2.51722 216.792 2.41033 216.362 2.30344C216.254 2.30344 216.146 2.30344 216.146 2.30344C215.716 2.19654 215.285 2.19654 214.962 2.08965C214.854 2.08965 214.854 2.08965 214.746 2.08965C214.316 2.08965 213.777 2.08965 213.347 2.08965C213.239 2.08965 213.239 2.08965 213.131 2.08965C212.701 2.08965 212.27 2.19654 211.839 2.30344H211.731C211.301 2.41033 210.87 2.51722 210.439 2.73101C210.332 2.73101 210.224 2.8379 210.116 2.8379C209.685 3.05168 209.255 3.26547 208.932 3.47925L7.78349 128.33C3.90697 130.681 2.18407 135.384 3.36857 139.66C4.66074 143.936 8.64494 146.929 13.1675 146.929H96.7281L57.6398 255.425C55.7016 260.662 58.5013 266.435 63.7776 268.359C64.9621 268.786 66.0389 269 67.2234 269C71.423 269 75.2995 266.435 76.8071 262.266L120.849 140.302C121.925 137.202 121.495 133.781 119.556 131.109C117.618 128.436 114.603 126.833 111.265 126.833H48.7023L195.364 35.9745L117.618 255.532C117.51 255.852 117.403 256.173 117.403 256.387C117.403 256.494 117.403 256.6 117.295 256.707C117.295 256.921 117.187 257.135 117.187 257.349C117.187 257.456 117.187 257.563 117.187 257.669C117.187 257.883 117.187 258.097 117.187 258.311C117.187 258.418 117.187 258.525 117.187 258.631C117.187 258.952 117.187 259.166 117.187 259.487C117.187 259.593 117.187 259.7 117.187 259.807C117.187 260.021 117.187 260.128 117.295 260.342C117.295 260.449 117.295 260.555 117.403 260.662C117.403 260.876 117.51 260.983 117.51 261.197C117.51 261.304 117.51 261.411 117.618 261.518C117.726 261.731 117.726 262.052 117.834 262.266V262.373C117.941 262.693 118.049 262.907 118.157 263.228C118.157 263.335 118.264 263.335 118.264 263.442C118.372 263.655 118.48 263.869 118.587 263.976C118.587 264.083 118.695 264.19 118.695 264.19C118.803 264.404 118.91 264.511 119.018 264.724C119.126 264.831 119.126 264.831 119.233 264.938C119.341 265.152 119.556 265.366 119.664 265.473C119.772 265.579 119.772 265.686 119.879 265.686C119.987 265.793 120.203 266.007 120.31 266.114C120.418 266.221 120.526 266.328 120.633 266.435C120.741 266.541 120.741 266.541 120.849 266.648C120.849 266.648 120.956 266.648 120.956 266.755C121.387 267.076 121.71 267.29 122.141 267.61C122.248 267.61 122.248 267.717 122.356 267.717C122.679 267.931 123.11 268.038 123.433 268.252C123.541 268.252 123.648 268.359 123.756 268.359C123.864 268.359 123.864 268.359 123.971 268.466C124.294 268.572 124.725 268.679 125.048 268.786C125.156 268.786 125.156 268.786 125.264 268.786C125.694 268.893 126.125 268.893 126.663 269H126.771C126.986 269 127.094 269 127.309 269C127.633 269 127.848 269 128.171 269C128.171 269 128.171 269 128.279 269C128.709 269 129.248 268.893 129.678 268.786H129.786C130.217 268.679 130.755 268.572 131.186 268.359C131.186 268.359 131.294 268.359 131.294 268.252C131.724 268.038 132.155 267.824 132.586 267.61L332.334 145.646C335.995 143.081 337.826 138.484 336.641 134.102Z" fill="#02A9F7"/>
</g>
<defs>
<filter id="filter0_d_1584_1375" x="0.771328" y="0.581754" width="338.457" height="271.457" filterUnits="userSpaceOnUse" color-interpolation-filters="sRGB">
<feFlood flood-opacity="0" result="BackgroundImageFix"/>
<feColorMatrix in="SourceAlpha" type="matrix" values="0 0 0 0 0 0 0 0 0 0 0 0 0 0 0 0 0 0 127 0" result="hardAlpha"/>
<feOffset dy="0.810426"/>
<feGaussianBlur stdDeviation="1.11434"/>
<feComposite in2="hardAlpha" operator="out"/>
<feColorMatrix type="matrix" values="0 0 0 0 0 0 0 0 0 0 0 0 0 0 0 0 0 0 0.25 0"/>
<feBlend mode="normal" in2="BackgroundImageFix" result="effect1_dropShadow_1584_1375"/>
<feBlend mode="normal" in="SourceGraphic" in2="effect1_dropShadow_1584_1375" result="shape"/>
</filter>
</defs>
</svg>
