<svg width="12" height="14" viewBox="0 0 12 14" fill="none" xmlns="http://www.w3.org/2000/svg">
<path fillRule="evenodd" clipRule="evenodd" d="M7.5 1.17725H5.472C4.553 1.17725 3.825 1.17725 3.2555 1.26012C2.6695 1.3457 2.195 1.52554 1.8205 1.9307C1.4465 2.33641 1.2805 2.85045 1.2015 3.48529C1.125 4.10279 1.125 4.89091 1.125 5.8865V9.16683C1.12501 9.65076 1.28447 10.1188 1.57467 10.4867C1.86487 10.8546 2.26676 11.0982 2.708 11.1737C2.7765 11.5875 2.909 11.9407 3.174 12.2283C3.475 12.5544 3.854 12.6942 4.304 12.7602C4.7375 12.8231 5.289 12.8231 5.9725 12.8231H7.5275C8.211 12.8231 8.7625 12.8231 9.196 12.7602C9.646 12.6942 10.025 12.5544 10.326 12.2283C10.627 11.9022 10.756 11.4917 10.817 11.0042C10.875 10.5345 10.875 9.93708 10.875 9.19662V6.4287C10.875 5.68825 10.875 5.09079 10.817 4.62116C10.756 4.13366 10.627 3.72308 10.326 3.397C10.0605 3.10991 9.7345 2.96637 9.3525 2.89216C9.28283 2.41415 9.05796 1.97877 8.71835 1.66439C8.37875 1.35 7.94671 1.17726 7.5 1.17725ZM8.565 2.81362C8.48897 2.57312 8.34543 2.36439 8.15446 2.21666C7.96349 2.06893 7.73466 1.98959 7.5 1.98975H5.5C4.5465 1.98975 3.8695 1.99083 3.355 2.06558C2.8525 2.1387 2.5625 2.27629 2.351 2.50541C2.1395 2.73454 2.0125 3.0487 1.945 3.59362C1.876 4.15045 1.875 4.88387 1.875 5.91683V9.16683C1.87486 9.42104 1.9481 9.66894 2.08446 9.87582C2.22083 10.0827 2.4135 10.2382 2.6355 10.3206C2.625 9.99016 2.625 9.61641 2.625 9.19662V6.4287C2.625 5.68825 2.625 5.09079 2.6835 4.62116C2.7435 4.13366 2.8735 3.72308 3.174 3.397C3.475 3.07091 3.854 2.93116 4.304 2.86562C4.7375 2.80225 5.289 2.80225 5.9725 2.80225H7.5275C7.915 2.80225 8.26 2.80225 8.565 2.81362ZM3.704 3.97225C3.8425 3.8222 4.0365 3.7247 4.404 3.67108C4.781 3.61637 5.282 3.61529 5.9995 3.61529H7.4995C8.217 3.61529 8.7175 3.61637 9.0955 3.67108C9.4625 3.7247 9.6565 3.82275 9.795 3.97225C9.9335 4.12229 10.0235 4.33245 10.073 4.73058C10.1235 5.139 10.1245 5.68175 10.1245 6.45904V9.16737C10.1245 9.94466 10.1235 10.4869 10.073 10.8964C10.0235 11.294 9.933 11.5041 9.795 11.6542C9.6565 11.8042 9.4625 11.9017 9.095 11.9553C8.7175 12.01 8.217 12.0111 7.4995 12.0111H5.9995C5.282 12.0111 4.781 12.01 4.4035 11.9553C4.0365 11.9017 3.8425 11.8037 3.704 11.6542C3.5655 11.5041 3.4755 11.294 3.426 10.8958C3.3755 10.4869 3.3745 9.94466 3.3745 9.16737V6.45904C3.3745 5.68175 3.3755 5.139 3.426 4.73004C3.4755 4.33245 3.566 4.12229 3.704 3.97225Z" fill="#0D1E27"/>
</svg>
