<svg width="106" height="39" viewBox="0 0 106 39" fill="none" xmlns="http://www.w3.org/2000/svg">
<path d="M49.3749 0.235844C45.8493 0.528376 42.4052 0.983425 42.1278 1.1947C41.785 1.45473 41.9645 4.52631 42.3399 4.78634C42.6664 5.03012 42.7643 4.54256 40.6261 13.3185C39.3529 18.5516 38.3899 22.517 38.0471 24.0447C37.5738 26.1087 36.8883 28.1726 36.725 27.9939C36.6434 27.9289 36.317 26.9538 35.9905 25.8324C34.3909 20.3555 32.6771 16.4551 30.6041 13.6598L29.8696 12.6522L31.257 10.8157C32.775 8.78428 34.244 7.35412 35.5008 6.67155L36.317 6.2165V4.52631V2.83613L35.8599 2.78737C34.5705 2.64111 26.9805 5.14388 21.4636 7.53289C19.0315 8.58925 14.347 10.9945 14.1674 11.2708C14.1021 11.3683 14.0369 12.1484 14.0369 13.0097C14.0369 14.8462 14.2001 15.1225 14.9836 14.7162L15.4732 14.4724L15.5548 15.155C15.5875 15.5613 15.5385 15.9188 15.4243 16.0488C15.261 16.2276 15.1141 16.1138 14.6408 15.4475C14.0695 14.6674 12.5515 13.4973 11.6375 13.1397C10.0868 12.5222 9.67877 12.7172 10.9682 13.4485C11.8333 13.9198 13.4819 15.5125 13.8573 16.1951C14.1021 16.6664 14.0042 16.6664 13.1228 16.1463C12.5189 15.7888 12.323 15.74 11.9966 15.8863C11.5722 16.0813 11.4253 16.0001 11.4253 15.5775C11.4253 15.415 11.2131 15.22 10.903 15.09C9.72774 14.6349 9.56451 14.6187 9.27071 14.8949C8.97691 15.155 8.96058 15.155 8.86265 14.7974C8.79736 14.5211 8.6831 14.4561 8.40562 14.5211C8.17711 14.5862 7.96492 14.5211 7.85066 14.3911C7.49156 13.9523 4.08018 13.8548 4.08018 14.2774C4.08018 14.3424 4.56985 14.4724 5.1901 14.5862C6.39796 14.7974 8.25872 15.4963 9.23806 16.1301C10.0379 16.6339 11.8497 18.0315 11.7028 18.0315C11.6375 18.0315 10.9519 17.8203 10.1684 17.5602C8.63414 17.0727 6.57751 16.6339 6.43061 16.7801C6.21842 16.9752 6.56119 17.2027 7.23041 17.3002C8.69942 17.5277 11.1478 18.5191 10.8866 18.7954C10.854 18.8279 10.6091 18.7791 10.348 18.6979C9.36864 18.3891 8.83 18.3566 8.58517 18.6166C8.37298 18.8279 8.32401 18.8116 8.16078 18.5191C7.94859 18.129 7.55685 18.0965 7.14879 18.4541C6.88764 18.7141 6.85499 18.7141 6.75706 18.4541C6.67544 18.2591 6.44693 18.194 5.79403 18.194C4.94527 18.194 4.40663 18.4541 4.40663 18.8766C4.40663 18.9741 4.25972 18.9254 4.08018 18.7629C3.75373 18.4703 3.70476 18.4703 2.6438 18.8116C1.48491 19.1854 -0.000427891 20.0142 -0.000427891 20.3068C-0.000427891 20.5181 -0.0330727 20.5181 1.41962 20.1118C2.51323 19.7867 3.05187 19.738 5.14114 19.7542C6.4959 19.7705 7.81801 19.8517 8.07917 19.933C8.51988 20.0793 8.45459 20.1118 7.26305 20.2905C4.94527 20.6481 3.10083 21.1681 3.10083 21.4607C3.10083 21.6882 3.6558 21.6394 5.02688 21.2819C6.59383 20.8918 9.30335 20.6318 10.2827 20.7781L11.0172 20.8918L9.71142 21.1031C8.06285 21.3794 7.72008 21.5094 7.5895 21.932C7.49156 22.257 7.45892 22.257 7.18144 22.0132C6.80602 21.6719 6.26738 21.8182 6.15313 22.2732C6.07151 22.5495 6.02255 22.5658 5.74507 22.4033C5.46758 22.2245 5.25539 22.3057 4.22708 22.9558C2.25207 24.1747 0.489245 25.8161 0.489245 26.4337C0.489245 26.6775 0.750404 26.71 0.897305 26.4825C1.06053 26.2062 3.26406 24.8573 4.22708 24.4185C5.67978 23.7847 8.42194 22.9558 8.58517 23.1183C8.61781 23.1508 8.30769 23.3784 7.8833 23.6221C5.94093 24.711 3.75373 26.6287 3.75373 27.23C3.75373 27.5713 3.98224 27.5063 4.42295 27.035C5.09217 26.3199 6.90396 25.0523 8.09549 24.4672C9.15645 23.9472 10.9356 23.3296 11.0499 23.4434C11.0662 23.4759 10.6908 23.7847 10.2011 24.1422C9.71142 24.4835 9.30335 24.8735 9.30335 24.971C9.30335 25.0848 9.14013 25.1823 8.92794 25.1823C8.71575 25.1823 8.2424 25.4423 7.86698 25.7674C7.2957 26.2387 7.21408 26.4012 7.34466 26.645C7.49156 26.905 7.4426 26.9538 7.05086 27.0025C6.70809 27.035 6.61015 27.1325 6.6428 27.3925C6.67544 27.6526 6.57751 27.7826 6.30003 27.8476C5.9899 27.9289 5.82668 28.1726 5.56552 28.9527C5.17378 30.0903 5.09217 31.5855 5.43494 31.488C5.53287 31.4392 5.64713 31.293 5.67978 31.1305C5.87564 30.1716 8.11182 27.6526 9.76038 26.5637C10.8377 25.8486 12.8943 24.9385 12.8943 25.1661C12.8943 25.2311 12.5189 25.6374 12.0618 26.0762C10.8703 27.23 9.90728 28.774 10.4133 28.7577C10.4786 28.7414 10.8377 28.3514 11.2294 27.8639C11.6048 27.3925 12.3067 26.71 12.78 26.3524C13.6614 25.6699 14.5265 25.3286 14.5265 25.6536C14.5265 25.7511 14.4612 25.8324 14.3633 25.8324C14.0695 25.8324 14.2001 26.3037 14.5265 26.4012C14.9183 26.5312 14.804 26.8075 14.347 26.8075C13.9389 26.8075 13.9552 26.9375 14.3796 27.4088C14.7061 27.7338 14.7061 27.7826 14.4612 27.8801C14.1348 28.0101 14.1185 28.3352 14.4449 28.5952C14.6571 28.774 14.6408 28.8552 14.3633 29.2453C13.9226 29.8466 13.8736 32.2356 14.298 32.3981C14.4449 32.4469 16.9259 32.4956 19.815 32.4956C23.6834 32.4956 25.1198 32.4469 25.2667 32.3006C25.3973 32.1706 25.4626 31.5693 25.4626 30.6754C25.4626 29.3103 25.4462 29.229 25.0708 29.0827C24.5485 28.8877 24.4506 28.0751 24.5159 24.5322L24.5648 21.8507L25.2504 23.2321C25.9359 24.646 26.85 27.2625 27.0295 28.3839C27.1111 28.969 27.0948 29.0177 26.6051 29.1965L26.0991 29.3915L26.1481 30.8217L26.1971 32.2518H35.256H44.315L44.3639 30.8217C44.4129 29.2453 44.2986 28.969 43.6131 28.8877C42.8786 28.8065 42.9112 27.8964 43.8253 23.6709C44.0864 22.5333 44.3476 21.6069 44.4292 21.6069C44.5108 21.6069 44.8699 21.7532 45.2453 21.9482C46.8939 22.777 48.5588 25.2148 48.7547 27.035C48.8852 28.2864 48.7383 28.7577 48.216 28.7577C47.302 28.7577 47.1714 28.969 47.1714 30.5291C47.1714 31.5368 47.2367 32.0243 47.3999 32.1543C47.5631 32.2843 51.9865 32.3168 63.8366 32.3006L80.0611 32.2518L80.11 30.9029C80.159 29.3753 80.0284 29.0827 79.3102 29.0827C78.9022 29.0827 78.8369 29.0177 78.8369 28.6277C78.8369 27.9939 79.9958 23.5246 80.2406 23.2646C80.2569 23.2321 80.665 23.4109 81.122 23.6546C82.8359 24.581 84.5497 26.97 84.5497 28.4164C84.5497 29.0827 84.5497 29.0827 83.9295 29.0827C83.0317 29.0827 82.9175 29.2778 82.9175 30.7892C82.9175 31.6018 82.9991 32.1868 83.1134 32.3006C83.2603 32.4469 84.9415 32.4956 89.6423 32.4956H95.9918L95.9428 31.0817L95.8938 29.6678L95.3225 29.5215C95.0124 29.4403 94.6207 29.2615 94.4738 29.1315C94.1963 28.8877 93.4618 26.97 93.6087 26.84C93.6413 26.8075 93.9025 27.1163 94.1963 27.5226C94.7839 28.3352 94.9961 28.4489 94.9961 27.9289C94.9961 27.5876 93.9188 25.8974 93.4618 25.5073C93.2986 25.3936 93.119 25.1661 93.0211 25.0035C92.8905 24.7435 92.9231 24.7273 93.3312 24.8573C94.1636 25.1011 96.3019 26.4012 97.2649 27.2463C97.8035 27.7176 98.6197 28.6927 99.093 29.4078C99.55 30.1228 100.007 30.7079 100.072 30.7079C100.366 30.7079 100.203 29.6028 99.6969 28.0589C99.2726 26.775 99.1093 26.4499 98.8155 26.3849C98.587 26.3199 98.4728 26.2062 98.5381 26.0599C98.6523 25.7511 98.2932 25.3448 97.9178 25.3448C97.7383 25.3448 97.6566 25.2636 97.7056 25.1336C97.8362 24.7598 96.5467 23.7197 95.9591 23.7197C95.5674 23.7197 95.4694 23.6546 95.551 23.4759C95.6163 23.3134 95.4694 23.1183 95.1103 22.9071C94.4574 22.5008 94.5064 22.5008 95.8122 22.9233C97.1996 23.3459 99.044 24.3535 100.334 25.3611C101.166 26.0274 101.378 26.1412 101.46 25.9299C101.525 25.7836 101.394 25.4098 101.182 25.1011C100.725 24.4347 98.8319 22.8746 97.8688 22.387C97.4934 22.192 97.2975 22.0132 97.3955 21.9807C97.5914 21.9157 100.382 22.6633 100.872 22.9233C101.003 22.9883 101.623 23.2646 102.243 23.5409C102.863 23.8172 103.614 24.2722 103.924 24.5322C104.218 24.8085 104.545 25.0198 104.626 25.0198C105.23 25.0198 104.708 23.8172 103.631 22.7445C102.586 21.7044 99.6643 20.1768 99.2236 20.4368C99.0114 20.5831 98.9298 20.5506 98.8645 20.323C98.7666 19.9492 97.7709 19.7217 97.5914 20.0142C97.4934 20.1768 97.4118 20.1605 97.2486 19.9655C97.1343 19.8192 96.8895 19.608 96.7099 19.5104C96.2529 19.2342 99.3052 19.4129 101.035 19.7542C102.374 20.0305 102.602 19.998 102.455 19.608C102.292 19.1854 99.5011 18.5191 97.7219 18.5028L96.3835 18.4866L97.9341 18.1778C99.8928 17.804 102.145 17.7878 103.99 18.1453C104.79 18.2916 105.491 18.3728 105.557 18.2916C105.622 18.2266 105.459 17.999 105.198 17.7715C104.218 16.9264 101.411 16.0326 100.937 16.4064C100.758 16.5689 100.644 16.5689 100.415 16.3413C99.9744 15.9676 97.9341 15.9676 97.9341 16.3576C97.9341 16.6014 97.9015 16.6014 97.624 16.3413C97.2649 16.0163 96.7099 16.1138 96.563 16.5201C96.4814 16.7151 96.4161 16.7314 96.2203 16.5689C96.0897 16.4714 95.8285 16.4226 95.6163 16.4714C95.4041 16.5201 95.7632 16.3088 96.3835 16.0001C97.0201 15.6913 97.8035 15.3987 98.13 15.3337C98.7176 15.2362 99.2236 14.8624 99.0277 14.6837C98.8645 14.5211 96.106 15.1387 94.8655 15.61C94.2289 15.8538 93.7229 15.9838 93.7719 15.9188C93.8209 15.8375 94.4248 15.3175 95.1267 14.7649C96.5467 13.6273 98.4564 12.6522 100.105 12.2297C101.133 11.9696 101.378 11.8234 101.084 11.6446C100.937 11.5633 97.8852 11.7909 97.3302 11.9371C97.118 11.9859 96.9548 12.1321 96.9548 12.2622C96.9548 12.4247 96.8079 12.4572 96.3998 12.3922C95.9428 12.3272 95.8122 12.3759 95.6653 12.6359C95.551 12.8472 95.3878 12.9447 95.2409 12.896C95.1103 12.831 94.637 12.9285 94.1963 13.091C93.6087 13.286 93.3638 13.481 93.2986 13.7411C93.2333 13.9848 93.119 14.0824 92.9558 14.0336C92.8252 13.9848 92.3845 14.1149 91.9764 14.3424C91.5684 14.5699 91.2419 14.6999 91.2419 14.6349C91.2419 14.3261 93.119 12.2947 93.9188 11.7421C94.7839 11.1408 94.9961 10.8482 94.686 10.6532C94.3595 10.442 92.3192 11.6933 90.5564 13.1723C89.675 13.8873 89.7892 13.4973 90.8012 12.3597C91.5847 11.4496 92.4824 10.702 93.576 10.0194C93.8209 9.85689 94.0167 9.62937 94.0167 9.49935C94.0167 9.32058 93.9188 9.30433 93.5107 9.4506C92.6457 9.74313 90.687 10.8808 90.1646 11.3846C89.6913 11.8396 89.2506 11.8721 89.626 11.4333C89.7076 11.3196 89.8056 10.5557 89.8219 9.72688L89.8545 8.23171L88.712 7.6629C86.2473 6.42777 79.3918 3.925 78.9511 4.10377C78.7879 4.16877 78.69 4.65632 78.6084 5.76145C78.4941 7.24036 78.5104 7.37037 78.8369 7.71166L79.196 8.08545L77.8575 12.2134C75.7356 18.7629 75.5887 19.1692 74.8379 20.7618C73.4831 23.6059 71.5244 26.0437 70.0554 26.6612C69.6637 26.84 69.0271 26.97 68.619 26.97C67.9988 26.97 67.9009 26.9212 67.8029 26.5637C67.6887 26.0762 68.0151 6.08648 68.162 5.38766C68.2436 4.96511 68.3089 4.91635 68.9292 4.93261L69.6147 4.94886L69.6637 3.12866L69.7127 1.32471L69.174 1.1622C67.7213 0.707146 58.189 -0.202953 57.5524 0.0408211C57.3239 0.138332 57.2913 0.414612 57.3239 2.05604L57.3729 3.97375L58.0258 4.05501C58.6297 4.13627 58.6787 4.16877 58.7929 4.78634C58.9235 5.56643 58.9235 20.4043 58.7766 24.8573L58.6787 28.0264L58.14 26.0762C57.6177 24.1259 54.7287 12.4734 54.2553 10.3119C53.7656 8.18296 53.5208 6.89907 53.3086 5.40391C53.1127 4.00625 53.1127 3.90874 53.4065 3.84374C53.6514 3.77873 53.7003 3.58371 53.7003 2.62486C53.7003 2.00729 53.7493 1.27596 53.7983 1.01593C53.9289 0.333355 53.5371 -0.00793076 52.672 0.00831985C52.2966 0.0245705 50.8113 0.122082 49.3749 0.235844ZM52.721 2.00729C52.721 2.75487 52.672 2.91739 52.3946 2.99865C51.9865 3.12866 51.9865 3.50245 52.3293 5.82645C52.6231 7.85792 53.2923 10.8157 54.9245 17.4627C55.5938 20.1443 56.3446 23.2646 56.6221 24.386C57.6014 28.4164 58.2053 29.8303 58.8909 29.7003C59.0378 29.6678 59.25 29.4728 59.3642 29.2453C59.8376 28.2701 59.9029 26.515 59.8865 15.675C59.8865 5.64768 59.8539 4.55882 59.6091 3.89249C59.3806 3.32368 59.2173 3.14491 58.7929 3.0149C58.2869 2.86863 58.2706 2.83613 58.2706 2.00729V1.12969H59.4622C61.5351 1.12969 67.1827 1.71476 68.4395 2.05604C68.6517 2.1048 68.717 2.29982 68.717 2.99865C68.717 3.85999 68.717 3.87624 68.1947 3.925C67.754 3.9575 67.5907 4.08751 67.3459 4.60757C67.0521 5.19263 67.0358 5.94021 66.8889 16.0001C66.7583 25.6861 66.7583 26.8237 66.9868 27.2788C67.5581 28.3677 69.4678 28.3189 71.2796 27.1488C73.4178 25.7674 75.6214 22.2895 77.0251 18.0965C79.0654 11.9696 80.1427 8.45924 80.1427 7.93918C80.1427 7.61415 80.0284 7.25661 79.8978 7.14285C79.7346 7.01283 79.653 6.65529 79.653 6.13524C79.653 5.32265 79.653 5.32265 80.11 5.42016C81.2689 5.71269 86.6064 7.77666 88.1896 8.55675C88.9078 8.91429 88.9568 8.9793 88.9568 9.58061C88.9568 10.0682 88.8752 10.2632 88.614 10.4095C88.3202 10.5557 88.2876 10.6857 88.3692 11.2545C88.5324 12.2622 90.0014 18.129 91.0134 21.8507C92.9721 28.9527 93.4128 30.0578 94.4248 30.3829C94.8982 30.5454 94.9961 30.6429 94.9961 31.0492V31.5205H92.0254C90.3768 31.5205 87.8795 31.4717 86.4758 31.4067L83.8968 31.3092V30.7892C83.8968 30.3179 83.9621 30.2529 84.4681 30.1554C85.2516 30.0091 85.5291 29.5378 85.5291 28.3352C85.5291 26.9375 84.8435 25.6049 83.3419 24.1097C82.1014 22.8746 80.9425 22.2245 80.0121 22.192L79.4082 22.1757L79.0328 23.4759C77.8249 27.5063 77.5964 29.1477 78.184 29.7328C78.3635 29.9116 78.6573 30.0578 78.8369 30.0578C79.1144 30.0578 79.1633 30.1716 79.1633 30.7079V31.358H63.7386H48.3139V30.5616C48.3139 29.8141 48.3466 29.7491 48.7547 29.7003C49.3912 29.6353 49.8156 28.8227 49.8156 27.6526C49.8319 24.7273 47.5305 21.4932 44.8699 20.7293C43.809 20.4205 43.4825 20.4855 43.3519 21.0869C43.303 21.3306 43.1561 22.0295 43.0092 22.6633C41.7034 28.5139 41.687 29.4565 42.8949 29.7978C43.3846 29.9278 43.4172 29.9928 43.4172 30.6429V31.358H35.256H27.0948V30.7079C27.0948 30.1228 27.1274 30.0578 27.5029 30.0578C28.1884 30.0578 28.319 29.489 27.9925 28.0264C27.6171 26.3524 26.8336 24.0284 26.246 22.8258C25.6911 21.6882 24.4995 19.8192 24.3363 19.8192C24.271 19.8192 24.0099 20.0305 23.765 20.2905L23.308 20.7618L23.4223 24.5647C23.5365 28.6114 23.6344 29.3428 24.1568 29.8141C24.369 30.0091 24.4832 30.3179 24.4832 30.7404V31.358H19.7497H15.0162V30.8704C15.0162 30.4641 15.0815 30.3829 15.3916 30.3829C15.9955 30.3829 16.3383 30.0091 16.5015 29.229C16.6648 28.3839 16.6974 18.6979 16.5342 15.5288C16.4199 13.0747 16.3546 12.9447 15.4732 13.286L14.9999 13.4648L15.0488 12.6359L15.0978 11.8071L17.8726 10.4257C19.4069 9.66187 21.5288 8.65426 22.6061 8.18296L24.5648 7.33787L24.6628 8.16671C24.7117 8.63801 24.7444 9.0118 24.7444 9.0118C24.5811 9.0118 24.0262 9.4506 23.7977 9.75938C23.259 10.4582 22.9979 13.5785 23.308 15.3337L23.4223 15.9676L24.0915 14.9274C24.4669 14.3586 25.1688 13.2535 25.6747 12.4897C27.715 9.33683 27.9762 8.02044 26.5072 8.37798C26.1318 8.47549 26.1155 8.44299 26.1155 7.59789V6.7203L26.8989 6.46027C27.3233 6.314 28.4006 5.94021 29.2983 5.63143C31.0285 5.01386 34.8479 3.89249 35.207 3.89249C35.3539 3.89249 35.4192 4.15252 35.4192 4.68883V5.46891L34.4072 6.13524C33.836 6.49277 32.9545 7.2241 32.4486 7.74416C31.2244 8.99555 28.727 12.3272 28.727 12.7172C28.727 12.896 29.0045 13.3673 29.3636 13.7898C30.1144 14.6837 31.6488 17.1539 32.2527 18.4703C32.9056 19.9167 34.2277 23.5409 34.7827 25.4748C35.4029 27.6363 36.1864 29.5215 36.4965 29.6353C37.329 29.9441 38.0308 28.4977 38.9938 24.451C39.6794 21.6069 40.8383 16.8126 41.7034 13.2373C44.0375 3.63246 43.9395 4.18502 43.4172 3.85999C43.1561 3.69747 43.0908 3.46995 43.0908 2.81988V1.97478L44.4455 1.77976C46.6327 1.47098 49.9299 1.1622 51.3826 1.14594L52.721 1.12969V2.00729Z" fill="white"/>
<path d="M48.6393 2.20286C46.1746 2.43038 44.069 2.73916 44.069 2.85293C44.069 2.90168 44.2159 3.08045 44.3792 3.25922C44.5424 3.43799 44.7219 3.77928 44.7709 3.99055C44.8525 4.46185 44.673 5.29069 42.8612 12.8315C41.6207 17.9508 41.2942 19.3485 40.8698 21.1199C39.3192 27.6531 38.7643 29.197 37.589 30.1071C37.3768 30.2697 37.2136 30.4809 37.2136 30.5622C37.2136 30.7247 39.205 30.7572 41.0167 30.6109L42.2573 30.4972L41.7839 30.0259C40.9025 29.1483 40.9188 27.6044 41.8655 23.3952C42.2083 21.9162 42.5184 20.5348 42.5674 20.3073C42.7143 19.5272 42.9101 19.446 44.1833 19.5435C45.081 19.6085 45.587 19.7548 46.3379 20.1448C48.8189 21.4612 50.7939 24.549 50.8265 27.2143C50.8428 28.6932 50.7123 29.1158 50.0104 29.8959L49.4228 30.5459H53.8788H58.3348L57.8288 30.0096C56.9964 29.1483 56.6863 28.3032 55.8049 24.6628C55.3478 22.7613 54.646 19.9173 54.2379 18.3571C52.3772 11.0926 51.6916 7.98848 51.2509 4.67312C51.0714 3.32423 51.0714 3.21046 51.3978 2.65791C51.5937 2.34912 51.7406 2.05659 51.7406 2.00783C51.7406 1.92657 51.4794 1.94283 48.6393 2.20286ZM46.7622 8.68731C47.1866 10.5563 47.6763 12.7177 47.8558 13.4816C48.0191 14.2454 48.2313 15.188 48.3129 15.5943C48.3945 16.0006 48.6556 17.122 48.8842 18.1133C49.1127 19.0884 49.2922 19.9173 49.2922 19.966C49.2922 19.9985 48.7373 19.4947 48.0517 18.8447C46.55 17.4308 45.8155 17.0732 44.4445 17.057C43.8732 17.057 43.4161 16.992 43.4161 16.9107C43.4161 16.7157 43.7589 15.0417 44.3955 12.0189C44.673 10.7188 45.081 8.75232 45.3095 7.63095C45.7503 5.46946 45.8319 5.11192 45.9298 5.20943C45.9624 5.24194 46.3379 6.8021 46.7622 8.68731Z" fill="white"/>
<path d="M45.8018 9.69485C45.7528 9.85736 45.4264 11.3525 45.0836 13.0265L44.447 16.0655L45.3448 16.2606C45.8508 16.3581 46.5363 16.6181 46.8954 16.8456C47.2382 17.0569 47.5646 17.2032 47.6299 17.1544C47.6789 17.1057 47.5156 16.163 47.2871 15.0742C45.9977 9.19104 45.9813 9.12603 45.8018 9.69485Z" fill="white"/>
<path d="M59.6919 2.05664C59.6266 2.1054 59.7246 2.26792 59.9041 2.38168C60.9977 3.14551 61.063 4.07186 60.9161 17.3008L60.8019 28.677L60.3448 29.6359C60.1 30.1559 59.9041 30.611 59.9041 30.6435C59.9041 30.7573 71.0197 30.7085 74.5453 30.5947L77.8425 30.4972L77.4507 30.0259C76.8794 29.3596 76.7978 28.8558 77.0263 27.4907C77.2385 26.3043 78.7075 21.0387 78.8871 20.8437C79.083 20.6487 81.058 21.1687 81.9884 21.64C83.1636 22.2738 84.7958 23.8503 85.563 25.1016C86.7871 27.1331 86.983 28.8396 86.1179 29.9772L85.6772 30.546H89.5293H93.3977L92.9733 30.0422C92.7285 29.7659 92.4347 29.3434 92.3204 29.0996C91.537 27.5719 87.3258 11.7102 87.3258 10.28C87.3258 10.0688 87.4074 9.75998 87.5217 9.58121C87.6359 9.4187 87.6849 9.23993 87.6522 9.20742C87.6033 9.17492 86.5586 8.71987 85.3018 8.19981C81.515 6.63964 80.1439 6.23335 80.7642 6.85092C81.1069 7.1922 80.9764 8.28107 80.2908 10.4588C79.9317 11.6289 79.2952 13.6442 78.8871 14.9443C78.4954 16.2444 77.9567 17.9509 77.7119 18.7635C77.4507 19.5598 77.0916 20.6324 76.8958 21.12C75.9164 23.5415 73.9577 26.5481 72.7009 27.5232C71.8032 28.222 70.2689 28.7908 69.0447 28.8721C67.7389 28.9533 66.7106 28.5145 66.1883 27.6207C65.8781 27.0681 65.8618 26.8406 65.9108 20.3074C65.9434 16.602 66.025 11.5802 66.0903 9.17492C66.2046 5.20949 66.2535 4.70568 66.5637 4.00686C66.7432 3.58431 67.0207 3.19427 67.1513 3.14551C67.9837 2.83673 66.7595 2.5767 62.5973 2.18666C59.545 1.91038 59.8225 1.91038 59.6919 2.05664ZM83.4084 13.7254C84.5999 18.731 85.2202 21.4775 85.1712 21.6238C85.1386 21.6888 84.7958 21.4613 84.3878 21.1037C83.1636 20.0311 81.5803 19.056 80.5357 18.731L79.54 18.4384L80.7315 14.4567C81.4007 12.2628 82.021 10.1825 82.1353 9.82499L82.3148 9.17492L82.527 10.0688C82.6413 10.5563 83.0493 12.1977 83.4084 13.7254Z" fill="white"/>
<path d="M82.0165 13.1891C81.9839 13.3028 81.6901 14.2779 81.3636 15.3506C81.0535 16.4232 80.7434 17.4145 80.6944 17.5608C80.6454 17.7558 80.8413 17.9183 81.5105 18.1946C82.0002 18.3896 82.6368 18.7309 82.9306 18.9422C83.6814 19.4948 83.8936 19.4623 83.714 18.7959C83.5018 18.0484 82.6368 14.3267 82.5062 13.5954C82.3919 12.9941 82.1471 12.799 82.0165 13.1891Z" fill="white"/>
<path d="M31.8282 5.66405C28.3352 6.78542 27.2579 7.17546 27.2579 7.32173C27.2579 7.40298 27.3558 7.46799 27.4864 7.46799C27.8455 7.46799 28.2372 8.11806 28.2372 8.73563C28.2372 9.66198 27.1599 11.7747 25.5767 13.9687C25.2829 14.375 24.4178 15.5776 23.6669 16.6502L22.2795 18.5842L22.149 16.7315C21.9531 13.985 22.1 10.7996 22.4428 9.93826C22.606 9.54822 22.6876 9.20693 22.6549 9.15818C22.5244 9.04441 18.5907 10.8159 17.1706 11.6284L16.4688 12.0347L16.7952 12.441C17.4155 13.2211 17.4807 14.245 17.4318 21.9483C17.3828 29.0991 17.3665 29.3429 17.04 30.0254C16.8442 30.3992 16.7462 30.7405 16.8115 30.7893C16.8931 30.838 18.3785 30.8218 20.1413 30.7568L23.3242 30.6593L22.9324 29.9929C22.3938 29.0503 22.1979 27.4577 22.1979 23.9635V20.9245L23.2262 19.6406C23.7812 18.9417 24.2872 18.3567 24.3525 18.3567C24.5973 18.3567 26.1643 20.7619 26.8498 22.1758C27.6496 23.8173 28.4331 26.1413 28.8085 27.9127C29.037 29.0503 29.037 29.1479 28.7269 29.8467C28.5473 30.253 28.4004 30.6105 28.4004 30.643C28.4004 30.773 35.7292 30.6918 35.8108 30.5618C35.8598 30.4805 35.7782 30.318 35.6476 30.2042C35.0437 29.7004 34.5703 28.6278 33.6889 25.7187C31.8282 19.5918 30.4081 16.5527 28.1066 13.8224C27.2579 12.8148 27.1763 13.1236 28.9064 10.6533C30.049 9.04441 32.4484 6.46038 33.4604 5.76156C34.1133 5.30651 34.2928 5.01398 33.9174 5.04648C33.8032 5.04648 32.8565 5.32276 31.8282 5.66405Z" fill="white"/>
<path d="M11.2162 36.5266C10.8571 36.9166 10.8571 37.5342 11.1999 37.5342C11.3468 37.5342 11.559 37.4204 11.6732 37.2579C11.8365 37.0466 11.9507 37.0304 12.4078 37.1766C13.1096 37.4367 13.9584 37.4204 14.1706 37.1604C14.2522 37.0629 14.3828 36.8029 14.4317 36.5916C14.5297 36.299 14.4807 36.234 14.2195 36.234C14.04 36.234 13.8278 36.3478 13.7462 36.4941C13.5993 36.7541 13.534 36.7541 12.8158 36.4941C11.8038 36.1528 11.5427 36.169 11.2162 36.5266Z" fill="white"/>
<path d="M95.8126 36.5591C95.4209 36.9491 95.3719 37.5342 95.7474 37.5342C95.8943 37.5342 96.1064 37.4204 96.2207 37.2579C96.3839 37.0466 96.4982 37.0304 96.9552 37.1766C97.249 37.2904 97.7713 37.3717 98.1304 37.3717C98.6527 37.3717 98.7833 37.3067 98.9139 36.9491C99.0118 36.7216 99.0771 36.4616 99.0771 36.3803C99.0771 36.1365 98.4569 36.2178 98.2937 36.4941C98.1631 36.7216 98.0815 36.7216 97.4286 36.4941C96.4819 36.1528 96.2044 36.169 95.8126 36.5591Z" fill="white"/>
<path d="M21.2059 36.2006C21.6101 36.4306 21.8699 36.8258 21.8699 37.3505C21.8699 38.2129 21.1698 38.8094 20.2964 38.8094H18.1526V33.7786H20.1448C20.9965 33.7786 21.6823 34.3535 21.6823 35.1944C21.6823 35.6256 21.5018 35.9634 21.2059 36.2006ZM20.1448 34.7057H19.1487V35.8125H20.1448C20.4552 35.8125 20.6862 35.5753 20.6862 35.2591C20.6862 34.9429 20.4624 34.7057 20.1448 34.7057ZM20.2964 37.8823C20.6356 37.8823 20.881 37.6308 20.881 37.2858C20.881 36.948 20.6356 36.6965 20.2964 36.6965H19.1487V37.8823H20.2964Z" fill="white"/>
<path d="M25.7278 38.8094L24.71 37.063H23.9521V38.8094H22.956V33.7786H24.9771C25.9083 33.7786 26.6589 34.526 26.6589 35.446C26.6589 36.0784 26.2619 36.6462 25.6845 36.9121L26.8033 38.8094H25.7278ZM23.9521 34.7057V36.1934H24.9771C25.3525 36.1934 25.6628 35.8628 25.6628 35.446C25.6628 35.0291 25.3525 34.7057 24.9771 34.7057H23.9521Z" fill="white"/>
<path d="M31.0711 38.8094L30.7679 37.9039H28.7541L28.4509 38.8094H27.3754L29.1438 33.7786H30.3781L32.1538 38.8094H31.0711ZM29.0717 36.9768H30.4575L29.7646 34.9213L29.0717 36.9768Z" fill="white"/>
<path d="M36.0008 33.7786H36.997V38.8094H36.239L34.0736 35.7334V38.8094H33.0775V33.7786H33.8354L36.0008 36.8474V33.7786Z" fill="white"/>
<path d="M40.374 33.7786C41.7671 33.7786 42.8065 34.8782 42.8065 36.294C42.8065 37.7098 41.7671 38.8094 40.374 38.8094H38.3673V33.7786H40.374ZM40.374 37.8608C41.2474 37.8608 41.8537 37.2211 41.8537 36.294C41.8537 35.3669 41.2474 34.7273 40.374 34.7273H39.3634V37.8608H40.374Z" fill="white"/>
<path d="M51.1282 33.7786V38.8094H50.1393V35.5466L48.7173 37.8823H48.6019L47.1799 35.5538V38.8094H46.1838V33.7786H47.2088L48.6596 36.1575L50.1032 33.7786H51.1282Z" fill="white"/>
<path d="M54.3867 38.91C53.2823 38.91 52.4594 38.2488 52.4594 37.1636V33.7786H53.4483V37.0846C53.4483 37.5733 53.7082 37.9398 54.3867 37.9398C55.0652 37.9398 55.3251 37.5733 55.3251 37.0846V33.7786H56.3212V37.1636C56.3212 38.2488 55.4983 38.91 54.3867 38.91Z" fill="white"/>
<path d="M59.3767 38.91C58.3445 38.91 57.666 38.4141 57.3917 37.6667L58.2435 37.1708C58.4239 37.638 58.7776 37.9398 59.4056 37.9398C60.0047 37.9398 60.214 37.6883 60.214 37.408C60.214 37.0343 59.8748 36.8905 59.1241 36.6749C58.3518 36.4521 57.6011 36.1287 57.6011 35.1729C57.6011 34.2242 58.3951 33.678 59.2612 33.678C60.0913 33.678 60.7265 34.102 61.0658 34.8063L60.2285 35.2878C60.048 34.9069 59.7737 34.641 59.2612 34.641C58.8426 34.641 58.5972 34.8566 58.5972 35.1441C58.5972 35.4531 58.7921 35.6184 59.5572 35.8484C60.3584 36.1 61.2101 36.3659 61.2101 37.3936C61.2101 38.3351 60.4522 38.91 59.3767 38.91Z" fill="white"/>
<path d="M62.2577 33.7786H63.2538V38.8094H62.2577V33.7786Z" fill="white"/>
<path d="M67.0186 38.91C65.4884 38.91 64.3912 37.7601 64.3912 36.294C64.3912 34.8207 65.4884 33.678 67.0186 33.678C67.9425 33.678 68.7582 34.1451 69.1913 34.8638L68.3323 35.3597C68.0869 34.9141 67.5961 34.641 67.0186 34.641C66.0297 34.641 65.3801 35.3238 65.3801 36.294C65.3801 37.2571 66.0297 37.9398 67.0186 37.9398C67.5961 37.9398 68.0941 37.6667 68.3323 37.2283L69.1913 37.7242C68.7654 38.4429 67.9497 38.91 67.0186 38.91Z" fill="white"/>
<path d="M74.9267 38.91C73.3965 38.91 72.2993 37.7601 72.2993 36.294C72.2993 34.8207 73.3965 33.678 74.9267 33.678C75.8506 33.678 76.6663 34.1451 77.0994 34.8638L76.2404 35.3597C75.995 34.9141 75.5041 34.641 74.9267 34.641C73.9378 34.641 73.2882 35.3238 73.2882 36.294C73.2882 37.2571 73.9378 37.9398 74.9267 37.9398C75.5041 37.9398 76.0022 37.6667 76.2404 37.2283L77.0994 37.7242C76.6735 38.4429 75.8578 38.91 74.9267 38.91Z" fill="white"/>
<path d="M80.4842 38.91C79.0261 38.91 77.864 37.7601 77.864 36.294C77.864 34.8207 79.0261 33.678 80.4842 33.678C81.9423 33.678 83.1116 34.8207 83.1116 36.294C83.1116 37.7601 81.9423 38.91 80.4842 38.91ZM80.4842 37.9398C81.4009 37.9398 82.1155 37.2571 82.1155 36.294C82.1155 35.3238 81.4009 34.641 80.4842 34.641C79.5675 34.641 78.8529 35.3238 78.8529 36.294C78.8529 37.2571 79.5675 37.9398 80.4842 37.9398Z" fill="white"/>
<path d="M89.1892 33.7786V38.8094H88.2004V35.5466L86.7784 37.8823H86.6629L85.2409 35.5538V38.8094H84.2448V33.7786H85.2698L86.7206 36.1575L88.1643 33.7786H89.1892Z" fill="white"/>
<path d="M91.0618 38.9028C90.7226 38.9028 90.4483 38.6297 90.4483 38.292C90.4483 37.9542 90.7226 37.6811 91.0618 37.6811C91.4011 37.6811 91.6754 37.9542 91.6754 38.292C91.6754 38.6297 91.4011 38.9028 91.0618 38.9028Z" fill="white"/>
</svg>
