<svg
      className="w-14 h-14 md:w-16 md:h-16 lg:w-[69px] lg:h-[69px]"
      width="69"
      height="69"
      viewBox="0 0 69 69"
      fill="none"
      xmlns="http://www.w3.org/2000/svg"
    >
      <rect
        width="69"
        height="69"
        rx="34.5"
        fill="#6798FC"
        fillOpacity="0.08"
      />
      <path
        d="M24.3556 18.9869C32.0259 13.8734 42.251 14.8825 48.7998 21.3888C52.4587 25.0515 54.4925 30.0082 54.4733 35.1798C54.4363 44.3997 47.8875 52.3218 38.842 54.1057C29.7771 55.8877 20.7141 51.024 17.2063 42.484C13.681 33.9595 16.6659 24.1198 24.3556 18.9869ZM41.883 27.8388C41.6331 27.7226 41.3406 27.6838 41.0714 27.7807L31.501 30.8023C31.1717 30.8992 30.9199 31.1703 30.825 31.4996L27.782 41.0681C27.7239 41.2618 27.7239 41.4749 27.782 41.6686C27.8595 41.9398 28.0551 42.1722 28.3069 42.3078C28.5762 42.4627 28.8686 42.484 29.1379 42.4046L38.7083 39.383C39.0376 39.2861 39.2894 39.0343 39.4037 38.7051L42.406 29.1365C42.4854 28.9254 42.4854 28.691 42.406 28.478C42.3304 28.2068 42.1348 27.9744 41.883 27.8388Z"
        fill="#33B6FF"
      />
    </svg>