<svg
      className="w-14 h-14 md:w-16 md:h-16 lg:w-[69px] lg:h-[69px]"
      width="69"
      height="69"
      viewBox="0 0 69 69"
      fill="none"
      xmlns="http://www.w3.org/2000/svg"
    >
      <rect
        width="69"
        height="69"
        rx="34.5"
        fill="#6798FC"
        fillOpacity="0.08"
      />
      <path
        d="M37.3438 17.6248C37.0625 17.6795 36.5235 17.8827 36.1328 18.078C34.6719 18.7967 33.5938 20.1483 33.1485 21.7967C32.961 22.5077 32.9531 24.1483 33.1485 24.8358C33.9063 27.6014 36.7188 29.4295 39.5235 28.992C40.2656 28.8748 41.3203 28.4764 41.9141 28.0858C42.5547 27.6717 43.4141 26.7811 43.7735 26.1717C43.9375 25.8905 44.1641 25.3827 44.2735 25.0389C44.461 24.4842 44.4844 24.2889 44.4844 23.3202C44.4922 22.3827 44.4688 22.1405 44.3125 21.6405C43.6719 19.6092 42.1797 18.1639 40.1875 17.6561C39.4688 17.4686 38.125 17.453 37.3438 17.6248Z"
        fill="#33B6FF"
      />
      <path
        d="M33.5156 29.0702C31.6406 30.0624 30.0469 31.6796 29.0703 33.5858C28.6797 34.3436 28.2812 35.3202 28.2812 35.5155C28.2812 35.6014 29.2188 35.6249 33.7344 35.6405L39.1797 35.6639L39.7422 35.8671C40.3359 36.0858 41.2031 36.6561 41.4844 37.0077L41.6484 37.2186L44.1641 34.7108C45.5469 33.3358 46.8125 32.1327 46.9688 32.0389C47.2109 31.8983 47.25 31.8358 47.1953 31.7264C47.1562 31.6561 46.7578 31.2421 46.3047 30.8124C45.4609 29.9999 44.5469 29.3358 43.6641 28.9061L43.1562 28.6483L42.6875 28.9686C40.3438 30.5702 37.3047 30.6171 34.9922 29.0936C34.6406 28.8593 34.3281 28.6718 34.3047 28.6718C34.2812 28.6718 33.9219 28.8514 33.5156 29.0702Z"
        fill="#33B6FF"
      />
      <path
        d="M48.3438 32.6484C48.1016 32.7266 47.7891 32.8672 47.6406 32.9531C47.5 33.0469 46.2266 34.2734 44.8203 35.6797L42.2578 38.25L42.3906 38.5547C42.5625 38.9609 42.625 40.2109 42.5 40.8047C42.2031 42.2422 41.0391 43.5 39.5312 44C39.0547 44.1563 38.8438 44.1719 36.0625 44.2031C34.4375 44.2188 32.9844 44.2109 32.8438 44.1797C32.3125 44.0859 32.0938 43.5469 32.4453 43.2188C32.6094 43.0625 32.6953 43.0547 35.7812 43.0313C38.7891 43.0078 38.9688 42.9922 39.3984 42.8359C40.0078 42.6094 40.5469 42.1953 40.8828 41.7031C41.3047 41.0938 41.4297 40.6875 41.4297 39.9219C41.4297 38.8516 41.0312 38.0391 40.1953 37.4063C39.4062 36.8125 39.7578 36.8438 33.5156 36.8125C29.5469 36.7969 27.7969 36.8125 27.4609 36.875C26.4062 37.0781 26.3438 37.1328 21.7344 41.7422C17.6172 45.8594 17.4844 46 17.4844 46.2891C17.4844 46.5781 17.5938 46.6953 20.4375 49.5391C24.0078 53.1094 23.6094 52.9063 24.7812 51.7422L25.5312 50.9922L32.5391 50.0313C36.3984 49.5 39.7266 49.0078 39.9531 48.9375C40.9219 48.625 40.9766 48.5781 46.5781 42.9375C52.8203 36.6641 52.4609 37.1094 52.4609 35.6641C52.4609 34.8984 52.4375 34.7578 52.2578 34.375C51.5547 32.8984 49.8828 32.1563 48.3438 32.6484Z"
        fill="#33B6FF"
      />
    </svg>