<svg
      className="w-14 h-14 md:w-16 md:h-16 lg:w-[69px] lg:h-[69px]"
      width="69"
      height="69"
      viewBox="0 0 69 69"
      fill="none"
      xmlns="http://www.w3.org/2000/svg"
    >
      <rect
        width="69"
        height="69"
        rx="34.5"
        fill="#6798FC"
        fillOpacity="0.08"
      />
      <path
        d="M24.2977 22.7095C20.5125 24.179 17.4102 25.4036 17.4102 25.4259C17.4102 25.4704 22.2344 27.3556 22.3457 27.3556C22.3902 27.3556 25.5668 26.131 29.4188 24.6318C34.0426 22.8357 36.3879 21.8931 36.3137 21.856C35.9203 21.6333 31.5785 20.0079 31.4004 20.0154C31.2816 20.0228 28.0828 21.2325 24.2977 22.7095Z"
        fill="#33B6FF"
      />
      <path
        d="M34.3172 26.5169C30.4875 28.0087 27.3555 29.2556 27.3555 29.2779C27.3555 29.3075 28.2758 29.6861 29.3965 30.124L31.4449 30.9181L38.4512 28.1868C42.3105 26.6876 45.4648 25.4482 45.4648 25.4259C45.4648 25.3888 41.3754 23.7857 41.3086 23.8005C41.2863 23.8005 38.1395 25.0251 34.3172 26.5169Z"
        fill="#33B6FF"
      />
      <path
        d="M16.5938 34.4805V42.6372L16.7645 42.8227C16.8832 42.9637 18.6273 43.6762 23.8672 45.7098C27.682 47.1942 30.8289 48.3891 30.866 48.3594C30.8957 48.3372 30.9105 44.6114 30.9031 40.0915L30.8809 31.8755L28.6988 31.0219C27.5039 30.5544 26.5094 30.1759 26.4945 30.1759C26.4797 30.1759 26.4648 30.9923 26.4648 31.9868C26.4648 33.0333 26.4352 33.82 26.398 33.8497C26.3387 33.8794 24.9285 32.7512 24.1047 32.0091L23.9414 31.8606L22.8207 32.2094C22.1898 32.4098 21.6703 32.536 21.6332 32.4989C21.5961 32.4618 21.559 31.4895 21.5516 30.3317L21.5293 28.2387L19.5254 27.452C18.427 27.029 17.3137 26.5985 17.0613 26.502L16.5938 26.3239V34.4805Z"
        fill="#33B6FF"
      />
      <path
        d="M39.1562 29.0849L32.0684 31.8458L32.0461 40.136L32.0312 48.4263L32.677 48.1665C33.0406 48.0255 34.5027 47.4614 35.9352 46.9048L38.5402 45.8954L38.3695 45.3388C37.7238 43.3126 37.8797 41.1899 38.8148 39.2677C40.1062 36.6329 42.5258 34.9407 45.4648 34.6216L46.2812 34.5325V30.4208C46.2812 28.1646 46.2738 26.3165 46.2664 26.3239C46.2516 26.3239 43.0527 27.5708 39.1562 29.0849Z"
        fill="#33B6FF"
      />
      <path
        d="M45.2422 35.7497C43.4906 35.9723 41.7687 36.9669 40.6258 38.4067C38.4289 41.1677 38.6219 45.2126 41.0637 47.7731C41.9914 48.738 42.9711 49.3391 44.3144 49.7399C44.923 49.9255 45.0937 49.9477 46.207 49.9477C47.2758 49.9552 47.5133 49.9329 48.0625 49.777C52.4637 48.5524 54.6457 43.7727 52.664 39.7056C51.2984 36.9001 48.3816 35.3415 45.2422 35.7497ZM50.2 39.5052C50.4301 39.6462 50.6601 40.0395 50.6601 40.2919C50.6601 40.4106 50.6082 40.611 50.5488 40.7446C50.4004 41.0563 45.2644 46.1774 44.9972 46.2739C44.7226 46.3778 44.4777 46.3778 44.2254 46.2591C43.9953 46.1552 41.7168 43.3348 41.5535 42.9415C41.4051 42.6001 41.5238 42.2141 41.8652 41.9098C42.1621 41.6501 42.5777 41.5981 42.9265 41.7837C43.0379 41.8431 43.4758 42.3255 43.8988 42.8598C44.3219 43.3942 44.6929 43.8321 44.7152 43.8321C44.7375 43.8321 45.7097 42.8747 46.875 41.7095C48.2332 40.3513 49.0941 39.5348 49.2871 39.4458C49.6062 39.2973 49.9031 39.3122 50.2 39.5052Z"
        fill="#33B6FF"
      />
    </svg>