<svg
      className="w-[34px] sm:w-[46px]"
      width="46"
      height="46"
      viewBox="0 0 46 46"
      fill="none"
      xmlns="http://www.w3.org/2000/svg"
    >
      <path
        d="M31.0875 34.408C31.5389 34.6466 32.1225 34.6208 32.525 34.2643L32.5394 34.2786C34.0786 32.9136 35.634 31.567 37.2055 30.2392C37.7029 29.8281 37.6166 29.1698 37.2228 28.6206L36.8634 28.1319C35.8715 26.795 34.9285 25.5271 34.9285 22.9827V13.4952L34.9314 12.5321C34.9544 8.89525 34.9716 5.57175 32.249 3.03025C29.9116 0.78775 26.0476 0 23.0864 0C17.299 0 10.8389 2.15625 9.47613 9.315C9.341 10.074 9.88725 10.4765 10.3846 10.5886L16.2899 11.2211C16.8361 11.1953 17.2386 10.6576 17.3421 10.1085C17.8481 7.64463 19.9181 6.45437 22.2383 6.45437C23.4889 6.45437 24.9091 6.91438 25.6538 8.03563C26.4128 9.15688 26.4013 10.6519 26.3926 11.9916V13.2336C25.8205 13.2969 25.2225 13.3601 24.6073 13.4205C21.4074 13.7483 17.7159 14.1277 14.9473 15.3467C11.135 16.9912 8.45263 20.355 8.45263 25.2943C8.45263 31.6193 12.4403 34.776 17.5606 34.776C21.8904 34.776 24.2536 33.7582 27.5915 30.3485L28.0716 31.0557C28.8594 32.2201 29.3826 32.9964 31.0818 34.408H31.0875ZM17.3364 24.2391C17.3364 19.0526 21.9853 18.1125 26.384 18.1125V19.7512C26.3869 21.9823 26.3898 23.874 25.2455 25.8836C24.2795 27.5943 22.7443 28.6465 21.0336 28.6465C18.6991 28.6465 17.3364 26.8669 17.3364 24.2391ZM1.25075 35.0002C8.80913 39.6089 20.5075 46.7417 39.1519 37.8666C39.9569 37.5331 40.5175 38.0909 39.724 39.1058C38.9219 40.135 32.5221 46 21.7639 46C11.0171 46 2.78313 38.6572 0.270379 35.6097C-0.419621 34.8191 0.373879 34.4598 0.842504 34.7501L1.25075 35.0002Z"
        fill="white"
      />
      <path
        d="M39.7557 34.3361C41.3858 34.1349 43.9762 34.2585 44.4851 34.9226C44.8732 35.4286 44.4736 37.6999 43.8152 39.33C43.154 40.9486 42.1707 42.0929 41.6245 42.5356C41.0753 42.9784 40.6671 42.8059 40.9632 42.1417C41.2651 41.4805 42.9297 37.3606 42.2713 36.4981C41.659 35.6989 38.8875 35.9892 37.5995 36.1244L37.3407 36.1502C37.0676 36.1732 36.8462 36.1991 36.6708 36.2192C36.116 36.2796 35.9665 36.2969 35.8831 36.1272C35.6703 35.5264 38.1227 34.5287 39.7557 34.3361Z"
        fill="white"
      />
    </svg>