<svg
      className="w-[34px] sm:w-[46px]"
      width="45"
      height="45"
      viewBox="0 0 45 45"
      fill="none"
      xmlns="http://www.w3.org/2000/svg"
    >
      <path
        d="M22.5 41.25C12.1444 41.25 3.75 32.8556 3.75 22.5C3.75 12.1444 12.1444 3.75 22.5 3.75C32.8556 3.75 41.25 12.1444 41.25 22.5C41.25 32.8556 32.8556 41.25 22.5 41.25ZM13.125 24.375C13.125 26.8614 14.1127 29.246 15.8709 31.0041C17.629 32.7623 20.0136 33.75 22.5 33.75C24.9864 33.75 27.371 32.7623 29.1291 31.0041C30.8873 29.246 31.875 26.8614 31.875 24.375H28.125C28.125 25.8668 27.5324 27.2976 26.4775 28.3525C25.4226 29.4074 23.9918 30 22.5 30C21.0082 30 19.5774 29.4074 18.5225 28.3525C17.4676 27.2976 16.875 25.8668 16.875 24.375H13.125ZM15 20.625C15.7459 20.625 16.4613 20.3287 16.9887 19.8012C17.5162 19.2738 17.8125 18.5584 17.8125 17.8125C17.8125 17.0666 17.5162 16.3512 16.9887 15.8238C16.4613 15.2963 15.7459 15 15 15C14.2541 15 13.5387 15.2963 13.0113 15.8238C12.4838 16.3512 12.1875 17.0666 12.1875 17.8125C12.1875 18.5584 12.4838 19.2738 13.0113 19.8012C13.5387 20.3287 14.2541 20.625 15 20.625ZM30 20.625C30.7459 20.625 31.4613 20.3287 31.9887 19.8012C32.5162 19.2738 32.8125 18.5584 32.8125 17.8125C32.8125 17.0666 32.5162 16.3512 31.9887 15.8238C31.4613 15.2963 30.7459 15 30 15C29.2541 15 28.5387 15.2963 28.0113 15.8238C27.4838 16.3512 27.1875 17.0666 27.1875 17.8125C27.1875 18.5584 27.4838 19.2738 28.0113 19.8012C28.5387 20.3287 29.2541 20.625 30 20.625Z"
        fill="white"
      />
    </svg>