 <svg
      className="w-[40px] sm:w-[52px]"
      width="52"
      height="39"
      viewBox="0 0 52 39"
      fill="none"
      xmlns="http://www.w3.org/2000/svg"
    >
      <rect
        x="4.32837"
        y="32.0644"
        width="3.3283"
        height="6.28679"
        rx="1.66415"
        fill="white"
      />
      <rect
        x="12.4641"
        y="25.038"
        width="3.3283"
        height="13.3132"
        rx="1.66415"
        fill="white"
      />
      <rect
        x="20.97"
        y="22.4492"
        width="3.3283"
        height="15.9019"
        rx="1.66415"
        fill="white"
      />
      <rect
        x="29.1057"
        y="23.5587"
        width="3.3283"
        height="14.7925"
        rx="1.66415"
        fill="white"
      />
      <rect
        x="37.6113"
        y="20.2303"
        width="3.3283"
        height="18.1208"
        rx="1.66415"
        fill="white"
      />
      <rect
        x="45.7471"
        y="11.3548"
        width="3.3283"
        height="26.9962"
        rx="1.66415"
        fill="white"
      />
      <path
        d="M0.387285 30.2389C-0.00810015 30.5773 -0.054301 31.1721 0.284092 31.5675C0.622485 31.9629 1.21733 32.0091 1.61272 31.6707L0.387285 30.2389ZM11.98 21.5575L12.5927 22.2734H12.5927L11.98 21.5575ZM19.1255 19.289L19.2131 18.3507L19.1255 19.289ZM28.2232 20.1381L28.1356 21.0763L28.2232 20.1381ZM36.4122 16.8277L37.1272 17.4415V17.4415L36.4122 16.8277ZM50.9396 0.928549C50.9001 0.409629 50.4474 0.0209919 49.9285 0.0605036L41.4722 0.704384C40.9532 0.743896 40.5646 1.19659 40.6041 1.71551C40.6436 2.23443 41.0963 2.62307 41.6152 2.58356L49.132 2.01122L49.7043 9.52793C49.7438 10.0468 50.1965 10.4355 50.7154 10.396C51.2343 10.3565 51.623 9.90376 51.5835 9.38484L50.9396 0.928549ZM1.61272 31.6707L12.5927 22.2734L11.3673 20.8416L0.387285 30.2389L1.61272 31.6707ZM19.038 20.2272L28.1356 21.0763L28.3108 19.1998L19.2131 18.3507L19.038 20.2272ZM37.1272 17.4415L50.715 1.61389L49.285 0.386291L35.6972 16.2139L37.1272 17.4415ZM28.1356 21.0763C31.5449 21.3945 34.8968 20.0395 37.1272 17.4415L35.6972 16.2139C33.865 18.3481 31.1115 19.4612 28.3108 19.1998L28.1356 21.0763ZM12.5927 22.2734C14.3758 20.7474 16.7012 20.0091 19.038 20.2272L19.2131 18.3507C16.3685 18.0852 13.5378 18.9839 11.3673 20.8416L12.5927 22.2734Z"
        fill="white"
      />
    </svg>