 <svg
      className="w-[34px] sm:w-[46px]"
      width="46"
      height="45"
      viewBox="0 0 46 45"
      fill="none"
      xmlns="http://www.w3.org/2000/svg"
    >
      <path
        d="M27.2485 40.5884V35.9165L38.2612 24.6977C38.4663 24.5145 38.6783 24.3806 38.8972 24.296C39.1175 24.2087 39.3378 24.165 39.558 24.165C39.7852 24.165 40.0151 24.2101 40.2477 24.3003C40.4804 24.3905 40.6855 24.5265 40.8631 24.7083L42.7733 26.706C42.9426 26.9145 43.072 27.1309 43.1615 27.3549C43.2496 27.5804 43.2936 27.8059 43.2936 28.0314C43.2936 28.2569 43.2579 28.4838 43.1863 28.7121C43.1147 28.9404 42.977 29.1589 42.7733 29.3675L31.8122 40.5884H27.2485ZM39.556 30.0503L41.4661 28.0314L39.556 26.0337L37.5942 28.042L39.556 30.0503ZM7.39335 36.3605C6.44344 36.3605 5.65048 36.0349 5.01445 35.3838C4.37705 34.7313 4.05835 33.9188 4.05835 32.9464V10.1789C4.05835 9.20651 4.37705 8.39475 5.01445 7.74365C5.65048 7.09113 6.44344 6.76488 7.39335 6.76488H17.6792L21.8092 10.9928H37.8936C38.8435 10.9928 39.6365 11.3191 40.2725 11.9716C40.9099 12.6227 41.2286 13.4345 41.2286 14.4069V19.3916C40.9326 19.2887 40.6318 19.2183 40.3262 19.1802C40.0233 19.1422 39.7191 19.1231 39.4135 19.1231C38.6357 19.1231 37.8716 19.2725 37.1213 19.5713C36.3696 19.8687 35.6765 20.302 35.0418 20.8714L22.3255 33.8089V36.3605H7.39335Z"
        fill="white"
      />
    </svg>