 <svg
      className="w-[34px] sm:w-[46px]"
      width="46"
      height="46"
      viewBox="0 0 46 46"
      fill="none"
      xmlns="http://www.w3.org/2000/svg"
    >
      <path
        d="M21.0832 34.5H24.9165V40.25H21.0832V34.5ZM30.6665 40.25V44.0833H15.3332V40.25H30.6665ZM38.3332 34.5H7.6665C6.14198 34.4985 4.68033 33.8922 3.60232 32.8142C2.52432 31.7362 1.91803 30.2745 1.9165 28.75V7.66667C1.91803 6.14214 2.52432 4.68049 3.60232 3.60249C4.68033 2.52448 6.14198 1.91819 7.6665 1.91667H38.3332C39.8577 1.91819 41.3194 2.52448 42.3974 3.60249C43.4754 4.68049 44.0816 6.14214 44.0832 7.66667V28.75C44.0816 30.2745 43.4754 31.7362 42.3974 32.8142C41.3194 33.8922 39.8577 34.4985 38.3332 34.5ZM7.6665 5.75001C7.15817 5.75001 6.67066 5.95194 6.31122 6.31138C5.95177 6.67083 5.74984 7.15834 5.74984 7.66667V28.75C5.74984 29.2583 5.95177 29.7458 6.31122 30.1053C6.67066 30.4647 7.15817 30.6667 7.6665 30.6667H38.3332C38.8415 30.6667 39.329 30.4647 39.6885 30.1053C40.0479 29.7458 40.2498 29.2583 40.2498 28.75V7.66667C40.2498 7.15834 40.0479 6.67083 39.6885 6.31138C39.329 5.95194 38.8415 5.75001 38.3332 5.75001H7.6665Z"
        fill="white"
      />
      <path
        d="M30.6668 28.75L26.9983 16.5217L24.9168 24.9167L22.4079 19.1667H21.7735L19.1668 26.8333L16.9492 19.0383L15.9257 21.0833H9.5835V19.1667H14.7412L17.2502 13.4167L19.2972 20.5333L20.3935 17.25H23.5924L24.5258 19.1149L26.8335 7.66667L30.6668 23L31.8935 19.1667H36.4168V21.0833H33.2735L30.6668 28.75Z"
        fill="white"
      />
    </svg>