<svg
      className="w-[34px] sm:w-[46px]"
      width="45"
      height="45"
      viewBox="0 0 45 45"
      fill="none"
      xmlns="http://www.w3.org/2000/svg"
    >
      <path
        d="M13.125 41.25C12.0937 41.25 11.2112 40.8831 10.4775 40.1494C9.74375 39.4156 9.37625 38.5325 9.375 37.5C9.375 36.4688 9.7425 35.5862 10.4775 34.8525C11.2125 34.1187 12.095 33.7512 13.125 33.75C14.1562 33.75 15.0394 34.1175 15.7744 34.8525C16.5094 35.5875 16.8762 36.47 16.875 37.5C16.875 38.5312 16.5081 39.4144 15.7744 40.1494C15.0406 40.8844 14.1575 41.2513 13.125 41.25ZM31.875 41.25C30.8437 41.25 29.9612 40.8831 29.2275 40.1494C28.4937 39.4156 28.1262 38.5325 28.125 37.5C28.125 36.4688 28.4925 35.5862 29.2275 34.8525C29.9625 34.1187 30.845 33.7512 31.875 33.75C32.9062 33.75 33.7894 34.1175 34.5244 34.8525C35.2594 35.5875 35.6262 36.47 35.625 37.5C35.625 38.5312 35.2581 39.4144 34.5244 40.1494C33.7906 40.8844 32.9075 41.2513 31.875 41.25ZM9.75 7.5H40.6875L31.3594 24.375H15.1875L13.125 28.125H35.625V31.875H6.79687L12.375 21.75L5.625 7.5H1.875V3.75H7.96875L9.75 7.5Z"
        fill="white"
      />
    </svg>